<svg xmlns="http://www.w3.org/2000/svg" width="80" height="80" viewBox="0 0 80 80">
  <g id="Raggruppa_28687" data-name="Raggruppa 28687" transform="translate(-132 -32)">
    <g id="logo" transform="translate(108)">
      <rect id="Rettangolo_145801" data-name="Rettangolo 145801" width="80" height="80" transform="translate(24 32)" fill="none"/>
      <g id="noun-water-4992428" transform="translate(-46.998 25.848)">
        <path id="Tracciato_73359" data-name="Tracciato 73359" d="M472.609,321.29a1.022,1.022,0,0,0,.092,1.443,6.085,6.085,0,0,0,4.341,1.721,6.53,6.53,0,0,0,4.863-2.188,4.574,4.574,0,0,1,3.464-1.643,1.022,1.022,0,0,0,0-2.044,6.512,6.512,0,0,0-4.848,2.184,4.59,4.59,0,0,1-3.479,1.648,4.06,4.06,0,0,1-2.99-1.212,1.023,1.023,0,0,0-1.443.092Z" transform="translate(-350.396 -268.354)" fill="#d21919"/>
        <path id="Tracciato_73360" data-name="Tracciato 73360" d="M85.021,320.626a4.575,4.575,0,0,1,3.464,1.643,6.53,6.53,0,0,0,4.863,2.188,6.083,6.083,0,0,0,4.341-1.721,1.022,1.022,0,1,0-1.35-1.535,4.06,4.06,0,0,1-2.99,1.212,4.591,4.591,0,0,1-3.479-1.647,6.514,6.514,0,0,0-4.848-2.184,1.022,1.022,0,1,0,0,2.045Z" transform="translate(0 -268.357)" fill="#d21919"/>
        <path id="Tracciato_73361" data-name="Tracciato 73361" d="M135,398.65a6.522,6.522,0,0,0-4.857,2.187,4.486,4.486,0,0,1-6.945,0,6.484,6.484,0,0,0-9.711,0,4.481,4.481,0,0,1-6.94,0,6.483,6.483,0,0,0-9.71,0,4.477,4.477,0,0,1-6.936,0,6.518,6.518,0,0,0-4.854-2.187,1.022,1.022,0,0,0,0,2.044,4.574,4.574,0,0,1,3.468,1.646,6.48,6.48,0,0,0,9.707,0,4.481,4.481,0,0,1,6.941,0,6.482,6.482,0,0,0,9.709,0,4.482,4.482,0,0,1,6.942,0,6.488,6.488,0,0,0,9.714,0A4.583,4.583,0,0,1,135,400.695a1.022,1.022,0,0,0,0-2.045Z" transform="translate(-0.022 -340.599)" fill="#d21919"/>
        <path id="Tracciato_73362" data-name="Tracciato 73362" d="M135,478.72a6.523,6.523,0,0,0-4.857,2.186,4.486,4.486,0,0,1-6.945,0,6.485,6.485,0,0,0-9.711,0,4.481,4.481,0,0,1-6.94,0,6.483,6.483,0,0,0-9.71,0,4.479,4.479,0,0,1-6.938,0,6.516,6.516,0,0,0-4.853-2.187,1.022,1.022,0,0,0,0,2.044,4.576,4.576,0,0,1,3.468,1.646,6.48,6.48,0,0,0,9.707,0,4.481,4.481,0,0,1,6.941,0,6.483,6.483,0,0,0,9.709,0,4.483,4.483,0,0,1,6.942,0,6.488,6.488,0,0,0,9.714,0A4.581,4.581,0,0,1,135,480.764a1.022,1.022,0,0,0,0-2.044Z" transform="translate(-0.022 -412.843)" fill="#d21919"/>
        <path id="Tracciato_73363" data-name="Tracciato 73363" d="M230.169,56.077h.16a12.94,12.94,0,0,0,9.211-3.809,11.68,11.68,0,0,0,3.688-8.724c-.037-10.374-11.7-21.635-12.194-22.109a1.022,1.022,0,0,0-.706-.283h-.144a1.022,1.022,0,0,0-.706.283c-.5.475-12.157,11.735-12.194,22.109a11.673,11.673,0,0,0,3.676,8.712A12.94,12.94,0,0,0,230.169,56.077Zm.087-32.526c2.417,2.487,10.9,11.8,10.927,20a9.717,9.717,0,0,1-3.077,7.259,11.175,11.175,0,0,1-15.713-.011,9.707,9.707,0,0,1-3.066-7.245c.027-8.191,8.513-17.515,10.929-20Z" transform="translate(-120.257 0)" fill="#d21919"/>
        <path id="Tracciato_73364" data-name="Tracciato 73364" d="M269.379,196a1.009,1.009,0,0,0,.388-.077,1.022,1.022,0,0,0,.557-1.334,6.844,6.844,0,0,1,.989-6.788,1.022,1.022,0,0,0-1.55-1.334,8.9,8.9,0,0,0-1.33,8.9,1.021,1.021,0,0,0,.946.635Z" transform="translate(-165.805 -148.835)" fill="#d21919"/>
      </g>
    </g>
    <g id="Rettangolo_164143" data-name="Rettangolo 164143" transform="translate(132 32)" fill="none" stroke="#d21919" stroke-width="2">
      <rect width="80" height="80" rx="40" stroke="none"/>
      <rect x="1" y="1" width="78" height="78" rx="39" fill="none"/>
    </g>
  </g>
</svg>
