<svg xmlns="http://www.w3.org/2000/svg" width="80" height="80" viewBox="0 0 80 80">
  <g id="Raggruppa_28694" data-name="Raggruppa 28694" transform="translate(-132 -32)">
    <g id="logo" transform="translate(109)">
      <rect id="Rettangolo_145801" data-name="Rettangolo 145801" width="80" height="80" transform="translate(23 32)" fill="none"/>
      <g id="noun-acoustic-2377192" transform="translate(-43.051 35.938)">
        <path id="Tracciato_73452" data-name="Tracciato 73452" d="M106.05,62.062a6.647,6.647,0,0,1-3.906-1.26l-4.011-2.887a4.6,4.6,0,0,0-1.939-.8l-4.876-.795A6.679,6.679,0,0,1,85.8,50.794L85,45.916a4.6,4.6,0,0,0-.8-1.939l-2.887-4.011a6.687,6.687,0,0,1-.662-6.669,1.053,1.053,0,1,1,1.918.871,4.58,4.58,0,0,0,.454,4.567l2.887,4.011a6.716,6.716,0,0,1,1.172,2.831l.795,4.878a4.574,4.574,0,0,0,3.783,3.783l4.876.795a6.722,6.722,0,0,1,2.83,1.172l4.011,2.887a4.578,4.578,0,0,0,5.35,0l4.011-2.887a6.719,6.719,0,0,1,2.831-1.172l.178-.029a1.054,1.054,0,0,1,.339,2.08l-.178.029a4.6,4.6,0,0,0-1.938.8L109.956,60.8a6.648,6.648,0,0,1-3.906,1.26Zm15.057-5.833a1.054,1.054,0,0,1-.26-2.075l.083-.022a1.053,1.053,0,1,1,.559,2.031l-.121.032a1.025,1.025,0,0,1-.261.033Zm3.861-3.44a1.054,1.054,0,0,1-.984-1.43,4.573,4.573,0,0,0,.243-.9l.795-4.878a6.724,6.724,0,0,1,1.172-2.831l2.887-4.011a4.578,4.578,0,0,0,0-5.35l-2.887-4.011a6.721,6.721,0,0,1-1.172-2.83l-.795-4.876a4.574,4.574,0,0,0-3.783-3.783l-4.879-.795a6.723,6.723,0,0,1-2.831-1.172l-4.01-2.888a4.578,4.578,0,0,0-5.35,0l-4.011,2.887a6.717,6.717,0,0,1-2.83,1.172l-4.877.795a4.574,4.574,0,0,0-3.783,3.783L87.4,24.591a1.053,1.053,0,1,1-2.079-.339l.476-2.923a6.679,6.679,0,0,1,5.524-5.523l4.877-.795a4.6,4.6,0,0,0,1.938-.8l4.011-2.887a6.687,6.687,0,0,1,7.811,0l4.011,2.887a4.6,4.6,0,0,0,1.939.8l4.878.795a6.679,6.679,0,0,1,5.524,5.524l.795,4.876a4.6,4.6,0,0,0,.8,1.938l2.887,4.011a6.685,6.685,0,0,1,0,7.811L127.9,43.977a4.6,4.6,0,0,0-.8,1.939l-.795,4.878a6.717,6.717,0,0,1-.356,1.318,1.054,1.054,0,0,1-.984.676ZM84.591,30.454a1.053,1.053,0,0,1-.854-1.669L83.8,28.7a1.053,1.053,0,1,1,1.71,1.231l-.062.085a1.052,1.052,0,0,1-.856.438Z" transform="translate(0 0)" fill="#d21919"/>
        <path id="Tracciato_73453" data-name="Tracciato 73453" d="M160.658,106.2a5.465,5.465,0,0,1-3.211-1.035l-3.164-2.277a3.4,3.4,0,0,0-1.435-.594L149,101.669a5.49,5.49,0,0,1-4.541-4.541l-.627-3.848a3.4,3.4,0,0,0-.594-1.435l-2.277-3.164a5.524,5.524,0,0,1-.351-.555,1.053,1.053,0,0,1,1.844-1.019,3.455,3.455,0,0,0,.217.343l2.277,3.164a5.528,5.528,0,0,1,.964,2.327l.627,3.848a3.387,3.387,0,0,0,2.8,2.8l3.847.627a5.529,5.529,0,0,1,2.327.964l3.164,2.277a3.39,3.39,0,0,0,3.96,0l3.164-2.277a5.528,5.528,0,0,1,2.327-.964l3.848-.627a3.386,3.386,0,0,0,2.8-2.8l.627-3.848a5.527,5.527,0,0,1,.964-2.327,1.053,1.053,0,1,1,1.71,1.231,3.4,3.4,0,0,0-.594,1.435l-.627,3.848a5.49,5.49,0,0,1-4.541,4.541l-3.848.627a3.405,3.405,0,0,0-1.435.594l-3.164,2.277a5.464,5.464,0,0,1-3.211,1.036ZM179.5,83.927a1.051,1.051,0,0,1-.856-.438l-2.277-3.164A5.528,5.528,0,0,1,175.405,78l-.627-3.847a3.385,3.385,0,0,0-2.8-2.8l-3.848-.627a5.527,5.527,0,0,1-2.327-.964l-3.164-2.277a3.39,3.39,0,0,0-3.96,0l-3.164,2.277a5.528,5.528,0,0,1-2.327.964l-3.847.627a3.386,3.386,0,0,0-2.8,2.8L145.913,78c-.021.132-.048.264-.079.395a1.053,1.053,0,0,1-2.049-.49c.019-.081.036-.163.049-.244l.627-3.847A5.491,5.491,0,0,1,149,69.271l3.847-.627a3.4,3.4,0,0,0,1.435-.594l3.164-2.277a5.5,5.5,0,0,1,6.422,0l3.164,2.277a3.4,3.4,0,0,0,1.435.594l3.848.627a5.49,5.49,0,0,1,4.541,4.541l.627,3.847a3.4,3.4,0,0,0,.594,1.435l2.277,3.164a1.054,1.054,0,0,1-.853,1.669Zm-37.538-.206a1.053,1.053,0,0,1-.854-1.669l.062-.085a1.053,1.053,0,1,1,1.71,1.231l-.062.085a1.052,1.052,0,0,1-.856.438Z" transform="translate(-54.608 -49.408)" fill="#d21919"/>
        <path id="Tracciato_73454" data-name="Tracciato 73454" d="M205.249,150.332a1.054,1.054,0,0,1-.116-2.1l.072-.009a1.053,1.053,0,0,1,.3,2.085l-.137.017a1.063,1.063,0,0,1-.119.007Zm-4.595-2.274a1.049,1.049,0,0,1-.609-.195,2.218,2.218,0,0,0-.92-.377l-2.817-.459a4.3,4.3,0,0,1-3.559-3.559l-.459-2.818a2.213,2.213,0,0,0-.386-.932l-1.668-2.317a4.307,4.307,0,0,1,0-5.032,1.053,1.053,0,0,1,1.71,1.231,2.2,2.2,0,0,0,0,2.571l1.668,2.317a4.33,4.33,0,0,1,.755,1.824l.459,2.818a2.2,2.2,0,0,0,1.818,1.818l2.817.459a4.329,4.329,0,0,1,1.8.739,1.053,1.053,0,0,1-.611,1.913Zm9.2-.387a1.054,1.054,0,0,1-.375-2.038,4.306,4.306,0,0,1,.839-.225l2.818-.459a2.2,2.2,0,0,0,1.818-1.818l.459-2.818a4.323,4.323,0,0,1,.755-1.824l1.668-2.317a2.2,2.2,0,0,0,0-2.571l-1.668-2.317a4.333,4.333,0,0,1-.755-1.824l-.459-2.817a2.2,2.2,0,0,0-1.818-1.818l-2.818-.459a4.332,4.332,0,0,1-1.824-.755l-2.317-1.668a2.2,2.2,0,0,0-2.571,0l-2.317,1.668a4.332,4.332,0,0,1-1.824.755l-2.817.459a2.2,2.2,0,0,0-1.818,1.818,1.053,1.053,0,1,1-2.079-.339,4.3,4.3,0,0,1,3.558-3.558l2.817-.459a2.213,2.213,0,0,0,.932-.386l2.317-1.668a4.307,4.307,0,0,1,5.032,0l2.317,1.667a2.213,2.213,0,0,0,.932.386l2.818.459a4.3,4.3,0,0,1,3.559,3.558l.459,2.817a2.213,2.213,0,0,0,.386.932l1.668,2.317a4.306,4.306,0,0,1,0,5.032l-1.668,2.317a2.208,2.208,0,0,0-.386.932l-.459,2.818a4.3,4.3,0,0,1-3.559,3.559l-2.818.459a2.212,2.212,0,0,0-.428.115,1.019,1.019,0,0,1-.374.07Z" transform="translate(-98.84 -98.824)" fill="#d21919"/>
        <path id="Tracciato_73455" data-name="Tracciato 73455" d="M289.4,212.679h-4.214a1.053,1.053,0,0,1-.638-.216l-6.321-4.816a1.054,1.054,0,0,1-.415-.838v-4.063a1.053,1.053,0,0,1,.415-.838l6.321-4.816a1.053,1.053,0,0,1,.638-.216H289.4a1.054,1.054,0,0,1,1.053,1.053v13.695a1.054,1.054,0,0,1-1.053,1.054Zm-3.858-2.107h2.8V198.984h-2.8l-5.623,4.284v3.02Z" transform="translate(-178.71 -168.821)" fill="#d21919"/>
        <path id="Tracciato_73456" data-name="Tracciato 73456" d="M249.214,248h-3.16A1.054,1.054,0,0,1,245,246.947v-5.267a1.054,1.054,0,0,1,1.053-1.053h3.16a1.054,1.054,0,0,1,1.053,1.053v5.267A1.054,1.054,0,0,1,249.214,248Zm-2.107-2.107h1.053v-3.16h-1.053Z" transform="translate(-149.062 -208.357)" fill="#d21919"/>
        <path id="Tracciato_73457" data-name="Tracciato 73457" d="M344.5,262.1a1.054,1.054,0,0,1-1.053-1.053v-8.428a1.053,1.053,0,1,1,2.107,0v8.428A1.054,1.054,0,0,1,344.5,262.1Z" transform="translate(-238.022 -218.241)" fill="#d21919"/>
        <path id="Tracciato_73458" data-name="Tracciato 73458" d="M421.056,231.8a1.054,1.054,0,1,1,.745-.309A1.064,1.064,0,0,1,421.056,231.8Z" transform="translate(-307.209 -198.479)" fill="#d21919"/>
        <path id="Tracciato_73459" data-name="Tracciato 73459" d="M421.056,264.612a1.054,1.054,0,1,1,.745-.309A1.063,1.063,0,0,1,421.056,264.612Z" transform="translate(-307.209 -228.129)" fill="#d21919"/>
        <path id="Tracciato_73460" data-name="Tracciato 73460" d="M421.056,297.422a1.054,1.054,0,1,1,.745-.309A1.063,1.063,0,0,1,421.056,297.422Z" transform="translate(-307.209 -257.778)" fill="#d21919"/>
      </g>
    </g>
    <g id="Rettangolo_164143" data-name="Rettangolo 164143" transform="translate(132 32)" fill="none" stroke="#d21919" stroke-width="2">
      <rect width="80" height="80" rx="40" stroke="none"/>
      <rect x="1" y="1" width="78" height="78" rx="39" fill="none"/>
    </g>
  </g>
</svg>
