<svg xmlns="http://www.w3.org/2000/svg" xmlns:xlink="http://www.w3.org/1999/xlink" width="80" height="80" viewBox="0 0 80 80">
  <defs>
    <clipPath id="clip-path">
      <rect id="Rettangolo_164160" data-name="Rettangolo 164160" width="40.905" height="36.978" fill="none" stroke="#1976d2" stroke-width="1"/>
    </clipPath>
  </defs>
  <g id="Raggruppa_28679" data-name="Raggruppa 28679" transform="translate(-132 -32)">
    <g id="logo" transform="translate(109)">
      <rect id="Rettangolo_145801" data-name="Rettangolo 145801" width="80" height="80" transform="translate(23 32)" fill="none"/>
      <g id="Raggruppa_28718" data-name="Raggruppa 28718">
        <g id="Raggruppa_28695" data-name="Raggruppa 28695" transform="translate(40.565 61.511)">
          <g id="Raggruppa_28694" data-name="Raggruppa 28694" clip-path="url(#clip-path)">
            <path id="Tracciato_74284" data-name="Tracciato 74284" d="M21,12.677v-1.3A10.38,10.38,0,0,1,31.38,1,9.119,9.119,0,0,1,40.5,10.238a8.949,8.949,0,0,1-1.176,4.115l-1.567,2.866A37.707,37.707,0,0,0,33.6,29.388l-.21,1.32A6.228,6.228,0,0,1,21,29.743v-1.5" transform="translate(-0.565 -0.027)" fill="none" stroke="#1976d2" stroke-linejoin="round" stroke-width="2"/>
            <path id="Tracciato_74285" data-name="Tracciato 74285" d="M36.677,11.839A5.839,5.839,0,0,0,30.659,6,6,6,0,0,0,25,12.084v.689a4.267,4.267,0,0,0,2.086,3.564,3.893,3.893,0,0,1-.07,6.616" transform="translate(-0.672 -0.161)" fill="none" stroke="#1976d2" stroke-width="2"/>
            <path id="Tracciato_74286" data-name="Tracciato 74286" d="M26.878,7.64a4.866,4.866,0,0,0,6.572,4.29" transform="translate(-0.723 -0.205)" fill="none" stroke="#1976d2" stroke-linejoin="round" stroke-width="2"/>
            <path id="Tracciato_74287" data-name="Tracciato 74287" d="M24.355,19.7a1.946,1.946,0,0,0-1.946,1.946v.973a1.946,1.946,0,0,1-3.892,0V15.812a1.946,1.946,0,1,0-3.892,0v14.6a1.946,1.946,0,1,1-3.892,0V10.946a1.946,1.946,0,1,0-3.892,0V22.623a1.946,1.946,0,1,1-3.892,0V20.677A1.946,1.946,0,0,0,1,18.731" transform="translate(-0.027 -0.242)" fill="none" stroke="#1976d2" stroke-linecap="round" stroke-linejoin="round" stroke-width="2"/>
          </g>
        </g>
        <g id="Raggruppa_28717" data-name="Raggruppa 28717" transform="translate(-1 0.25)">
          <path id="Tracciato_74393" data-name="Tracciato 74393" d="M8.1,4.621V2.95L15.04,5.474,6.936.853V2.524L0,0Z" transform="translate(76.997 60) rotate(-90)" fill="#1976d2" stroke="#1976d2" stroke-width="0.6"/>
          <path id="Tracciato_74394" data-name="Tracciato 74394" d="M5.508,2.463,6.69,3.645,0,6.764,9,4.3,7.816,3.119,14.506,0Z" transform="translate(58.5 60) rotate(-90)" fill="#1976d2" stroke="#1976d2" stroke-width="0.6"/>
          <path id="Tracciato_74395" data-name="Tracciato 74395" d="M6.8,0l.584,1.566L0,1.626l9.208,1.5L8.624,1.555,16,1.5Z" transform="translate(69.339 58.026) rotate(-90)" fill="#1976d2" stroke="#1976d2" stroke-width="0.6"/>
        </g>
      </g>
    </g>
    <g id="Rettangolo_164143" data-name="Rettangolo 164143" transform="translate(132 32)" fill="none" stroke="#1976d2" stroke-width="2">
      <rect width="80" height="80" rx="40" stroke="none"/>
      <rect x="1" y="1" width="78" height="78" rx="39" fill="none"/>
    </g>
  </g>
</svg>
