<svg xmlns="http://www.w3.org/2000/svg" width="80" height="80" viewBox="0 0 80 80">
  <g id="Raggruppa_28673" data-name="Raggruppa 28673" transform="translate(-132 -32)">
    <g id="logo" transform="translate(109)">
      <rect id="Rettangolo_145801" data-name="Rettangolo 145801" width="80" height="80" transform="translate(23 32)" fill="none"/>
      <g id="noun-air-1718536" transform="translate(-37.918 -20.338)">
        <path id="Tracciato_73365" data-name="Tracciato 73365" d="M75.8,166.953H113.48c.064,0,.121.013.2.013.113,0,.243,0,.412-.011a4.664,4.664,0,0,0,4.931-4.923,4.934,4.934,0,0,0-9.613-1.552.883.883,0,0,0,1.676.555,3.168,3.168,0,0,1,6.173,1,2.909,2.909,0,0,1-3.167,3.164l-.249.007a1.2,1.2,0,0,1-.236,0c-.022,0-.042.007-.064,0a.651.651,0,0,0-.064-.013H75.8a.878.878,0,1,0,0,1.757Z" transform="translate(0 -75.867)" fill="#1976d2"/>
        <path id="Tracciato_73366" data-name="Tracciato 73366" d="M114.163,382.245a4.734,4.734,0,0,0-.635.007c-.016,0-.029-.009-.044-.009H75.806a.881.881,0,1,0,0,1.761h37.677c.024,0,.046-.013.071-.015s.04.007.062,0a2.039,2.039,0,0,1,.415.007c2.146.158,3.231,1.224,3.231,3.166a3.169,3.169,0,0,1-6.173,1,.883.883,0,0,0-1.676.555,4.934,4.934,0,0,0,9.613-1.552c.005-2.9-1.77-4.7-4.862-4.923Z" transform="translate(-0.006 -279.752)" fill="#1976d2"/>
        <path id="Tracciato_73367" data-name="Tracciato 73367" d="M121.992,237.65a4.93,4.93,0,0,0-4.682,3.368.883.883,0,0,0,1.676.557,3.168,3.168,0,0,1,6.173,1,3.285,3.285,0,0,1-.843,2.362,3.623,3.623,0,0,1-2.316.8l-.271.009a1.326,1.326,0,0,1-.229,0,.489.489,0,0,0-.057,0H75.806a.881.881,0,1,0,0,1.761H121.8a.3.3,0,0,0,.048-.011c.048,0,.082,0,.139,0a5.252,5.252,0,0,0,3.573-1.314,5.073,5.073,0,0,0-3.568-8.533Z" transform="translate(-0.006 -148.808)" fill="#1976d2"/>
        <path id="Tracciato_73368" data-name="Tracciato 73368" d="M75.8,83.2H104.57a.761.761,0,0,0,.141-.029,4.818,4.818,0,0,0,3.385-1.257,5.028,5.028,0,1,0-8.31-5.2.881.881,0,0,0,1.672.555,3.17,3.17,0,0,1,6.175,1,3.285,3.285,0,0,1-.781,2.4,3.226,3.226,0,0,1-2.351.76h-.029a.579.579,0,0,0-.086.013H75.8a.88.88,0,1,0,0,1.759Z" fill="#1976d2"/>
      </g>
    </g>
    <g id="Rettangolo_164143" data-name="Rettangolo 164143" transform="translate(132 32)" fill="none" stroke="#1976d2" stroke-width="2">
      <rect width="80" height="80" rx="40" stroke="none"/>
      <rect x="1" y="1" width="78" height="78" rx="39" fill="none"/>
    </g>
  </g>
</svg>
