<svg xmlns="http://www.w3.org/2000/svg" viewBox="0 0 1004.34 1284.53"><defs><style>.cls-1{fill:#fff;stroke:#fff;stroke-miterlimit:10;stroke-width:5.67px;}</style></defs><g id="Livello_2" data-name="Livello 2"><g id="VECTOR_ILLUSTRATION_-_copie" data-name="VECTOR ILLUSTRATION - copie"><path class="cls-1" d="M152.12,787.75C89.61,705.19,56.57,606.67,56.57,502.83a470.1,470.1,0,0,1,132.4-328l17.38,16.76A446.12,446.12,0,0,0,80.72,502.83c0,98.53,31.35,192,90.65,270.34Z"/><path class="cls-1" d="M868,832l-17.32-16.83A445.93,445.93,0,0,0,977.35,502.83c0-247.2-201.11-448.31-448.31-448.31a452.66,452.66,0,0,0-71.92,5.74l-3.85-23.85a477.61,477.61,0,0,1,75.77-6c260.52,0,472.46,211.94,472.46,472.46A469.93,469.93,0,0,1,868,832Z"/><polygon class="cls-1" points="598.74 795.4 598.74 702.12 470.62 645.52 423.6 571.77 439.26 479.55 613.31 479.55 655.74 447 647.51 424.46 545.51 402.58 424.4 459.65 436.44 363 422.01 271.68 519.62 277.44 569.27 293.86 569.27 255.36 641.18 168.66 741.81 194.35 774.66 131.74 796.04 142.96 754.33 222.48 650.01 195.84 593.42 264.07 593.42 327.28 515.04 301.37 450.55 297.56 460.83 362.6 453.79 419.1 542.59 377.26 665.62 403.64 684.51 455.37 621.5 503.7 459.66 503.7 448.97 566.63 487.06 626.38 622.89 686.39 622.89 765.49 699.27 749.04 754.22 641.81 707.03 526.11 779.89 438.89 924.22 444.54 974.25 411.79 987.48 432 930.99 468.97 790.81 463.48 734.88 530.44 780.77 642.96 715.54 770.24 598.74 795.4"/><path class="cls-1" d="M59.92,564.85l-5.2-9.92C53.72,553,30.08,507.56,15,442-5.23,354.68-.13,273.46,29.69,207.13c43.74-97.3,139-164.71,283.12-200.38l13.1-3.24,1.78,13.38c12.3,92.87,6.52,179.22-17.2,256.64a479,479,0,0,1-90.81,168C149.46,525.48,73.41,559,70.21,560.4ZM305.41,33.6C176.32,68.1,91,129.73,51.78,216.9-5.8,344.81,52.74,492.67,71,533.07c22.78-12,79.07-45.71,130.84-108a455.2,455.2,0,0,0,85.74-159.39C309,195.59,315,117.56,305.41,33.6Z"/><path class="cls-1" d="M504,1014.59A109.17,109.17,0,1,1,613.16,905.42,109.29,109.29,0,0,1,504,1014.59Zm0-194.19a85,85,0,1,0,85,85A85.12,85.12,0,0,0,504,820.4Z"/><path class="cls-1" d="M409.83,1281.69H385.68v-143a34.06,34.06,0,0,0-9.26-23.39L185.5,911.84a51.21,51.21,0,0,1,74.68-70.1l184.91,197-17.61,16.53-184.91-197a27.06,27.06,0,0,0-39.46,37L394,1098.71a58.15,58.15,0,0,1,15.8,39.93Z"/><path class="cls-1" d="M616.74,1281.69H592.59v-143a58.15,58.15,0,0,1,15.8-39.93l190.93-203.4a27.06,27.06,0,0,0-39.47-37l-184.9,197-17.62-16.53,184.91-197a51.22,51.22,0,0,1,74.69,70.1L626,1115.25a34.06,34.06,0,0,0-9.26,23.39Z"/><path class="cls-1" d="M500.91,809.15c7.09,1.77,62.93,15.07,62.93,15.07s37.23,59.38,37.23,64.7-11.53,66.47-11.53,66.47l-49.63,42.54-68.24.89L425.58,966l-19.5-68.25s22.16-56.72,24.82-56.72S500.91,809.15,500.91,809.15Z"/><path class="cls-1" d="M796.05,123.16l-44.31,77.11-101-18.62s-68.25,70-69.13,73.57-6.21,54.06-6.21,54.06l-92.17-25.7s-45.2-2.66-43.43,1.77,8.86,60.27,8.86,62.93,1.78,37.22,0,49.63S430,441.34,434.44,440.45s49.63-23,53.18-23.93,61.15-29.25,61.15-29.25l65.59,15.07,43.43,14.18,5.32,26.59-28.36,36.34L605.5,493.63s-66.47-5.32-69.13-3.55-80.66,8-80.66,8L438.87,553l24.82,70,30.13,16L605.5,696.59l4.43,84.2,94.83-21.27,62-114.33L718.06,538.83,789,452l141.81,4.44,56.72-32.8-31-87.74L913,247.24l-58.49-78.88Z"/></g></g></svg>