<svg xmlns="http://www.w3.org/2000/svg" width="80" height="80" viewBox="0 0 80 80">
  <g id="Raggruppa_28674" data-name="Raggruppa 28674" transform="translate(-132 -32)">
    <g id="logo" transform="translate(109)">
      <rect id="Rettangolo_145801" data-name="Rettangolo 145801" width="80" height="80" transform="translate(23 32)" fill="none"/>
      <g id="noun-coral-reef-1458397" transform="translate(-34.468 30.5)">
        <path id="Tracciato_73371" data-name="Tracciato 73371" d="M116.443,363.626a.8.8,0,0,0,.793-.8,2.823,2.823,0,0,0-.6-1.534.988.988,0,0,1-.163-1.3,2.766,2.766,0,0,0,.189-1.615h0a2.805,2.805,0,0,0-.974-1.319,2.215,2.215,0,0,1-.477-.506,2.167,2.167,0,0,1-.02-.71,2.812,2.812,0,0,0-.236-1.614,2.782,2.782,0,0,0-1.276-1.016,2.2,2.2,0,0,1-.594-.366,2.25,2.25,0,0,1-.2-.677,2.8,2.8,0,0,0-.642-1.5,2.767,2.767,0,0,0-1.488-.648,2.176,2.176,0,0,1-.671-.2,2.222,2.222,0,0,1-.363-.6,2.79,2.79,0,0,0-1.008-1.286,2.731,2.731,0,0,0-1.6-.237,2.1,2.1,0,0,1-.705-.021,2.186,2.186,0,0,1-.5-.48,2.784,2.784,0,0,0-1.308-.982,2.677,2.677,0,0,0-1.6.19,2.289,2.289,0,0,1-.691.166,2.168,2.168,0,0,1-.6-.33,2.205,2.205,0,0,0-3.041,0,2.154,2.154,0,0,1-.6.33,1.911,1.911,0,0,1-.69-.166,2.708,2.708,0,0,0-1.6-.19,2.787,2.787,0,0,0-1.308.982,2.211,2.211,0,0,1-.5.481,2.114,2.114,0,0,1-.7.02,2.753,2.753,0,0,0-1.6.238,2.8,2.8,0,0,0-1.008,1.286,2.227,2.227,0,0,1-.363.6,2.2,2.2,0,0,1-.671.2,2.753,2.753,0,0,0-1.489.648,2.814,2.814,0,0,0-.642,1.5,2.222,2.222,0,0,1-.2.677,2.2,2.2,0,0,1-.594.366,2.774,2.774,0,0,0-1.276,1.016,2.8,2.8,0,0,0-.236,1.614.988.988,0,0,1-.5,1.216,2.8,2.8,0,0,0-.974,1.319,2.757,2.757,0,0,0,.189,1.616,2.23,2.23,0,0,1,.164.7,2.2,2.2,0,0,1-.328.607,2.831,2.831,0,0,0-.6,1.533.8.8,0,0,0,.793.8Zm-30.818-2.734a3.152,3.152,0,0,0-.234-1.415,2.066,2.066,0,0,1-.159-.691,2,2,0,0,1,.49-.532,3.1,3.1,0,0,0,.893-1.092,3.144,3.144,0,0,0,.139-1.423,2.067,2.067,0,0,1,.024-.714,1.965,1.965,0,0,1,.608-.383,3.063,3.063,0,0,0,1.148-.825,3.125,3.125,0,0,0,.5-1.334.763.763,0,0,1,.89-.9,3.054,3.054,0,0,0,1.323-.5,3.09,3.09,0,0,0,.818-1.158,2.022,2.022,0,0,1,.38-.612,2.039,2.039,0,0,1,.708-.026,2.412,2.412,0,0,0,2.494-1.04c.17-.194.4-.46.527-.494a1.913,1.913,0,0,1,.686.161,2.4,2.4,0,0,0,2.676-.347,1.957,1.957,0,0,1,.646-.342,1.953,1.953,0,0,1,.644.341,3.043,3.043,0,0,0,1.274.583,3.1,3.1,0,0,0,1.4-.236,2.177,2.177,0,0,1,.685-.161,1.993,1.993,0,0,1,.528.494,2.413,2.413,0,0,0,2.494,1.04,1.96,1.96,0,0,1,.708.025,1.986,1.986,0,0,1,.38.613,2.422,2.422,0,0,0,2.141,1.659,1.945,1.945,0,0,1,.681.21,2.027,2.027,0,0,1,.209.687,3.113,3.113,0,0,0,.5,1.334,3.065,3.065,0,0,0,1.148.825,2,2,0,0,1,.607.383,2.049,2.049,0,0,1,.026.714,3.144,3.144,0,0,0,.138,1.421,3.085,3.085,0,0,0,.893,1.094,2,2,0,0,1,.49.531,2.073,2.073,0,0,1-.16.69,3.142,3.142,0,0,0-.234,1.415,2.751,2.751,0,0,0,.48,1.134H85.144a2.755,2.755,0,0,0,.48-1.134Z" transform="translate(-9.653 -298.126)" fill="#1976d2"/>
        <path id="Tracciato_73372" data-name="Tracciato 73372" d="M140,481.25h1.587v1.6H140Z" transform="translate(-61.375 -421.35)" fill="#1976d2"/>
        <path id="Tracciato_73373" data-name="Tracciato 73373" d="M183.75,437.5h1.587v1.6H183.75Z" transform="translate(-101.158 -381.6)" fill="#1976d2"/>
        <path id="Tracciato_73374" data-name="Tracciato 73374" d="M218.75,490h1.587v1.6H218.75Z" transform="translate(-132.984 -429.3)" fill="#1976d2"/>
        <path id="Tracciato_73375" data-name="Tracciato 73375" d="M227.5,402.5h1.587v1.6H227.5Z" transform="translate(-140.941 -349.8)" fill="#1976d2"/>
        <path id="Tracciato_73376" data-name="Tracciato 73376" d="M280,446.25h1.587v1.6H280Z" transform="translate(-188.681 -389.55)" fill="#1976d2"/>
        <path id="Tracciato_73377" data-name="Tracciato 73377" d="M297.5,393.75h1.587v1.6H297.5Z" transform="translate(-204.594 -341.85)" fill="#1976d2"/>
        <path id="Tracciato_73378" data-name="Tracciato 73378" d="M332.5,490h1.587v1.6H332.5Z" transform="translate(-236.421 -429.3)" fill="#1976d2"/>
        <path id="Tracciato_73379" data-name="Tracciato 73379" d="M367.5,455h1.587v1.6H367.5Z" transform="translate(-268.247 -397.5)" fill="#1976d2"/>
        <path id="Tracciato_73380" data-name="Tracciato 73380" d="M411.25,280v4a.8.8,0,0,0,.232.566l6.115,6.165V304h1.587v-7.264a5.589,5.589,0,0,0,4.76-5.536v-2.481a4,4,0,0,0,3.173-3.919V280h-1.587v4.8a2.4,2.4,0,0,1-1.587,2.253V283.2h-1.587v8a4,4,0,0,1-3.173,3.919V290.4a.8.8,0,0,0-.232-.566l-3.406-3.434,2.612-2.634a.8.8,0,0,0,.233-.566V280H416.8v2.869l-2.38,2.4-1.587-1.6V280Z" transform="translate(-308.03 -238.5)" fill="#1976d2"/>
        <path id="Tracciato_73381" data-name="Tracciato 73381" d="M547.26,375.17l-1.354,1.366a.8.8,0,0,0-.232.565v3.053a2.4,2.4,0,0,1-1.587-2.253v-3.2H542.5v3.2a4,4,0,0,0,3.174,3.919V383.5h1.587v-6.069l1.354-1.366a.8.8,0,0,0,.232-.565v-8H547.26Z" transform="translate(-427.379 -318.001)" fill="#1976d2"/>
        <path id="Tracciato_73382" data-name="Tracciato 73382" d="M100.426,24.7a.216.216,0,0,1-.089-.15l-.758-5.479a1.8,1.8,0,0,0-3.575,0l-.758,5.479a.221.221,0,0,1-.089.15.212.212,0,0,1-.164.039L89.6,23.773A1.77,1.77,0,0,0,87.57,25a1.793,1.793,0,0,0,.926,2.2l4.922,2.422a.216.216,0,0,1,.113.13.225.225,0,0,1-.015.174l-2.574,4.883a1.8,1.8,0,0,0,.535,2.332,1.758,1.758,0,0,0,2.359-.212l3.8-3.981a.189.189,0,0,1,.314,0l3.8,3.983a1.78,1.78,0,0,0,1.292.57,1.835,1.835,0,0,0,1.6-2.69l-2.573-4.882a.229.229,0,0,1-.016-.175.219.219,0,0,1,.113-.13l4.922-2.421a1.792,1.792,0,0,0,.926-2.2,1.771,1.771,0,0,0-2.032-1.23l-5.392.964a.207.207,0,0,1-.164-.039Zm5.833.65a.194.194,0,0,1,.245.15.2.2,0,0,1-.113.269l-4.922,2.421a1.8,1.8,0,0,0-.925,1.074,1.825,1.825,0,0,0,.122,1.421l2.574,4.883a.2.2,0,0,1-.065.285.19.19,0,0,1-.283-.026l-3.8-3.983a1.795,1.795,0,0,0-2.6,0l-3.8,3.983a.191.191,0,0,1-.283.026.2.2,0,0,1-.065-.285l2.575-4.883a1.823,1.823,0,0,0,.121-1.42,1.8,1.8,0,0,0-.925-1.073l-4.922-2.423a.222.222,0,0,1,.132-.419l5.39.964a1.761,1.761,0,0,0,1.375-.319,1.81,1.81,0,0,0,.727-1.222l.758-5.479a.218.218,0,0,1,.432,0l.758,5.477a1.81,1.81,0,0,0,.727,1.223,1.764,1.764,0,0,0,1.374.319Z" transform="translate(-13.613 0)" fill="#1976d2"/>
        <path id="Tracciato_73383" data-name="Tracciato 73383" d="M376.25,157.5h1.587v1.6H376.25Z" transform="translate(-276.204 -127.2)" fill="#1976d2"/>
        <path id="Tracciato_73384" data-name="Tracciato 73384" d="M346.282,84.375l-.97,2.283-.97-2.283a3.962,3.962,0,0,0-2.711-2.3l1.074-2.165a.8.8,0,0,0-.035-.779.79.79,0,0,0-.674-.379h-9.52a.793.793,0,0,0-.71.442L330.4,81.95h-.842a3.97,3.97,0,0,0-3.444,2.016l-2.26,3.987a.8.8,0,0,0,0,.794l2.26,3.987a3.97,3.97,0,0,0,3.444,2.016H340.7a3.961,3.961,0,0,0,3.646-2.425l.97-2.283.97,2.283a3.96,3.96,0,0,0,3.646,2.425v-1.6A2.379,2.379,0,0,1,347.74,91.7l-1.422-3.346L347.74,85a2.379,2.379,0,0,1,2.188-1.454v-1.6a3.961,3.961,0,0,0-3.646,2.425ZM332.964,80.35h7.746l-.793,1.6h-7.746Zm-5.475,11.59-2.036-3.59,2.035-3.59a2.383,2.383,0,0,1,2.067-1.21h2.125v9.6h-2.125A2.382,2.382,0,0,1,327.489,91.94Zm15.394-.245A2.379,2.379,0,0,1,340.7,93.15h-7.428v-5.6h4.76v-1.6h-4.76v-2.4H340.7A2.379,2.379,0,0,1,342.883,85L344.3,88.35Z" transform="translate(-228.46 -55.65)" fill="#1976d2"/>
        <path id="Tracciato_73385" data-name="Tracciato 73385" d="M288.75,148.75h1.587v1.6H288.75Z" transform="translate(-196.637 -119.25)" fill="#1976d2"/>
        <path id="Tracciato_73386" data-name="Tracciato 73386" d="M323.75,87.5h1.587v1.6H323.75Z" transform="translate(-228.464 -63.6)" fill="#1976d2"/>
        <path id="Tracciato_73387" data-name="Tracciato 73387" d="M280,17.5h1.587v1.6H280Z" transform="translate(-188.681)" fill="#1976d2"/>
        <path id="Tracciato_73388" data-name="Tracciato 73388" d="M101.781,280h-1.587a2.38,2.38,0,1,1-4.76,0H93.847a2.38,2.38,0,1,1-4.76,0H87.5a3.988,3.988,0,0,0,3.967,4,3.942,3.942,0,0,0,3.173-1.625,3.912,3.912,0,0,0,6.347,0,3.912,3.912,0,0,0,6.347,0A3.942,3.942,0,0,0,110.508,284a3.988,3.988,0,0,0,3.967-4h-1.587a2.38,2.38,0,1,1-4.76,0h-1.587a2.38,2.38,0,1,1-4.76,0Z" transform="translate(-13.635 -238.5)" fill="#1976d2"/>
        <path id="Tracciato_73389" data-name="Tracciato 73389" d="M338.008,19.9a2.393,2.393,0,0,1-2.38-2.4h-1.587a2.38,2.38,0,1,1-4.76,0h-1.587a2.38,2.38,0,1,1-4.76,0h-1.587a2.38,2.38,0,1,1-4.76,0H315a3.988,3.988,0,0,0,3.967,4,3.942,3.942,0,0,0,3.173-1.625,3.912,3.912,0,0,0,6.347,0,3.912,3.912,0,0,0,6.347,0,3.942,3.942,0,0,0,3.173,1.625,3.988,3.988,0,0,0,3.967-4h-1.587A2.393,2.393,0,0,1,338.008,19.9Z" transform="translate(-220.507)" fill="#1976d2"/>
        <path id="Tracciato_73390" data-name="Tracciato 73390" d="M498.75,157.5h1.587v1.6H498.75Z" transform="translate(-387.596 -127.2)" fill="#1976d2"/>
      </g>
    </g>
    <g id="Rettangolo_164143" data-name="Rettangolo 164143" transform="translate(132 32)" fill="none" stroke="#1976d2" stroke-width="2">
      <rect width="80" height="80" rx="40" stroke="none"/>
      <rect x="1" y="1" width="78" height="78" rx="39" fill="none"/>
    </g>
  </g>
</svg>
