<svg xmlns="http://www.w3.org/2000/svg" xmlns:xlink="http://www.w3.org/1999/xlink" width="80" height="80" viewBox="0 0 80 80">
  <defs>
    <clipPath id="clip-path">
      <rect id="Rettangolo_164175" data-name="Rettangolo 164175" width="55.647" height="42.705" fill="#1976d2" stroke="#1976d2" stroke-width="0.3"/>
    </clipPath>
  </defs>
  <g id="Raggruppa_28674" data-name="Raggruppa 28674" transform="translate(-132 -32)">
    <g id="logo" transform="translate(109)">
      <rect id="Rettangolo_145801" data-name="Rettangolo 145801" width="80" height="80" transform="translate(23 32)" fill="none"/>
      <g id="Raggruppa_28714" data-name="Raggruppa 28714" transform="translate(35.177 49.436)">
        <g id="Raggruppa_28713" data-name="Raggruppa 28713" clip-path="url(#clip-path)">
          <path id="Tracciato_74357" data-name="Tracciato 74357" d="M382.987,347.617a.453.453,0,0,1-.451-.416,6.693,6.693,0,0,1,.427-2.444,4.716,4.716,0,0,0,.335-2.357.453.453,0,0,1,.879-.219,5.408,5.408,0,0,1-.347,2.84,5.959,5.959,0,0,0-.391,2.106.453.453,0,0,1-.414.488l-.038,0" transform="translate(-347.884 -310.882)" fill="#1976d2" stroke="#1976d2" stroke-width="0.3"/>
          <path id="Tracciato_74358" data-name="Tracciato 74358" d="M376.053,340.6a1.751,1.751,0,0,1-.878-.22.453.453,0,0,1,.443-.79,1.808,1.808,0,0,0,1.3-.052l.046-.012c-.008-.041-.016-.084-.023-.129a13.665,13.665,0,0,1,.685-5.736c.518-1.812,1.228-4.292,2.626-5.867a.453.453,0,1,1,.677.6c-1.261,1.42-1.938,3.787-2.432,5.514a12.7,12.7,0,0,0-.66,5.353c.008.051.02.105.032.163a2.21,2.21,0,0,1,.063.428.453.453,0,0,1-.36.457c-.139.029-.279.065-.427.1a4.41,4.41,0,0,1-1.093.185" transform="translate(-340.99 -297.975)" fill="#1976d2" stroke="#1976d2" stroke-width="0.3"/>
          <path id="Tracciato_74359" data-name="Tracciato 74359" d="M375.547,242.015a.453.453,0,0,1-.388-.219c-.134-.222-.254-.449-.37-.669a6.184,6.184,0,0,0-.762-1.209c-.178-.2-.372-.393-.576-.591-.221-.215-.449-.436-.66-.685-.987-1.158-2.041-2.821-1.462-4.168a.453.453,0,1,1,.832.358c-.3.707.177,1.882,1.32,3.223.184.216.387.413.6.622s.425.413.628.646a6.972,6.972,0,0,1,.879,1.38c.115.218.224.424.345.624a.453.453,0,0,1-.387.687" transform="translate(-337.551 -212.992)" fill="#1976d2" stroke="#1976d2" stroke-width="0.3"/>
          <path id="Tracciato_74360" data-name="Tracciato 74360" d="M161.8,199.117a.451.451,0,0,1-.325-.138,1.816,1.816,0,0,1-.314-.435c-.659-1.286-.163-2.372.316-3.422l.053-.117a.453.453,0,0,1,.834.352,2.567,2.567,0,0,0,.831,2.035,1.835,1.835,0,0,0,1.933.1.453.453,0,1,1,.368.827,2.686,2.686,0,0,1-2.86-.218,3.406,3.406,0,0,1-.86-1.158,1.857,1.857,0,0,0,.19,1.184.908.908,0,0,0,.158.218.453.453,0,0,1-.325.768" transform="translate(-146.28 -177.105)" fill="#1976d2" stroke="#1976d2" stroke-width="0.3"/>
          <path id="Tracciato_74361" data-name="Tracciato 74361" d="M189.337,233.173a.453.453,0,0,1-.221-.849.823.823,0,0,0,.3-.28.453.453,0,0,1,.764.487,1.722,1.722,0,0,1-.622.585.451.451,0,0,1-.22.057" transform="translate(-171.779 -210.841)" fill="#1976d2" stroke="#1976d2" stroke-width="0.3"/>
          <path id="Tracciato_74362" data-name="Tracciato 74362" d="M400.229,11.671a.453.453,0,0,1-.452-.441c-.031-1.231,1.085-1.74,1.753-2.045a10.6,10.6,0,0,0,1.954-1.133,4.994,4.994,0,0,0,1.764-1.8,7.793,7.793,0,0,0,.595-2.345q.023-.153.045-.3a4.693,4.693,0,0,0-.6-2.95A.453.453,0,1,1,406.1.257a5.549,5.549,0,0,1,.682,3.479q-.023.149-.045.3a8.47,8.47,0,0,1-.681,2.618,5.86,5.86,0,0,1-2.042,2.131,11.45,11.45,0,0,1-2.11,1.224c-.822.375-1.237.663-1.223,1.2a.453.453,0,0,1-.441.464h-.012" transform="translate(-363.573 0)" fill="#1976d2" stroke="#1976d2" stroke-width="0.3"/>
          <path id="Tracciato_74363" data-name="Tracciato 74363" d="M410.986,24.426a.453.453,0,0,1-.293-.8,2.263,2.263,0,0,0,.8-2.259l-.007-.163a9.027,9.027,0,0,0-.38-2.648,6.088,6.088,0,0,0-.983-1.6l-.2-.262a.453.453,0,0,1,.724-.544l.195.256a6.879,6.879,0,0,1,1.115,1.844,9.708,9.708,0,0,1,.433,2.915l.007.162a3.13,3.13,0,0,1-1.124,2.992.451.451,0,0,1-.292.107" transform="translate(-372.724 -14.522)" fill="#1976d2" stroke="#1976d2" stroke-width="0.3"/>
          <path id="Tracciato_74364" data-name="Tracciato 74364" d="M446.676,19.452a.453.453,0,0,1-.38-.7c.709-1.1-.281-3.383-1.257-4.086a.453.453,0,0,1,.529-.735c1.294.933,2.5,3.742,1.489,5.312a.452.452,0,0,1-.381.207" transform="translate(-404.566 -12.593)" fill="#1976d2" stroke="#1976d2" stroke-width="0.3"/>
          <path id="Tracciato_74365" data-name="Tracciato 74365" d="M387.532,61.355A2.922,2.922,0,0,1,385.069,60a.453.453,0,1,1,.761-.492,2.021,2.021,0,0,0,1.973.924c.615-.081,1-.348,1-1.428a.453.453,0,1,1,.906,0,2.04,2.04,0,0,1-1.784,2.326,2.971,2.971,0,0,1-.389.026" transform="translate(-350.132 -53.248)" fill="#1976d2" stroke="#1976d2" stroke-width="0.3"/>
          <path id="Tracciato_74366" data-name="Tracciato 74366" d="M306.117,83.526a.453.453,0,0,1-.442-.356,1.8,1.8,0,0,0-.934-1.4,3.133,3.133,0,0,0-1.433-.169c-.247.007-.5.013-.753,0-.114-.007-.232-.012-.354-.017a4.222,4.222,0,0,1-2.172-.483,3.684,3.684,0,0,1-1.079-1.35c-.08-.142-.155-.276-.229-.391a.453.453,0,1,1,.762-.489c.088.137.169.282.256.435a2.988,2.988,0,0,0,.79,1.04,3.607,3.607,0,0,0,1.711.334c.128.005.252.011.371.018.212.013.437.007.674,0a3.9,3.9,0,0,1,1.853.26,2.728,2.728,0,0,1,1.423,2.024.453.453,0,0,1-.443.55" transform="translate(-271.603 -71.534)" fill="#1976d2" stroke="#1976d2" stroke-width="0.3"/>
          <path id="Tracciato_74367" data-name="Tracciato 74367" d="M326.082,67.481h-.036A1.65,1.65,0,0,1,324.8,66.8c-.8-1.106-.362-3.091-.309-3.314a.453.453,0,0,1,.881.21,3.7,3.7,0,0,0,.161,2.572.741.741,0,0,0,.582.313.453.453,0,0,1-.035.9" transform="translate(-294.955 -57.417)" fill="#1976d2" stroke="#1976d2" stroke-width="0.3"/>
          <path id="Tracciato_74368" data-name="Tracciato 74368" d="M346.465,35.465c-.664,0-1.257-.77-1.552-1.23a3.107,3.107,0,0,1-.625-2.466.45.45,0,0,1,.6-.218.456.456,0,0,1,.224.6,2.541,2.541,0,0,0,.483,1.461c.387.652.76.939.874.948.184,0,.519-.274.855-1.042a5.588,5.588,0,0,0,.46-1.73.453.453,0,0,1,.905.023c-.021.849-.754,3.649-2.218,3.655Z" transform="translate(-313.024 -28.508)" fill="#1976d2" stroke="#1976d2" stroke-width="0.3"/>
          <path id="Tracciato_74369" data-name="Tracciato 74369" d="M363.567,72.792a.453.453,0,0,1-.453-.453c0-.485.014-.968.027-1.435s.027-.941.027-1.418a.453.453,0,0,1,.906,0c0,.49-.014.975-.027,1.444s-.027.937-.026,1.409a.453.453,0,0,1-.453.453Z" transform="translate(-330.232 -62.782)" fill="#1976d2" stroke="#1976d2" stroke-width="0.3"/>
          <path id="Tracciato_74370" data-name="Tracciato 74370" d="M137.054,208.272a.453.453,0,0,1-.119-.89c2.026-.553,2.732-2.549,2.967-4.127a9.173,9.173,0,0,0-.01-1.989,6.65,6.65,0,0,1,.313-3.321,5.819,5.819,0,0,1,3.385-2.914c1.238-.376,2.568-.7,4.185-1.034a11.354,11.354,0,0,1,3.717.118l.074.01a23.3,23.3,0,0,0,3.269.279h.208a3.5,3.5,0,0,0,2.086-.4l.037-.023a3.242,3.242,0,0,0,.7-.514.949.949,0,0,0,.222-.466,2.381,2.381,0,0,1,.207-.553.453.453,0,1,1,.8.433,1.572,1.572,0,0,0-.128.357,1.81,1.81,0,0,1-.434.847,3.974,3.974,0,0,1-.888.669l-.037.023a4.353,4.353,0,0,1-2.562.537h-.2a24.1,24.1,0,0,1-3.4-.288l-.074-.01a10.717,10.717,0,0,0-3.409-.127c-1.589.324-2.892.645-4.1,1.013a4.92,4.92,0,0,0-2.824,2.423,5.9,5.9,0,0,0-.234,2.878,9.964,9.964,0,0,1,0,2.189c-.395,2.644-1.648,4.327-3.625,4.867a.455.455,0,0,1-.119.016" transform="translate(-124.231 -174.804)" fill="#1976d2" stroke="#1976d2" stroke-width="0.3"/>
          <path id="Tracciato_74371" data-name="Tracciato 74371" d="M225.034,271.614a.453.453,0,0,1-.405-.25c-.042-.084-.089-.171-.14-.258a.453.453,0,1,1,.782-.457c.061.1.117.208.168.31a.453.453,0,0,1-.4.655" transform="translate(-204.104 -245.936)" fill="#1976d2" stroke="#1976d2" stroke-width="0.3"/>
          <path id="Tracciato_74372" data-name="Tracciato 74372" d="M105.317,302.782a9.77,9.77,0,0,1-1.873-.25c-.328-.065-.639-.127-.935-.168a.453.453,0,0,1-.384-.529,38.545,38.545,0,0,1,2.835-9.034.453.453,0,0,1,.826.371,37.8,37.8,0,0,0-2.685,8.372c.174.032.348.067.52.1.339.067.684.136,1.019.181a3.419,3.419,0,0,1-.411-2.962,15.218,15.218,0,0,1,2.05-3.58,12.1,12.1,0,0,1,3.426-2.711,10.669,10.669,0,0,0,3.428-2.793,4.14,4.14,0,0,0,.622-3.255.453.453,0,0,1,.885-.194,5.048,5.048,0,0,1-.765,3.968,11.512,11.512,0,0,1-3.7,3.047A11.259,11.259,0,0,0,107,295.84a14.511,14.511,0,0,0-1.926,3.365,2.875,2.875,0,0,0,.842,2.8.453.453,0,0,1-.288.771c-.1.008-.2.011-.306.011" transform="translate(-92.871 -260.078)" fill="#1976d2" stroke="#1976d2" stroke-width="0.3"/>
          <path id="Tracciato_74373" data-name="Tracciato 74373" d="M236.854,323.23a5.478,5.478,0,0,1-2.728-.81,10.775,10.775,0,0,0-1.3-.6c-1.385-.5-4.2-.807-4.894.385a.453.453,0,1,1-.784-.453c1.059-1.832,4.555-1.3,5.988-.783a11.673,11.673,0,0,1,1.4.644,4.379,4.379,0,0,0,3.507.566.453.453,0,0,1,.194.885,6.493,6.493,0,0,1-1.389.164" transform="translate(-206.524 -291.456)" fill="#1976d2" stroke="#1976d2" stroke-width="0.3"/>
          <path id="Tracciato_74374" data-name="Tracciato 74374" d="M199.493,346.965c-.09,0-.166,0-.225,0a.453.453,0,0,1-.41-.331c-.1-.35-.172-.69-.245-1.018a10.624,10.624,0,0,0-.449-1.615,16.994,16.994,0,0,0-1.209-2.329l-.235-.4c-.083-.144-.187-.3-.3-.457-.454-.664-1.075-1.573-.4-2.491a4.338,4.338,0,0,1,.92-.879,2.074,2.074,0,0,0,.917-1.162.453.453,0,0,1,.873.24,2.936,2.936,0,0,1-1.238,1.64,3.507,3.507,0,0,0-.742.7c-.265.361-.066.735.419,1.444.114.167.233.34.333.513l.233.4a17.674,17.674,0,0,1,1.271,2.456,11.5,11.5,0,0,1,.49,1.749c.047.211.095.427.148.644.27,0,.642-.017,1.006-.03.474-.017.83-.028,1.1-.033a1.722,1.722,0,0,0-.612-.771c-.123-.095-.246-.178-.376-.266a3.2,3.2,0,0,1-1.114-1.089,6.457,6.457,0,0,1-.9-3.6c.359-1.908,2.589-4.148,4.608-5.375a.453.453,0,1,1,.47.774c-1.827,1.11-3.893,3.2-4.188,4.768a5.637,5.637,0,0,0,.792,2.981,2.369,2.369,0,0,0,.838.793c.136.092.277.187.422.3a2.527,2.527,0,0,1,1.02,1.564l.014.06a.453.453,0,0,1-.414.775c-.181-.025-1.052.006-1.63.026-.477.017-.9.032-1.191.032" transform="translate(-178.001 -304.504)" fill="#1976d2" stroke="#1976d2" stroke-width="0.3"/>
          <path id="Tracciato_74375" data-name="Tracciato 74375" d="M334.957,126.93a1.636,1.636,0,0,1-1.17-.421,2.071,2.071,0,0,1-.659-1.087,1.5,1.5,0,0,1,.5-1.1l.062-.071a5.257,5.257,0,0,1,.529-.516,4.541,4.541,0,0,0,.435-.42,7.291,7.291,0,0,1,.741-.715c.149-.131.29-.254.424-.385a4.136,4.136,0,0,0,.4-.484,4.509,4.509,0,0,1,.567-.661,3.722,3.722,0,0,1,3.261-.688.453.453,0,1,1-.125.9,2.826,2.826,0,0,0-2.526.461,3.769,3.769,0,0,0-.452.534,4.871,4.871,0,0,1-.493.59c-.152.148-.308.285-.459.418a6.494,6.494,0,0,0-.652.626,5.27,5.27,0,0,1-.521.506,4.507,4.507,0,0,0-.441.427l-.07.08c-.084.1-.28.319-.281.407a1.489,1.489,0,0,0,.389.529c.367.357,1.444.09,1.951-.363a.453.453,0,1,1,.6.675,3.255,3.255,0,0,1-2.015.758" transform="translate(-302.956 -109.401)" fill="#1976d2" stroke="#1976d2" stroke-width="0.3"/>
          <path id="Tracciato_74376" data-name="Tracciato 74376" d="M412.492,102.21a.453.453,0,0,1-.031-.9,2.084,2.084,0,0,0,1.533-.946,3.413,3.413,0,0,0,.612-1.98c-.243.121-.495.23-.742.337-1.142.493-1.843.856-1.938,1.75a.453.453,0,1,1-.9-.1c.159-1.483,1.392-2.016,2.48-2.485a6.883,6.883,0,0,0,1.194-.6.453.453,0,0,1,.7.251,4.15,4.15,0,0,1-.663,3.351,2.968,2.968,0,0,1-2.208,1.325h-.032" transform="translate(-373.801 -88.397)" fill="#1976d2" stroke="#1976d2" stroke-width="0.3"/>
          <path id="Tracciato_74377" data-name="Tracciato 74377" d="M369.5,170.942a2.368,2.368,0,0,1-1.471-.451.453.453,0,1,1,.552-.718,2.184,2.184,0,0,0,1.933.09,3.959,3.959,0,0,0,1.823-1.132.453.453,0,0,1,.718.552,4.775,4.775,0,0,1-2.271,1.445,4.322,4.322,0,0,1-1.285.214" transform="translate(-334.536 -153.291)" fill="#1976d2" stroke="#1976d2" stroke-width="0.3"/>
          <path id="Tracciato_74378" data-name="Tracciato 74378" d="M343.672,118.821a.455.455,0,0,1-.088-.009c-.714-.141-1.01-.925-1.248-1.554a2.971,2.971,0,0,0-.338-.723.453.453,0,0,1,.31-.751,5.477,5.477,0,0,1,1.382.035,2.37,2.37,0,0,1,.875.413,1.419,1.419,0,0,0,.464.242.453.453,0,1,1-.146.894,2.1,2.1,0,0,1-.82-.382,1.631,1.631,0,0,0-.545-.278,2.728,2.728,0,0,0-.441-.044c.035.089.07.18.1.273.142.375.356.942.577.986a.453.453,0,0,1-.087.9" transform="translate(-310.925 -105.276)" fill="#1976d2" stroke="#1976d2" stroke-width="0.3"/>
          <path id="Tracciato_74379" data-name="Tracciato 74379" d="M378.187,191.7a.451.451,0,0,1-.313-.126,4.834,4.834,0,0,1-1.406-2.334,4.714,4.714,0,0,1-.092-1.074,2.5,2.5,0,0,0-.177-1.176.453.453,0,1,1,.764-.486,3.119,3.119,0,0,1,.319,1.652,4.039,4.039,0,0,0,.065.864,3.944,3.944,0,0,0,1.154,1.9.453.453,0,0,1-.313.78" transform="translate(-342.066 -169.426)" fill="#1976d2" stroke="#1976d2" stroke-width="0.3"/>
          <path id="Tracciato_74380" data-name="Tracciato 74380" d="M384.64,164.339a2.635,2.635,0,0,1-.643-.071l-.19-.046-.071-.017a.453.453,0,0,1,.209-.881l.07.016.2.049a3.966,3.966,0,0,0,1.323-.039c.159-.021.31-.041.457-.056a4.043,4.043,0,0,0,2.986-2.7,5.756,5.756,0,0,0,.194-3.116c-.028-.094-.056-.188-.085-.282a5.287,5.287,0,0,1-.339-2.244c.046-.36.122-.709.2-1.046a9.185,9.185,0,0,0,.208-1.2,7.323,7.323,0,0,0-2.125-5.861.453.453,0,0,1,.656-.625,8.194,8.194,0,0,1,2.372,6.561,10.008,10.008,0,0,1-.226,1.321c-.073.333-.141.647-.182.968a4.544,4.544,0,0,0,.307,1.865c.03.1.059.193.087.289a6.718,6.718,0,0,1-.194,3.63,4.758,4.758,0,0,1-.439.984,4.824,4.824,0,0,1-3.327,2.357c-.131.013-.274.032-.425.052a7.791,7.791,0,0,1-1.021.09" transform="translate(-348.67 -132.853)" fill="#1976d2" stroke="#1976d2" stroke-width="0.3"/>
          <path id="Tracciato_74381" data-name="Tracciato 74381" d="M338.77,329.714a.45.45,0,0,1-.195-.044A1.12,1.12,0,0,0,338,329.6a.953.953,0,0,1-.812-.222,1.23,1.23,0,0,1-.213-1l0-.019a21.66,21.66,0,0,1,.327-2.386c.306-1.45-.783-5.33-1.657-8.447-.109-.389-.216-.77-.318-1.139a.453.453,0,1,1,.873-.242c.1.368.209.748.318,1.137.948,3.38,2.022,7.211,1.671,8.878a20.966,20.966,0,0,0-.312,2.289l0,.019a1.873,1.873,0,0,0-.011.231l.086,0a2.515,2.515,0,0,1,.584.02,10.283,10.283,0,0,0,.742-4.446c-.021-.422-.039-.851-.057-1.282-.016-.375-.031-.752-.049-1.128a10.037,10.037,0,0,0-.148-1.112,5.9,5.9,0,0,1-.11-2.174.453.453,0,0,1,.882.207,5.385,5.385,0,0,0,.121,1.817,10.8,10.8,0,0,1,.159,1.22c.018.377.034.756.049,1.133.018.429.036.855.056,1.275a10.578,10.578,0,0,1-1.02,5.254.453.453,0,0,1-.4.232" transform="translate(-304.952 -287.217)" fill="#1976d2" stroke="#1976d2" stroke-width="0.3"/>
          <rect id="Rettangolo_164163" data-name="Rettangolo 164163" width="18.015" height="0.906" transform="translate(37.632 37.805)" fill="#1976d2" stroke="#1976d2" stroke-width="0.3"/>
          <rect id="Rettangolo_164164" data-name="Rettangolo 164164" width="8.644" height="0.906" transform="translate(23.562 37.805)" fill="#1976d2" stroke="#1976d2" stroke-width="0.3"/>
          <rect id="Rettangolo_164165" data-name="Rettangolo 164165" width="6.973" height="0.906" transform="translate(12.13 37.805)" fill="#1976d2" stroke="#1976d2" stroke-width="0.3"/>
          <rect id="Rettangolo_164166" data-name="Rettangolo 164166" width="9.474" height="0.906" transform="translate(0 37.805)" fill="#1976d2" stroke="#1976d2" stroke-width="0.3"/>
          <path id="Tracciato_74382" data-name="Tracciato 74382" d="M34.153,267.974l-.819-.386,2.828-6.009,4.391-2.114,3.858-4.5,2-.832.348.836-1.8.749L41.116,260.2l-4.272,2.057Z" transform="translate(-30.315 -231.118)" fill="#1976d2" stroke="#1976d2" stroke-width="0.3"/>
          <path id="Tracciato_74383" data-name="Tracciato 74383" d="M459.937,301.8l-.309-.331c-1.634-1.755-4.4-4.749-4.565-5.079-.138-.276-1.19-2.438-1.514-3.1l-4.031-1.008-.656-.394.467-.776.54.324,4.31,1.078.092.19c.014.029,1.4,2.885,1.594,3.269.243.354,2.835,3.174,4.425,4.882l.309.331Z" transform="translate(-408.215 -264.745)" fill="#1976d2" stroke="#1976d2" stroke-width="0.3"/>
          <path id="Tracciato_74384" data-name="Tracciato 74384" d="M255.33,357.707l-.777-.466,2.256-3.76,3.354-.789.207.882-2.982.7Z" transform="translate(-231.502 -320.753)" fill="#1976d2" stroke="#1976d2" stroke-width="0.3"/>
          <rect id="Rettangolo_164167" data-name="Rettangolo 164167" width="0.906" height="2.959" transform="matrix(0.803, -0.596, 0.596, 0.803, 46.359, 34.77)" fill="#1976d2" stroke="#1976d2" stroke-width="0.3"/>
          <path id="Tracciato_74385" data-name="Tracciato 74385" d="M499.447,361.719l-.27-.363c-.015-.02-.029-.04-.041-.06h0l-.291-.394.728-.539.269.364c.012.016.023.032.033.048l.029.039.27.363Z" transform="translate(-453.67 -327.73)" fill="#1976d2" stroke="#1976d2" stroke-width="0.3"/>
          <path id="Tracciato_74386" data-name="Tracciato 74386" d="M464.09,320.793l-.2-.408c-.3-.617-.648-1.326-.81-1.65l-1.928-.551.249-.871,2.311.66.089.178c0,.01.505,1.008.905,1.842l.2.408Z" transform="translate(-419.395 -288.578)" fill="#1976d2" stroke="#1976d2" stroke-width="0.3"/>
          <path id="Tracciato_74387" data-name="Tracciato 74387" d="M479.672,387.451l-.91-1.442.766-.483.909,1.442Z" transform="translate(-435.407 -350.613)" fill="#1976d2" stroke="#1976d2" stroke-width="0.3"/>
          <path id="Tracciato_74388" data-name="Tracciato 74388" d="M448.46,347.336l-.914-1.449-1.339-.927.515-.745,1.491,1.032,1.012,1.605Z" transform="translate(-405.8 -313.044)" fill="#1976d2" stroke="#1976d2" stroke-width="0.3"/>
          <rect id="Rettangolo_164168" data-name="Rettangolo 164168" width="1.367" height="0.906" transform="translate(38.33 34.506) rotate(-69.628)" fill="#1976d2" stroke="#1976d2" stroke-width="0.3"/>
          <rect id="Rettangolo_164169" data-name="Rettangolo 164169" width="1.367" height="0.906" transform="matrix(0.348, -0.937, 0.937, 0.348, 37.448, 36.88)" fill="#1976d2" stroke="#1976d2" stroke-width="0.3"/>
          <rect id="Rettangolo_164170" data-name="Rettangolo 164170" width="1.037" height="0.906" transform="matrix(0.713, -0.701, 0.701, 0.713, 13.593, 28.726)" fill="#1976d2" stroke="#1976d2" stroke-width="0.3"/>
          <path id="Tracciato_74389" data-name="Tracciato 74389" d="M66.828,331.791l-.805-.415,2.356-4.573,2.837-.493,1.8-1.97.668.611-2.011,2.2-2.7.469Z" transform="translate(-60.044 -294.969)" fill="#1976d2" stroke="#1976d2" stroke-width="0.3"/>
          <path id="Tracciato_74390" data-name="Tracciato 74390" d="M95.344,369.96l-.83-.363,1.392-3.182,1.516-.4.231.876-1.093.288Z" transform="translate(-85.955 -332.871)" fill="#1976d2" stroke="#1976d2" stroke-width="0.3"/>
          <rect id="Rettangolo_164171" data-name="Rettangolo 164171" width="1.286" height="0.906" transform="translate(39.522 36.619) rotate(-71.567)" fill="#1976d2" stroke="#1976d2" stroke-width="0.3"/>
          <rect id="Rettangolo_164172" data-name="Rettangolo 164172" width="5.558" height="0.906" transform="translate(4.62 22.646)" fill="#1976d2" stroke="#1976d2" stroke-width="0.3"/>
          <rect id="Rettangolo_164173" data-name="Rettangolo 164173" width="5.558" height="0.906" transform="translate(7.508 20.08)" fill="#1976d2" stroke="#1976d2" stroke-width="0.3"/>
          <rect id="Rettangolo_164174" data-name="Rettangolo 164174" width="2.074" height="0.906" transform="translate(9.393 17.794)" fill="#1976d2" stroke="#1976d2" stroke-width="0.3"/>
        </g>
      </g>
    </g>
    <g id="Rettangolo_164143" data-name="Rettangolo 164143" transform="translate(132 32)" fill="none" stroke="#1976d2" stroke-width="2">
      <rect width="80" height="80" rx="40" stroke="none"/>
      <rect x="1" y="1" width="78" height="78" rx="39" fill="none"/>
    </g>
  </g>
</svg>
