<svg xmlns="http://www.w3.org/2000/svg" width="80" height="80" viewBox="0 0 80 80">
  <g id="Raggruppa_28691" data-name="Raggruppa 28691" transform="translate(-132 -32)">
    <g id="logo" transform="translate(109)">
      <rect id="Rettangolo_145801" data-name="Rettangolo 145801" width="80" height="80" transform="translate(23 32)" fill="none"/>
      <g id="noun-rover-3328561" transform="translate(-33.003 46.001)">
        <path id="Tracciato_73393" data-name="Tracciato 73393" d="M159.938,404.125H164a.813.813,0,0,0,0-1.625h-4.063a2.438,2.438,0,1,0,0,4.875H164a.813.813,0,0,0,0-1.625h-4.063a.813.813,0,1,1,0-1.625Z" transform="translate(-79.373 -365.126)" fill="#d21919"/>
        <path id="Tracciato_73394" data-name="Tracciato 73394" d="M560,403.313a.812.812,0,0,0,.813.813.813.813,0,0,1,0,1.625.813.813,0,0,0,0,1.625,2.438,2.438,0,1,0,0-4.875.812.812,0,0,0-.812.813Z" transform="translate(-444.497 -365.126)" fill="#d21919"/>
        <path id="Tracciato_73395" data-name="Tracciato 73395" d="M327.813,402.5h-3.25a.813.813,0,0,0,0,1.625h3.25a.813.813,0,0,0,0-1.625Z" transform="translate(-230.185 -365.126)" fill="#d21919"/>
        <path id="Tracciato_73396" data-name="Tracciato 73396" d="M324.563,439.125h3.25a.813.813,0,0,0,0-1.625h-3.25a.813.813,0,0,0,0,1.625Z" transform="translate(-230.185 -396.876)" fill="#d21919"/>
        <path id="Tracciato_73397" data-name="Tracciato 73397" d="M240.313,393.125a4.067,4.067,0,1,0-2.871-1.191A4.064,4.064,0,0,0,240.313,393.125Zm0-6.5a2.44,2.44,0,1,1-1.723.715,2.438,2.438,0,0,1,1.723-.715Z" transform="translate(-150.81 -349.251)" fill="#d21919"/>
        <path id="Tracciato_73398" data-name="Tracciato 73398" d="M271.25,420h1.625v1.625H271.25Z" transform="translate(-182.56 -381.001)" fill="#d21919"/>
        <path id="Tracciato_73399" data-name="Tracciato 73399" d="M236.25,350h1.625v1.625H236.25Z" transform="translate(-150.81 -317.501)" fill="#d21919"/>
        <path id="Tracciato_73400" data-name="Tracciato 73400" d="M428.75,350h1.625v1.625H428.75Z" transform="translate(-325.435 -317.501)" fill="#d21919"/>
        <path id="Tracciato_73401" data-name="Tracciato 73401" d="M463.75,350h1.625v1.625H463.75Z" transform="translate(-357.185 -317.501)" fill="#d21919"/>
        <path id="Tracciato_73402" data-name="Tracciato 73402" d="M498.75,350h1.625v1.625H498.75Z" transform="translate(-388.935 -317.501)" fill="#d21919"/>
        <path id="Tracciato_73403" data-name="Tracciato 73403" d="M380.313,393.125a4.067,4.067,0,1,0-2.871-1.191A4.064,4.064,0,0,0,380.313,393.125Zm0-6.5a2.44,2.44,0,1,1-1.723.715,2.438,2.438,0,0,1,1.723-.715Z" transform="translate(-277.81 -349.251)" fill="#d21919"/>
        <path id="Tracciato_73404" data-name="Tracciato 73404" d="M411.25,420h1.625v1.625H411.25Z" transform="translate(-309.56 -381.001)" fill="#d21919"/>
        <path id="Tracciato_73405" data-name="Tracciato 73405" d="M476.563,393.125a4.067,4.067,0,1,0-2.871-1.191A4.064,4.064,0,0,0,476.563,393.125Zm0-6.5a2.44,2.44,0,1,1-1.723.715,2.438,2.438,0,0,1,1.723-.715Z" transform="translate(-365.122 -349.251)" fill="#d21919"/>
        <path id="Tracciato_73406" data-name="Tracciato 73406" d="M507.5,420h1.625v1.625H507.5Z" transform="translate(-396.872 -381.001)" fill="#d21919"/>
        <path id="Tracciato_73407" data-name="Tracciato 73407" d="M367.5,341.25h1.625v3.25H367.5Z" transform="translate(-269.873 -309.563)" fill="#d21919"/>
        <path id="Tracciato_73408" data-name="Tracciato 73408" d="M302.376,334.938a2.44,2.44,0,1,0-.714,1.723,2.438,2.438,0,0,0,.714-1.723Zm-3.25,0a.812.812,0,1,1,.813.813A.812.812,0,0,1,299.126,334.938Z" transform="translate(-206.373 -301.626)" fill="#d21919"/>
        <path id="Tracciato_73409" data-name="Tracciato 73409" d="M297.5,201.25h1.625v1.625H297.5Z" transform="translate(-206.373 -182.563)" fill="#d21919"/>
        <path id="Tracciato_73410" data-name="Tracciato 73410" d="M108.573,14.462a.81.81,0,0,0,.487.163h6a3.163,3.163,0,0,0,3.656.413l1.625,2.167h0a4.056,4.056,0,0,0,2.534,6.276v1.707H118a.812.812,0,0,0-.812.813v2.832l-5.347,3.82a.813.813,0,0,0-.34.661v2.438h1.625V33.73l5.135-3.668h28.99v5.688h1.625v-6.5a.812.812,0,0,0-.812-.813V26a.812.812,0,0,0-.812-.813H144v-3.25h4.875a.812.812,0,0,0,.813-.813V9.749a.812.812,0,0,0-.812-.813H134.247a.812.812,0,0,0-.812.813V21.124a.812.812,0,0,0,.813.813h4.875v3.25h-3.25a.812.812,0,0,0-.813.813v2.438h-4.875V26a.812.812,0,0,0-.813-.813H124.5V23.48a4.061,4.061,0,1,0-2.976-7.406l-1.605-2.14a3.2,3.2,0,0,0-.294-3.874v-6a.811.811,0,0,0-.162-.487L117.022.324a.812.812,0,0,0-.65-.325h-5.688a.812.812,0,0,0-.813.813V3.249a.812.812,0,0,0,.813.813H113.6l1.149,1.149V9.749h-4.539L109.06,8.6V5.687a.812.812,0,0,0-.813-.813H105.81a.812.812,0,0,0-.812.813v5.688a.812.812,0,0,0,.325.65Zm26.488-3.9h13v9.75h-13Zm5.688,11.375h1.625v3.25h-1.625Zm-4.063,4.875h9.75v1.625h-9.75Zm-8.125,1.625h-9.75V26.812h9.75Zm-13-16.25a1.627,1.627,0,1,1,.477,1.148,1.625,1.625,0,0,1-.477-1.148Zm8.125,4.875a2.44,2.44,0,1,1-1.723.714,2.438,2.438,0,0,1,1.723-.714ZM114.51,2.674a.813.813,0,0,0-.575-.238H111.5V1.624h4.469L118,4.332v4.72a2.919,2.919,0,0,0-1.625,0V4.874a.813.813,0,0,0-.238-.575ZM106.623,6.5h.813V8.936a.813.813,0,0,0,.238.575l1.625,1.625a.813.813,0,0,0,.575.238h4.178a2.919,2.919,0,0,0,0,1.625h-4.72l-2.708-2.031Z" transform="translate(-31.745)" fill="#d21919"/>
        <path id="Tracciato_73411" data-name="Tracciato 73411" d="M448.875,129.813v-6.5a.812.812,0,0,0-.812-.812h-9.75a.812.812,0,0,0-.812.813v6.5a.812.812,0,0,0,.813.813h9.75a.812.812,0,0,0,.813-.812ZM447.25,129h-8.125v-4.875h8.125Z" transform="translate(-333.372 -111.126)" fill="#d21919"/>
        <path id="Tracciato_73412" data-name="Tracciato 73412" d="M121.961,457.989a.81.81,0,0,0-1.028-.513l-2.246.748-4.676-.779h0a.791.791,0,0,0-.33.013l-3.073.768-3.883-.777a.8.8,0,0,0-.356.009l-3.073.768-3.883-.777a.8.8,0,0,0-.356.009l-3,.748-3.819-1.527h0a.82.82,0,0,0-.461-.042l-3.983.8H85.54l-3.153-.788h0a.782.782,0,0,0-.2-.025h-3l-2.233-1.489h0a.81.81,0,0,0-.566-.128l-5.688.813a.812.812,0,0,0-.7.8v7.313a.813.813,0,0,0,1.625,0v-6.608l4.683-.669,2.179,1.453a.814.814,0,0,0,.451.136h3.15l3.153.788h0a.782.782,0,0,0,.2.025h2.438a.81.81,0,0,0,.16-.016l3.825-.765,3.839,1.535a.792.792,0,0,0,.5.033l3.073-.768,3.883.777a.82.82,0,0,0,.357-.009l3.073-.768,3.883.777h0a.82.82,0,0,0,.357-.009l3.086-.771,4.709.785a.823.823,0,0,0,.39-.031l2.438-.812a.811.811,0,0,0,.513-1.028Z" transform="translate(0 -412.747)" fill="#d21919"/>
      </g>
    </g>
    <g id="Rettangolo_164143" data-name="Rettangolo 164143" transform="translate(132 32)" fill="none" stroke="#d21919" stroke-width="2">
      <rect width="80" height="80" rx="40" stroke="none"/>
      <rect x="1" y="1" width="78" height="78" rx="39" fill="none"/>
    </g>
  </g>
</svg>
