<svg xmlns="http://www.w3.org/2000/svg" width="80" height="80" viewBox="0 0 80 80">
  <g id="Raggruppa_28715" data-name="Raggruppa 28715" transform="translate(-132 -32)">
    <g id="logo" transform="translate(109)">
      <rect id="Rettangolo_145801" data-name="Rettangolo 145801" width="80" height="80" transform="translate(23 32)" fill="none"/>
      <g id="Raggruppa_28688" data-name="Raggruppa 28688" transform="translate(36.975 48.939)">
        <g id="Raggruppa_28689" data-name="Raggruppa 28689" transform="translate(0 0)">
          <path id="Tracciato_74229" data-name="Tracciato 74229" d="M52.759,4.514,39.626,17.647,42.781,20.8,58.368,5.215a2.231,2.231,0,0,0,0-3.155" transform="translate(-16.564 -0.861)" fill="#fff" stroke="#d21919" stroke-width="1.3"/>
          <path id="Tracciato_74230" data-name="Tracciato 74230" d="M52.759,4.514,39.626,17.647,42.781,20.8,58.368,5.215a2.231,2.231,0,0,0,0-3.155" transform="translate(-16.564 -0.861)" fill="none" stroke="#d21919" stroke-miterlimit="10" stroke-width="1.3"/>
          <path id="Tracciato_74231" data-name="Tracciato 74231" d="M67.586,1a2.231,2.231,0,0,0-2.231,2.231V29.154h4.461V3.231A2.231,2.231,0,0,0,67.586,1" transform="translate(-27.32 -0.418)" fill="#fff" stroke="#d21919" stroke-width="1.3"/>
          <path id="Tracciato_74232" data-name="Tracciato 74232" d="M67.586,1a2.231,2.231,0,0,0-2.231,2.231V29.154h4.461V3.231A2.231,2.231,0,0,0,67.586,1Z" transform="translate(-27.32 -0.418)" fill="none" stroke="#d21919" stroke-miterlimit="10" stroke-width="1.3"/>
          <path id="Tracciato_74233" data-name="Tracciato 74233" d="M30.724,60.283H5.065a4.065,4.065,0,1,0,0,8.13H30.724a4.065,4.065,0,1,0,0-8.13" transform="translate(-0.418 -25.199)" fill="#fff" stroke="#d21919" stroke-width="1.3"/>
          <path id="Tracciato_74234" data-name="Tracciato 74234" d="M30.724,60.283H5.065a4.065,4.065,0,1,0,0,8.13H30.724a4.065,4.065,0,1,0,0-8.13Z" transform="translate(-0.418 -25.199)" fill="none" stroke="#d21919" stroke-miterlimit="10" stroke-width="1.3"/>
          <path id="Tracciato_74235" data-name="Tracciato 74235" d="M19.53,66.382a1.048,1.048,0,1,1-1.048-1.048,1.048,1.048,0,0,1,1.048,1.048" transform="translate(-7.288 -27.311)" fill="#fff" stroke="#d21919" stroke-width="1.3"/>
          <circle id="Ellisse_2604" data-name="Ellisse 2604" cx="1.048" cy="1.048" r="1.048" transform="translate(10.147 38.023)" fill="none" stroke="#d21919" stroke-miterlimit="10" stroke-width="1.3"/>
          <path id="Tracciato_74236" data-name="Tracciato 74236" d="M30.324,66.382a1.048,1.048,0,1,1-1.048-1.048,1.048,1.048,0,0,1,1.048,1.048" transform="translate(-11.8 -27.311)" fill="#fff" stroke="#d21919" stroke-width="1.3"/>
          <circle id="Ellisse_2605" data-name="Ellisse 2605" cx="1.048" cy="1.048" r="1.048" transform="translate(16.429 38.023)" fill="none" stroke="#d21919" stroke-miterlimit="10" stroke-width="1.3"/>
          <path id="Tracciato_74237" data-name="Tracciato 74237" d="M41.118,66.382a1.048,1.048,0,1,1-1.048-1.048,1.048,1.048,0,0,1,1.048,1.048" transform="translate(-16.312 -27.311)" fill="#fff" stroke="#d21919" stroke-width="1.3"/>
          <circle id="Ellisse_2606" data-name="Ellisse 2606" cx="1.048" cy="1.048" r="1.048" transform="translate(22.711 38.023)" fill="none" stroke="#d21919" stroke-miterlimit="10" stroke-width="1.3"/>
          <path id="Tracciato_74238" data-name="Tracciato 74238" d="M8.553,65.819A2.017,2.017,0,1,1,6.535,63.8a2.018,2.018,0,0,1,2.018,2.017" transform="translate(-1.889 -26.67)" fill="#fff" stroke="#d21919" stroke-width="1.3"/>
          <path id="Tracciato_74239" data-name="Tracciato 74239" d="M8.553,65.819A2.017,2.017,0,1,1,6.535,63.8,2.018,2.018,0,0,1,8.553,65.819Z" transform="translate(-1.889 -26.67)" fill="none" stroke="#d21919" stroke-miterlimit="10" stroke-width="1.3"/>
          <path id="Tracciato_74240" data-name="Tracciato 74240" d="M52.642,65.819A2.017,2.017,0,1,1,50.624,63.8a2.018,2.018,0,0,1,2.018,2.017" transform="translate(-20.319 -26.67)" fill="#fff" stroke="#d21919" stroke-width="1.3"/>
          <path id="Tracciato_74241" data-name="Tracciato 74241" d="M52.642,65.819A2.017,2.017,0,1,1,50.624,63.8,2.018,2.018,0,0,1,52.642,65.819Z" transform="translate(-20.319 -26.67)" fill="none" stroke="#d21919" stroke-miterlimit="10" stroke-width="1.3"/>
          <path id="Tracciato_74242" data-name="Tracciato 74242" d="M70.065,36.183a3.11,3.11,0,1,1-3.11-3.11,3.11,3.11,0,0,1,3.11,3.11" transform="translate(-26.688 -13.825)" fill="#fff" stroke="#d21919" stroke-width="1.3"/>
          <path id="Tracciato_74243" data-name="Tracciato 74243" d="M70.065,36.183a3.11,3.11,0,1,1-3.11-3.11A3.11,3.11,0,0,1,70.065,36.183Z" transform="translate(-26.688 -13.825)" fill="none" stroke="#d21919" stroke-miterlimit="10" stroke-width="1.3"/>
          <line id="Linea_3022" data-name="Linea 3022" x2="42.679" transform="translate(9.371 43.214)" fill="none" stroke="#d21919" stroke-miterlimit="10" stroke-width="1.3"/>
          <line id="Linea_3023" data-name="Linea 3023" x2="17.75" transform="translate(28.48 45.542)" fill="none" stroke="#d21919" stroke-miterlimit="10" stroke-width="1.3"/>
          <path id="Tracciato_74244" data-name="Tracciato 74244" d="M41.361,32.078V35.7H30.129V24.565h6.332A2.513,2.513,0,0,1,38.742,26l2.374,4.988a2.539,2.539,0,0,1,.244,1.088" transform="translate(-12.594 -10.268)" fill="#fff" stroke="#d21919" stroke-width="1.3"/>
          <path id="Tracciato_74245" data-name="Tracciato 74245" d="M41.361,32.078V35.7H30.129V24.565h6.332A2.513,2.513,0,0,1,38.742,26l2.374,4.988A2.539,2.539,0,0,1,41.361,32.078Z" transform="translate(-12.594 -10.268)" fill="none" stroke="#d21919" stroke-miterlimit="10" stroke-width="1.3"/>
          <path id="Tracciato_74246" data-name="Tracciato 74246" d="M38.393,35.7v4.854H23.029V27.091a2.527,2.527,0,0,1,2.526-2.526h1.606V35.7Z" transform="translate(-9.627 -10.268)" fill="#fff" stroke="#d21919" stroke-width="1.3"/>
          <path id="Tracciato_74247" data-name="Tracciato 74247" d="M38.393,35.7v4.854H23.029V27.091a2.527,2.527,0,0,1,2.526-2.526h1.606V35.7Z" transform="translate(-9.627 -10.268)" fill="none" stroke="#d21919" stroke-miterlimit="10" stroke-width="1.3"/>
          <path id="Tracciato_74248" data-name="Tracciato 74248" d="M11.793,43.705h6.053v4.854H11.793a1.164,1.164,0,0,1-1.164-1.164V44.869a1.164,1.164,0,0,1,1.164-1.164" transform="translate(-4.443 -18.269)" fill="#fff" stroke="#d21919" stroke-width="1.3"/>
          <path id="Tracciato_74249" data-name="Tracciato 74249" d="M11.793,43.705h6.053v4.854H11.793a1.164,1.164,0,0,1-1.164-1.164V44.869A1.164,1.164,0,0,1,11.793,43.705Z" transform="translate(-4.443 -18.269)" fill="none" stroke="#d21919" stroke-miterlimit="10" stroke-width="1.3"/>
          <rect id="Rettangolo_164158" data-name="Rettangolo 164158" width="4.695" height="5.362" transform="translate(8.708 20.073)" fill="#fff" stroke="#d21919" stroke-width="1.3"/>
          <rect id="Rettangolo_164159" data-name="Rettangolo 164159" width="4.695" height="5.362" transform="translate(8.708 20.073)" fill="none" stroke="#d21919" stroke-miterlimit="10" stroke-width="1.3"/>
          <path id="Tracciato_74250" data-name="Tracciato 74250" d="M23.2,53.791V52.045H31.15V56.84H23.2v-.721" transform="translate(-9.696 -21.756)" fill="#fff" stroke="#d21919" stroke-width="1.3"/>
          <path id="Tracciato_74251" data-name="Tracciato 74251" d="M23.2,53.791V52.045H31.15V56.84H23.2v-.721" transform="translate(-9.696 -21.756)" fill="none" stroke="#d21919" stroke-miterlimit="10" stroke-width="1.3"/>
          <path id="Tracciato_74252" data-name="Tracciato 74252" d="M66.491,46.33H57.448s-1.078,8.13,6.8,8.13h2.24Z" transform="translate(-23.994 -19.367)" fill="#fff" stroke="#d21919" stroke-width="1.3"/>
          <path id="Tracciato_74253" data-name="Tracciato 74253" d="M66.491,46.33H57.448s-1.078,8.13,6.8,8.13h2.24Z" transform="translate(-23.994 -19.367)" fill="none" stroke="#d21919" stroke-miterlimit="10" stroke-width="1.3"/>
          <line id="Linea_3024" data-name="Linea 3024" y1="0.901" transform="translate(33.455 26.063)" fill="#fff" stroke="#d21919" stroke-width="1.3"/>
          <line id="Linea_3025" data-name="Linea 3025" y1="0.901" transform="translate(33.455 26.063)" fill="none" stroke="#d21919" stroke-miterlimit="10" stroke-width="1.3"/>
          <line id="Linea_3026" data-name="Linea 3026" y1="3.234" x2="3.234" transform="translate(20.2 17.84)" fill="none" stroke="#d21919" stroke-miterlimit="10" stroke-width="1.3"/>
          <line id="Linea_3027" data-name="Linea 3027" y1="1.617" x2="1.617" transform="translate(22.184 21.441)" fill="none" stroke="#d21919" stroke-miterlimit="10" stroke-width="1.3"/>
        </g>
      </g>
    </g>
    <g id="Rettangolo_164143" data-name="Rettangolo 164143" transform="translate(132 32)" fill="none" stroke="#d21919" stroke-width="2">
      <rect width="80" height="80" rx="40" stroke="none"/>
      <rect x="1" y="1" width="78" height="78" rx="39" fill="none"/>
    </g>
  </g>
</svg>
