<svg xmlns="http://www.w3.org/2000/svg" width="21" height="21" viewBox="0 0 21 21">
  <g id="Icona_aggiungi_a_mappa" data-name="Icona aggiungi a mappa" transform="translate(2642 -6226)">
    <path id="Sottrazione_1" data-name="Sottrazione 1" d="M-5619.92,1241.753a1.013,1.013,0,0,1-.607-.212,1.1,1.1,0,0,1-.473-.93v-15.556a1.036,1.036,0,0,1,.209-.639,1.249,1.249,0,0,1,.568-.416l5.89-2,6.667,2.333,5.166-2a1.136,1.136,0,0,1,.421-.087,1.021,1.021,0,0,1,.607.211,1.106,1.106,0,0,1,.471.931v10.14a6.03,6.03,0,0,0-2.222-1.26V1225l-3.333,1.278v5.927a5.949,5.949,0,0,0-2.222,1.135v-7.062l-4.445-1.555v13l2.245.786a6,6,0,0,0,.867,2.636l-4.222-1.478-5.167,2A1.131,1.131,0,0,1-5619.92,1241.753Zm4.476-17.03h0l-3.333,1.11V1239l3.333-1.278v-13Z" transform="translate(2979 5004)" fill="#2f76d2"/>
    <path id="add_home_work_FILL0_wght400_GRAD0_opsz24" d="M18,21a4.993,4.993,0,0,1-5-5,4.993,4.993,0,0,1,5-5,4.992,4.992,0,0,1,5,5,4.992,4.992,0,0,1-5,5Zm-.5-2h1V16.5H21v-1H18.5V13h-1v2.5H15v1h2.5Z" transform="translate(-2644 6226)" fill="#2f76d2"/>
  </g>
</svg>
