<svg xmlns="http://www.w3.org/2000/svg" width="80" height="80" viewBox="0 0 80 80">
  <g id="Raggruppa_28671" data-name="Raggruppa 28671" transform="translate(-132 -32)">
    <g id="logo" transform="translate(108)">
      <rect id="Rettangolo_145801" data-name="Rettangolo 145801" width="80" height="80" transform="translate(24 32)" fill="none"/>
      <g id="noun-environment-3479898" transform="translate(-49.5 28.504)">
        <path id="Tracciato_73355" data-name="Tracciato 73355" d="M90.967,27.029a3.46,3.46,0,0,0,1.172-.2,5.2,5.2,0,0,0,6.322,0A3.467,3.467,0,1,0,99.807,20.1a5.2,5.2,0,0,0-9.013,0,3.467,3.467,0,0,0,.173,6.929Zm0-5.2a1.63,1.63,0,0,1,.23.015.866.866,0,0,0,.917-.516,3.468,3.468,0,0,1,6.372,0,.866.866,0,0,0,.917.516,1.63,1.63,0,0,1,.23-.015,1.733,1.733,0,1,1,0,3.467,1.716,1.716,0,0,1-.873-.238.867.867,0,0,0-1.046.124,3.464,3.464,0,0,1-4.829,0,.867.867,0,0,0-1.046-.124,1.716,1.716,0,0,1-.873.238,1.733,1.733,0,1,1,0-3.467Z" transform="translate(0)" fill="#1976d2"/>
        <path id="Tracciato_73356" data-name="Tracciato 73356" d="M324.617,36.733a.707.707,0,0,1,.725.355,1.313,1.313,0,0,1,.142.511.867.867,0,0,0,1.733.009,1.3,1.3,0,0,1,.142-.52.706.706,0,0,1,.725-.356.867.867,0,0,0,0-1.733,2.521,2.521,0,0,0-1.733.609A2.522,2.522,0,0,0,324.617,35a.867.867,0,1,0,0,1.733Z" transform="translate(-212.85 -15.771)" fill="#213366"/>
        <path id="Tracciato_73357" data-name="Tracciato 73357" d="M265.1,105.611a2.521,2.521,0,0,0-1.733-.609.867.867,0,0,0,0,1.733.707.707,0,0,1,.725.355,1.311,1.311,0,0,1,.142.511.867.867,0,0,0,1.733.009,1.3,1.3,0,0,1,.142-.52.706.706,0,0,1,.725-.355.867.867,0,0,0,0-1.733,2.52,2.52,0,0,0-1.733.609Z" transform="translate(-157.667 -78.839)" fill="#213366"/>
        <path id="Tracciato_73358" data-name="Tracciato 73358" d="M113.5,108.918a26,26,0,0,0,26-26,.867.867,0,0,0-.867-.867H131.7v-3.83a6.286,6.286,0,0,0,2.116.363c3.134,0,5.684-2.273,5.684-5.066a4.681,4.681,0,0,0-1.033-2.916,4.062,4.062,0,0,0,.574-2.084,4.465,4.465,0,0,0-3.111-4.139,5.716,5.716,0,0,0-10.193,0,4.8,4.8,0,0,0-2.533,2.04,4.617,4.617,0,0,0-3.637-1.7,4.478,4.478,0,0,0-4.107,2.473,3.651,3.651,0,0,0-2.47,3.371,3.344,3.344,0,0,0,.409,1.605,3.82,3.82,0,0,0-.766,2.284,4.4,4.4,0,0,0,4.614,4.133,5.115,5.115,0,0,0,1.453-.209v3.675h-3.891l-5.383-7.439a3.013,3.013,0,0,0-4.722-.166l-2.48-3.274a3.3,3.3,0,0,0-5.182,0L88.8,82.051h-.436a.867.867,0,0,0-.867.867,26,26,0,0,0,26,26ZM122.2,94.5a8.77,8.77,0,0,0-4.889-6.312,12.8,12.8,0,0,1-5.879-4.4H126.36a5.386,5.386,0,0,1,2.914,2.472,6.218,6.218,0,0,1-.119,5.024c-1.543,4.114-1.523,7.008.121,10.077h0a24.044,24.044,0,0,1-9.769,5.081A15.411,15.411,0,0,0,122.2,94.5Zm8.462,5.577-.059.058c-1.354-2.816-.959-5.214.178-8.246a7.837,7.837,0,0,0,.036-6.428h0a6.231,6.231,0,0,0-1.242-1.676h8.179a24.092,24.092,0,0,1-7.092,16.292ZM124.905,71.3h0a.867.867,0,0,0,.063-1.194,2.426,2.426,0,0,1-.61-1.588,2.826,2.826,0,0,1,2.269-2.6.867.867,0,0,0,.6-.582,3.938,3.938,0,0,1,7.206,0,.867.867,0,0,0,.6.582,2.825,2.825,0,0,1,2.269,2.6,2.426,2.426,0,0,1-.61,1.588.867.867,0,0,0,.063,1.194,3.053,3.053,0,0,1,1.005,2.218c0,1.838-1.772,3.333-3.951,3.333a4.433,4.433,0,0,1-2.116-.522V74.714l2.214-1.476a.867.867,0,0,0-.962-1.442l-1.252.835V70.784a.867.867,0,1,0-1.733,0v1.847l-1.252-.835h0a.867.867,0,1,0-.962,1.442l2.214,1.476v1.614a4.438,4.438,0,0,1-2.116.522c-2.179,0-3.951-1.5-3.951-3.333a3.053,3.053,0,0,1,1.006-2.218Zm-7.658,5.552a2.676,2.676,0,0,1-2.881-2.4,2.183,2.183,0,0,1,.722-1.585.867.867,0,0,0,.064-1.193,1.7,1.7,0,0,1-.429-1.111,2.008,2.008,0,0,1,1.622-1.839.867.867,0,0,0,.6-.582,2.872,2.872,0,0,1,5.236,0,.865.865,0,0,0,.446.521A4.068,4.068,0,0,0,123.2,70.6a4.628,4.628,0,0,0,.094,5.94,3.332,3.332,0,0,1-1.408.31,3.275,3.275,0,0,1-1.453-.33v-4a.867.867,0,1,0-1.733,0v1.2l-.479-.239a.867.867,0,0,0-.775,1.55l1.254.627v.868a3.275,3.275,0,0,1-1.453.33Zm3.186,1.525a5.115,5.115,0,0,0,1.453.209,5,5,0,0,0,2.81-.854,6.149,6.149,0,0,0,3.155.854,6.286,6.286,0,0,0,2.116-.363v3.83h-9.533ZM107,75.118a1.244,1.244,0,0,1,1.022.51l4.647,6.423H101.33l4.648-6.423a1.243,1.243,0,0,1,1.023-.51Zm-8.575-2.9a1.574,1.574,0,0,1,2.418,0l2.794,3.689-4.446,6.144H90.977Zm11.017,11.567c.568,1.224,2.307,3.907,7.184,6a7.065,7.065,0,0,1,3.882,5.108c.887,3.849-.438,8.333-3.547,12.051a24.6,24.6,0,0,1-3.461.245,24.267,24.267,0,0,1-24.252-23.4Z" transform="translate(0 -39.421)" fill="#213366"/>
        <path id="Tracciato_74221" data-name="Tracciato 74221" d="M110.277,43.924c2.173,5.684,8.974,4.442,10.986,10.482s-3.234,13.076-3.506,13.726" fill="none" stroke="#1976d2" stroke-width="2"/>
        <path id="Tracciato_74222" data-name="Tracciato 74222" d="M110.934,49.525c2.883,1.845,4.73,3.878,2.718,9.918s.611,8.188.611,8.188" transform="translate(16 -6)" fill="none" stroke="#1976d2" stroke-width="2"/>
        <line id="Linea_3009" data-name="Linea 3009" x2="33" transform="translate(104 43.496)" fill="none" stroke="#213366" stroke-width="1.7"/>
        <path id="Tracciato_74223" data-name="Tracciato 74223" d="M-.88,6.364A25.982,25.982,0,0,0,15.226,7.988a25.829,25.829,0,0,0,13.326-8.1" transform="translate(104 59.996)" fill="none" stroke="#213366" stroke-width="1.7"/>
      </g>
    </g>
    <g id="Rettangolo_164146" data-name="Rettangolo 164146" transform="translate(132 32)" fill="none" stroke="#213366" stroke-width="2">
      <rect width="80" height="80" rx="40" stroke="none"/>
      <rect x="1" y="1" width="78" height="78" rx="39" fill="none"/>
    </g>
  </g>
</svg>
