<svg xmlns="http://www.w3.org/2000/svg" width="20" height="20" viewBox="0 0 20 20">
  <path id="dns_FILL0_wght400_GRAD0_opsz48" d="M124.636,220.215a1.369,1.369,0,0,0-.983.385,1.246,1.246,0,0,0-.4.935,1.232,1.232,0,0,0,.406.932,1.386,1.386,0,0,0,.986.382,1.369,1.369,0,0,0,.983-.385,1.246,1.246,0,0,0,.4-.935,1.232,1.232,0,0,0-.406-.932A1.386,1.386,0,0,0,124.636,220.215Zm0,10.909a1.369,1.369,0,0,0-.983.385,1.246,1.246,0,0,0-.4.935,1.232,1.232,0,0,0,.406.932,1.386,1.386,0,0,0,.986.382,1.369,1.369,0,0,0,.983-.385,1.246,1.246,0,0,0,.4-.935,1.232,1.232,0,0,0-.406-.932A1.386,1.386,0,0,0,124.636,231.124ZM120.944,217h18.083a.987.987,0,0,1,.708.25.893.893,0,0,1,.264.68v7.08a1.148,1.148,0,0,1-.264.77.882.882,0,0,1-.708.311H120.944a.852.852,0,0,1-.681-.311,1.148,1.148,0,0,1-.264-.77v-7.08a.893.893,0,0,1,.264-.68A.948.948,0,0,1,120.944,217Zm.722,1.581v5.929h16.667v-5.929Zm-.722,9.3h17.972a1.042,1.042,0,0,1,.75.329,1.03,1.03,0,0,1,.333.752v6.956a.985.985,0,0,1-.333.8,1.144,1.144,0,0,1-.75.277H121.083a1.128,1.128,0,0,1-.764-.277,1.006,1.006,0,0,1-.319-.8v-6.956a1.169,1.169,0,0,1,.264-.752A.833.833,0,0,1,120.944,227.883Zm.722,1.581v5.955h16.667v-5.955Zm0-10.883v0Zm0,10.883v0Z" transform="translate(-120 -217)" fill="#fff"/>
</svg>
