<svg xmlns="http://www.w3.org/2000/svg" width="24" height="24" viewBox="0 0 24 24">
  <g id="search" transform="translate(4 12)">
    <rect id="Rettangolo_146242" data-name="Rettangolo 146242" width="24" height="24" transform="translate(-4 -12)" fill="none"/>
    <path id="format_list_bulleted_FILL0_wght400_GRAD0_opsz24" d="M4.5,19.5a1.5,1.5,0,1,1,0-3,1.5,1.5,0,1,1,0,3ZM8,19V17H21v2ZM4.5,13.5a1.5,1.5,0,1,1,0-3,1.5,1.5,0,1,1,0,3ZM8,13V11H21v2ZM4.5,7.5A1.5,1.5,0,0,1,3,6,1.5,1.5,0,0,1,4.5,4.5,1.5,1.5,0,0,1,6,6,1.5,1.5,0,0,1,4.5,7.5ZM8,7V5H21V7Z" transform="translate(-4 -11.5)" fill="#d93830"/>
  </g>
</svg>
