<svg xmlns="http://www.w3.org/2000/svg" width="80" height="80" viewBox="0 0 80 80">
  <g id="Raggruppa_28680" data-name="Raggruppa 28680" transform="translate(-132 -32)">
    <g id="logo" transform="translate(109)">
      <rect id="Rettangolo_145801" data-name="Rettangolo 145801" width="80" height="80" transform="translate(23 32)" fill="none"/>
      <g id="noun-electric-pylons-1543806" transform="translate(-68.858 5.747)">
        <path id="Tracciato_73442" data-name="Tracciato 73442" d="M160.2,71.393a.662.662,0,0,0,0-1.325h-1.387v-.662H160.2a.662.662,0,0,0,0-1.325h-1.387V66.858c0-.02-.01-.036-.011-.055a.625.625,0,0,0-.03-.145.592.592,0,0,0-.036-.094.66.66,0,0,0-.077-.116.683.683,0,0,0-.065-.075.647.647,0,0,0-.115-.079.687.687,0,0,0-.091-.05c-.009,0-.014-.01-.023-.013l-8.949-3.024V61.212a.431.431,0,0,0-.007-.053.52.52,0,0,0-.01-.075.759.759,0,0,0-.03-.1c-.006-.015-.007-.032-.014-.047s-.009-.012-.012-.018-.006-.018-.011-.026l-2.461-4.441a.679.679,0,0,0-1.145,0l-2.46,4.441c0,.006-.005.015-.009.021s-.007.009-.01.014a.41.41,0,0,0-.015.047.659.659,0,0,0-.033.106c-.005.024-.007.049-.01.073s-.008.041-.008.061v8.065c-7.126-1.151-12.687-6.439-15.7-14.914h11.643v.476h-1.4a.662.662,0,0,0,0,1.325h1.4v.662h-1.4a.662.662,0,0,0,0,1.325h1.4v.662h-1.4a.662.662,0,0,0,0,1.325h1.4v.284a.656.656,0,1,0,1.312,0v-.284h1.4a.662.662,0,0,0,0-1.325h-1.4v-.662h1.4a.662.662,0,0,0,0-1.325h-1.4v-.662h1.4a.662.662,0,0,0,0-1.325h-1.4V53.7a.536.536,0,0,0-.012-.055.647.647,0,0,0-.029-.145.555.555,0,0,0-.036-.094.636.636,0,0,0-.077-.116.6.6,0,0,0-.065-.075.645.645,0,0,0-.115-.079.715.715,0,0,0-.091-.05c-.009,0-.014-.01-.023-.013L126.762,48.6a.665.665,0,0,0-.1-.012V45.426a.459.459,0,0,0-.007-.054.66.66,0,0,0-.009-.073.726.726,0,0,0-.03-.1c-.006-.016-.007-.032-.014-.048a.148.148,0,0,0-.013-.02c0-.008-.006-.017-.01-.024l-3.607-6.51a.653.653,0,0,0-1.146,0l-3.607,6.51c0,.006,0,.014-.008.02s-.008.01-.011.015a.494.494,0,0,0-.015.049.619.619,0,0,0-.033.1c-.005.024-.007.049-.01.073s-.008.041-.008.061v12.6L105.36,62.344c-.009,0-.015.01-.024.013a.669.669,0,0,0-.089.049.687.687,0,0,0-.117.079.618.618,0,0,0-.064.074.635.635,0,0,0-.079.118.537.537,0,0,0-.035.093.641.641,0,0,0-.029.145.454.454,0,0,0-.012.056v1.464h-1.4a.662.662,0,0,0,0,1.325h1.4v.662h-1.4a.662.662,0,0,0,0,1.325h1.4v.662h-1.4a.662.662,0,0,0,0,1.325h1.4v.246a.656.656,0,1,0,1.312,0v-.246h1.4a.662.662,0,0,0,0-1.325h-1.4v-.662h1.4a.662.662,0,0,0,0-1.325h-1.4v-.662h1.4a.662.662,0,0,0,0-1.325h-1.4v-.8h11.915v3.057l-2.726,26.627h-7.55a.662.662,0,0,0,0,1.325h50.831a.662.662,0,0,0,0-1.325h-7.472l-.417-4.073c0-.018,0-.036-.006-.054l-1.38-13.483V67.522H157.5v.562h-1.408a.662.662,0,0,0,0,1.325H157.5v.662h-1.408a.662.662,0,0,0,0,1.325H157.5v.662h-1.408a.662.662,0,0,0,0,1.325h1.459a.653.653,0,0,0,1.211,0H160.2a.662.662,0,0,0,0-1.325h-1.387v-.662ZM149.381,88.217l-4.969-2.229,4.533-2.023Zm-2.275-21.794h-1.85l.953-1.138Zm-1.9-4.546h2.148L146.242,63.2Zm2.18,5.871-1.14,1.413-1.072-1.413Zm.725,1.2v2.674L147.06,70.24Zm-.97,3.574h-1.915l.987-1.223Zm-.289,1.324-.638.626-.678-.626Zm-.611,2.445,1.062.98h-2.064Zm.8,2.305-.8.714-.832-.714Zm-.784,2.469,1.474,1.266H144.83Zm2.436.354-1.443-1.241,1.206-1.078Zm-.527-5.149-.978-.9.928-.91Zm-.051-10.7-1.033-1.312,1.033-1.232Zm-1.8-7.436,1.343,2.423H144.96Zm-1.8,4.981.88,1.118-.88,1.049Zm0,5.928.892,1.177L144.5,71.32Zm0,5.645.769.709-.811.794Zm-.355,4.569,1.1.944-1.314,1.174Zm-.451,4.4H146.4l-2.837,1.266Zm-.339,3.308,3.707,1.663h-3.877Zm-.167-14.442h-4.34l4.34-1.466Zm-16.52-22.551,9.092,3.072h-9.092Zm.608,35.542-8.4-3.766,7.661-3.419Zm-3.061-32.138h-4l2.064-2.463Zm-4.059-7.282H124.6l-2.29,2.732Zm4.475,8.606-2.323,2.879L120.123,54.7Zm.725,1.2v5.7l-2.228-2.939Zm-1.109,6.416h-4.069l2.1-2.6Zm-.289,1.324-1.684,1.65-1.787-1.65ZM122.3,67.1l2.351,2.17h-4.565Zm1.981,3.5L122.3,72.363,120.249,70.6Zm-1.959,3.517,2.995,2.574h-5.877Zm3.957,1.662-2.965-2.548,2.478-2.214Zm-.769-7.5-2.268-2.093,2.113-2.07Zm-.155-15.58-2.216-2.814,2.216-2.643ZM122.4,40.274l2.489,4.492h-4.978Zm-2.951,7.05,1.991,2.528-1.991,2.374Zm0,8.664,2,2.642-2,2.481Zm0,8.487,1.878,1.733L119.3,68.192Zm-.46,6.781,2.32,1.994-2.778,2.481Zm-9.4-8.945,8.545-2.887v2.887Zm8.7,15.7h5.693l-5.965,2.662Zm-.481,4.7,7.134,3.2H117.49Zm-.463,4.524h8.2l-8.708,4.978Zm.23,6.077,9.908-5.664.581,5.664Zm11.807,0-2.726-26.627V55.916c3.029,7.7,8.185,12.712,14.74,14.344l-6.793,2.295c-.009,0-.015.01-.024.014a.581.581,0,0,0-.088.048.644.644,0,0,0-.118.08.719.719,0,0,0-.065.074.627.627,0,0,0-.077.117.712.712,0,0,0-.037.095.68.68,0,0,0-.029.145c0,.019-.011.036-.011.056l0,1.184h-1.4a.662.662,0,0,0,0,1.325h1.4v.662h-1.4a.662.662,0,0,0,0,1.325h1.4v.662h-1.405a.662.662,0,0,0,0,1.325h1.457a.655.655,0,0,0,.606.411h0a.657.657,0,0,0,.606-.414h1.437a.662.662,0,0,0,0-1.325h-1.39v-.662h1.391a.662.662,0,0,0,0-1.325h-1.393V75.69h1.394a.662.662,0,0,0,0-1.325h-1.4v-.521h7.71v1.864l-1.8,17.61Zm13.656-3.37h4.614l-4.9,2.8Zm6.553.413.3,2.957h-5.475ZM149.419,66.2V64.6l4.715,1.593Z" transform="translate(0)" fill="#1976d2"/>
      </g>
    </g>
    <g id="Rettangolo_164143" data-name="Rettangolo 164143" transform="translate(132 32)" fill="none" stroke="#1976d2" stroke-width="2">
      <rect width="80" height="80" rx="40" stroke="none"/>
      <rect x="1" y="1" width="78" height="78" rx="39" fill="none"/>
    </g>
  </g>
</svg>
