<svg xmlns="http://www.w3.org/2000/svg" width="80" height="80" viewBox="0 0 80 80">
  <g id="Raggruppa_28689" data-name="Raggruppa 28689" transform="translate(-132 -32)">
    <g id="logo" transform="translate(109)">
      <rect id="Rettangolo_145801" data-name="Rettangolo 145801" width="80" height="80" transform="translate(23 32)" fill="none"/>
      <g id="noun-energy-1119031" transform="translate(-52.541 26.461)">
        <path id="Tracciato_73504" data-name="Tracciato 73504" d="M181.381,225.85h-34a2.006,2.006,0,0,1-2-2v-30h38v30a2.005,2.005,0,0,1-2,2Zm-34-30v28h34v-28Z" transform="translate(-48.841 -156.312)" fill="#d21919"/>
        <path id="Tracciato_73505" data-name="Tracciato 73505" d="M137.54,120.136h-44a1.907,1.907,0,0,1-2-1.8v-3.2a1.88,1.88,0,0,1,1.9-1.8l19.6-2.8a20.924,20.924,0,0,1,5,0l19.6,2.8a1.817,1.817,0,0,1,1.9,1.8v3.2a1.907,1.907,0,0,1-2,1.8Zm-44-2h44v-2.8h-.1l-19.7-2.8a16.219,16.219,0,0,0-4.4,0l-19.8,2.8Z" transform="translate(0 -80.598)" fill="#d21919"/>
        <path id="Tracciato_73506" data-name="Tracciato 73506" d="M272.793,261.1c-.2,0-.3,0-.4-.1a.947.947,0,0,1-.5-1.1l1.8-9.8h-3.5a.874.874,0,0,1-.9-.6.913.913,0,0,1,.2-1.1l11.5-11a.92.92,0,0,1,1.2-.1,1.148,1.148,0,0,1,.4,1.2l-3.1,8.1h4.8a.874.874,0,0,1,.9.6,1.09,1.09,0,0,1-.2,1.1l-11.5,12.5a.907.907,0,0,1-.7.3Zm-.2-13h2.2a.91.91,0,0,1,.8.4.778.778,0,0,1,.2.8l-1.4,7.6,7.6-8.3h-4a1.234,1.234,0,0,1-.8-.4.973.973,0,0,1-.1-.9l2-5.2Z" transform="translate(-161.152 -195.561)" fill="#d21919"/>
        <path id="Tracciato_73507" data-name="Tracciato 73507" d="M146.38,34.138a1.86,1.86,0,0,1-.7-.2,1.137,1.137,0,0,1-.3-.8v-8.9a2.507,2.507,0,1,1,5,0v8.5a1.064,1.064,0,0,1-.9,1l-3,.4h-.1Zm1.5-10.6a.682.682,0,0,0-.5.7v7.8l1-.1v-7.7a.682.682,0,0,0-.5-.7Z" transform="translate(-48.84 0)" fill="#d21919"/>
        <path id="Tracciato_73508" data-name="Tracciato 73508" d="M123.078,55.847h-9a1,1,0,1,1,0-2h9a1,1,0,1,1,0,2Z" transform="translate(-19.537 -29.309)" fill="#d21919"/>
        <path id="Tracciato_73509" data-name="Tracciato 73509" d="M123.078,98.92h-9a1,1,0,0,1,0-2h9a1,1,0,1,1,0,2Z" transform="translate(-19.537 -68.382)" fill="#d21919"/>
        <path id="Tracciato_73510" data-name="Tracciato 73510" d="M504.772,34.138h-.1l-3-.4a1.063,1.063,0,0,1-.9-1v-8.5a2.507,2.507,0,1,1,5,0v8.9a1.137,1.137,0,0,1-.3.8A.954.954,0,0,1,504.772,34.138Zm-2-2.3,1,.1v-7.7a.529.529,0,1,0-1,0Z" transform="translate(-371.231)" fill="#d21919"/>
        <path id="Tracciato_73511" data-name="Tracciato 73511" d="M478.458,55.843h-9a1,1,0,0,1,0-2h9a1,1,0,1,1,0,2Z" transform="translate(-341.918 -29.305)" fill="#d21919"/>
        <path id="Tracciato_73512" data-name="Tracciato 73512" d="M478.458,98.92h-9a1,1,0,0,1,0-2h9a1,1,0,0,1,0,2Z" transform="translate(-341.918 -68.382)" fill="#d21919"/>
      </g>
    </g>
    <g id="Rettangolo_164143" data-name="Rettangolo 164143" transform="translate(132 32)" fill="none" stroke="#d21919" stroke-width="2">
      <rect width="80" height="80" rx="40" stroke="none"/>
      <rect x="1" y="1" width="78" height="78" rx="39" fill="none"/>
    </g>
  </g>
</svg>
