<svg xmlns="http://www.w3.org/2000/svg" width="80" height="80" viewBox="0 0 80 80">
  <g id="Raggruppa_28676" data-name="Raggruppa 28676" transform="translate(-132 -32)">
    <g id="logo" transform="translate(109)">
      <rect id="Rettangolo_145801" data-name="Rettangolo 145801" width="80" height="80" transform="translate(23 32)" fill="none"/>
      <g id="Raggruppa_28691" data-name="Raggruppa 28691" transform="translate(39.447 47.794)">
        <g id="Raggruppa_28692" data-name="Raggruppa 28692" transform="translate(0 0)">
          <path id="Tracciato_74254" data-name="Tracciato 74254" d="M36.155,61.147h-6l1.847-27.7a1.153,1.153,0,0,1,2.3,0Z" transform="translate(-16.087 -17.266)" fill="none" stroke="#1976d2" stroke-width="1.5"/>
          <path id="Tracciato_74255" data-name="Tracciato 74255" d="M34.2,18.9V1.591a.591.591,0,0,1,1.172-.108l2.4,12.85L35.985,18.9Z" transform="translate(-18.243 -0.533)" fill="#fff" stroke="#1976d2" stroke-width="1.5"/>
          <path id="Tracciato_74256" data-name="Tracciato 74256" d="M34.2,18.9V1.591a.591.591,0,0,1,1.172-.108l2.4,12.85L35.985,18.9Z" transform="translate(-18.243 -0.533)" fill="none" stroke="#1976d2" stroke-width="1.5"/>
          <path id="Tracciato_74257" data-name="Tracciato 74257" d="M17.281,42.433,2.288,51.09a.591.591,0,0,1-.68-.961l9.93-8.5,4.852-.741Z" transform="translate(-0.747 -21.809)" fill="none" stroke="#1976d2" stroke-width="1.5"/>
          <path id="Tracciato_74258" data-name="Tracciato 74258" d="M45.024,44.785l7.949,4.589a.591.591,0,0,1-.492,1.069L40.155,46.095l-3.068-3.831.892-1.545,5.095,2.941" transform="translate(-19.782 -21.719)" fill="none" stroke="#1976d2" stroke-width="1.5"/>
          <path id="Tracciato_74259" data-name="Tracciato 74259" d="M36.225,38.959a2.513,2.513,0,1,1-2.513-2.513,2.513,2.513,0,0,1,2.513,2.513" transform="translate(-16.641 -19.44)" fill="#fff" stroke="#1976d2" stroke-width="1.5"/>
          <path id="Tracciato_74260" data-name="Tracciato 74260" d="M36.225,38.959a2.513,2.513,0,1,1-2.513-2.513A2.513,2.513,0,0,1,36.225,38.959Z" transform="translate(-16.641 -19.44)" fill="none" stroke="#1976d2" stroke-width="1.5"/>
          <path id="Tracciato_74261" data-name="Tracciato 74261" d="M31.4,88.99H1c0-6.647,7.785-12.04,17.389-12.04s17.385,5.393,17.385,12.04" transform="translate(-0.533 -41.045)" fill="#fff" stroke="#1976d2" stroke-width="1.5"/>
          <path id="Tracciato_74262" data-name="Tracciato 74262" d="M31.4,88.99H1c0-6.647,7.785-12.04,17.389-12.04s17.385,5.393,17.385,12.04" transform="translate(-0.533 -41.045)" fill="none" stroke="#1976d2" stroke-width="1.5"/>
          <path id="Tracciato_74263" data-name="Tracciato 74263" d="M14.115,88.03a17.83,17.83,0,0,1,9.27-2.377c7.186,0,13.013,3.574,13.013,7.979H10.367a5.811,5.811,0,0,1,1.744-3.991" transform="translate(-5.53 -45.687)" fill="#fff" stroke="#1976d2" stroke-width="1.5"/>
          <path id="Tracciato_74264" data-name="Tracciato 74264" d="M14.115,88.03a17.83,17.83,0,0,1,9.27-2.377c7.186,0,13.013,3.574,13.013,7.979H10.367a5.811,5.811,0,0,1,1.744-3.991" transform="translate(-5.53 -45.687)" fill="none" stroke="#1976d2" stroke-width="1.5"/>
          <path id="Tracciato_74265" data-name="Tracciato 74265" d="M23.611,63.256a12.052,12.052,0,0,1-5.2-3.029" transform="translate(-9.823 -32.125)" fill="none" stroke="#1976d2" stroke-width="1.5"/>
          <path id="Tracciato_74266" data-name="Tracciato 74266" d="M49.639,60.857a12.072,12.072,0,0,1-3.9,2.409" transform="translate(-24.399 -32.461)" fill="none" stroke="#1976d2" stroke-width="1.5"/>
          <path id="Tracciato_74267" data-name="Tracciato 74267" d="M58.023,27.376a12.008,12.008,0,0,1,2.061,6.745" transform="matrix(0.951, -0.309, 0.309, 0.951, -40.197, 3.48)" fill="none" stroke="#1976d2" stroke-width="1.5"/>
          <path id="Tracciato_74268" data-name="Tracciato 74268" d="M13.644,23.387a12.1,12.1,0,0,1,6.373-5.694" transform="translate(-7.278 -9.437)" fill="none" stroke="#1976d2" stroke-width="1.5"/>
          <path id="Tracciato_74269" data-name="Tracciato 74269" d="M17.579,35.413q-.019-.293-.019-.591a8.847,8.847,0,0,1,2.459-6.132" transform="translate(-9.366 -15.303)" fill="none" stroke="#1976d2" stroke-width="1.5"/>
          <path id="Tracciato_74270" data-name="Tracciato 74270" d="M24.817,56.537a8.913,8.913,0,0,1-1.985-1.559" transform="translate(-12.179 -29.325)" fill="none" stroke="#1976d2" stroke-width="1.5"/>
          <path id="Tracciato_74271" data-name="Tracciato 74271" d="M47.243,57.954a8.871,8.871,0,0,1-1.5.755" transform="translate(-24.398 -30.913)" fill="none" stroke="#1976d2" stroke-width="1.5"/>
          <path id="Tracciato_74273" data-name="Tracciato 74273" d="M37.172,97.86H21.943c0-2.362,3.409-4.281,7.617-4.281s7.613,1.918,7.613,4.281" transform="translate(-11.704 -49.915)" fill="#fff" stroke="#1976d2" stroke-width="1.5"/>
          <path id="Tracciato_74274" data-name="Tracciato 74274" d="M37.172,97.86H21.943c0-2.362,3.409-4.281,7.617-4.281S37.172,95.5,37.172,97.86Z" transform="translate(-11.704 -49.915)" fill="none" stroke="#1976d2" stroke-width="1.5"/>
          <path id="Tracciato_74281" data-name="Tracciato 74281" d="M51.67,95.872H39c0-3.324,6.368-6.02,14.224-6.02s14.221,2.7,14.221,6.02H56.04" transform="translate(-20.8 -47.927)" fill="#fff" stroke="#1976d2" stroke-width="1.5"/>
          <path id="Tracciato_74282" data-name="Tracciato 74282" d="M51.67,95.872H39c0-3.324,6.368-6.02,14.224-6.02s14.221,2.7,14.221,6.02H56.04" transform="translate(-20.8 -47.927)" fill="none" stroke="#1976d2" stroke-width="1.5"/>
          <path id="Tracciato_74283" data-name="Tracciato 74283" d="M44.689,24.615A8.914,8.914,0,0,1,48.756,28.5" transform="translate(3.335 -9.569) rotate(13)" fill="none" stroke="#1976d2" stroke-width="1"/>
          <g id="Raggruppa_28693" data-name="Raggruppa 28693" transform="translate(28.796 19.2)">
            <g id="Raggruppa_28692-2" data-name="Raggruppa 28692" transform="translate(0.654 0.467)">
              <path id="Tracciato_74254-2" data-name="Tracciato 74254" d="M33.234,47.125H30.16l.947-14.2a.591.591,0,0,1,1.18,0Z" transform="translate(-23.28 -24.864)" fill="none" stroke="#1976d2" stroke-width="0.9"/>
              <path id="Tracciato_74255-2" data-name="Tracciato 74255" d="M34.2,10.18V1.3a.3.3,0,0,1,.6-.056l1.229,6.589-.915,2.344Z" transform="translate(-26.354 -1)" fill="#fff" stroke="#1976d2" stroke-width="0.9"/>
              <path id="Tracciato_74256-2" data-name="Tracciato 74256" d="M34.2,10.18V1.3a.3.3,0,0,1,.6-.056l1.229,6.589-.915,2.344Z" transform="translate(-26.354 -1)" fill="none" stroke="#1976d2" stroke-width="0.9"/>
              <path id="Tracciato_74257-2" data-name="Tracciato 74257" d="M9.544,41.68,1.856,46.118a.3.3,0,0,1-.349-.493L6.6,41.267l2.488-.38Z" transform="translate(-1.401 -31.344)" fill="none" stroke="#1976d2" stroke-width="0.9"/>
              <path id="Tracciato_74258-2" data-name="Tracciato 74258" d="M41.157,42.8l4.076,2.353a.3.3,0,0,1-.252.548l-6.32-2.23L37.087,41.51l.457-.792,2.612,1.508" transform="translate(-28.549 -31.216)" fill="none" stroke="#1976d2" stroke-width="0.9"/>
              <path id="Tracciato_74259-2" data-name="Tracciato 74259" d="M33.775,37.735a1.289,1.289,0,1,1-1.289-1.289,1.289,1.289,0,0,1,1.289,1.289" transform="translate(-24.069 -27.966)" fill="#fff" stroke="#1976d2" stroke-width="0.9"/>
              <path id="Tracciato_74260-2" data-name="Tracciato 74260" d="M33.775,37.735a1.289,1.289,0,1,1-1.289-1.289A1.289,1.289,0,0,1,33.775,37.735Z" transform="translate(-24.069 -27.966)" fill="none" stroke="#1976d2" stroke-width="0.9"/>
            </g>
          </g>
        </g>
      </g>
    </g>
    <g id="Rettangolo_164143" data-name="Rettangolo 164143" transform="translate(132 32)" fill="none" stroke="#1976d2" stroke-width="2">
      <rect width="80" height="80" rx="40" stroke="none"/>
      <rect x="1" y="1" width="78" height="78" rx="39" fill="none"/>
    </g>
  </g>
</svg>
