<svg id="Raggruppa_26989" data-name="Raggruppa 26989" xmlns="http://www.w3.org/2000/svg" width="24" height="24" viewBox="0 0 24 24">
  <rect id="Rettangolo_146424" data-name="Rettangolo 146424" width="24" height="24" fill="none"/>
  <path id="Icon_awesome-file-export" data-name="Icon awesome-file-export" d="M14,4.762a.969.969,0,0,0-.255-.66L10.176.273A.846.846,0,0,0,9.557,0H9.334V5H14Zm6.818,7.27L17.33,8.266a.581.581,0,0,0-1,.441V11.25H14v2.5h2.334V16.3a.581.581,0,0,0,1,.441l3.489-3.77A.7.7,0,0,0,20.82,12.031ZM7,13.125v-1.25a.607.607,0,0,1,.583-.625H14v-5H9.042a.911.911,0,0,1-.875-.937V0H.875A.906.906,0,0,0,0,.937V19.062A.906.906,0,0,0,.875,20H13.126A.906.906,0,0,0,14,19.062V13.75H7.584A.607.607,0,0,1,7,13.125Z" transform="translate(2 2)" fill="#1976d2"/>
</svg>
