<?xml version="1.0" encoding="UTF-8"?>
<svg id="Raggruppa_26989" data-name="Raggruppa 26989" xmlns="http://www.w3.org/2000/svg" viewBox="0 0 24 24">
  <defs>
    <style>
      .cls-1 {
        fill: none;
      }

      .cls-1, .cls-2 {
        stroke-width: 0px;
      }

      .cls-2 {
        fill: #d93830;
      }
    </style>
  </defs>
  <rect id="Rettangolo_146424" data-name="Rettangolo 146424" class="cls-1" width="24" height="24"/>
  <path id="Icon_metro-filter" data-name="Icon metro-filter" class="cls-2" d="m12,3c-4.97,0-9,1.26-9,2.81v1.69l6.75,6.75v5.62c0,.62,1.01,1.12,2.25,1.12s2.25-.5,2.25-1.12v-5.62l6.75-6.75v-1.69c0-1.55-4.03-2.81-9-2.81Zm-7.34,2.44c.54-.29,1.12-.51,1.71-.66,1.84-.46,3.73-.68,5.63-.66,1.9-.02,3.79.2,5.63.66.59.15,1.17.37,1.71.66.19.1.35.22.5.37-.15.15-.31.28-.5.37-.54.29-1.12.51-1.71.66-1.84.46-3.73.68-5.63.66-1.9.02-3.79-.2-5.63-.66-.59-.15-1.17-.37-1.71-.66-.19-.1-.35-.22-.5-.37.15-.15.31-.28.5-.37h0Z"/>
</svg>