<svg id="Raggruppa_26989" data-name="Raggruppa 26989" xmlns="http://www.w3.org/2000/svg" width="24" height="24" viewBox="0 0 24 24">
  <rect id="Rettangolo_146424" data-name="Rettangolo 146424" width="24" height="24" fill="none"/>
  <path id="Icon_metro-filter" data-name="Icon metro-filter" d="M11.571,1.928c-4.971,0-9,1.259-9,2.813V6.428l6.75,6.75V18.8c0,.621,1.007,1.125,2.25,1.125s2.25-.5,2.25-1.125V13.178l6.75-6.75V4.741c0-1.553-4.029-2.813-9-2.813ZM4.23,4.368a7.656,7.656,0,0,1,1.71-.659,22.188,22.188,0,0,1,5.631-.656,22.188,22.188,0,0,1,5.631.656,7.657,7.657,0,0,1,1.71.659,1.957,1.957,0,0,1,.5.372,1.958,1.958,0,0,1-.5.372,7.657,7.657,0,0,1-1.71.659,22.187,22.187,0,0,1-5.631.656A22.188,22.188,0,0,1,5.94,5.772a7.656,7.656,0,0,1-1.71-.659,1.959,1.959,0,0,1-.5-.372,1.959,1.959,0,0,1,.5-.372Z" transform="translate(0.429 1.072)" fill="#1976d2"/>
</svg>
