<svg xmlns="http://www.w3.org/2000/svg" viewBox="0 0 1177.46 1551.07"><defs><style>.cls-1{fill:#fff;}</style></defs><g id="Livello_2" data-name="Livello 2"><g id="VECTOR_ILLUSTRATION_-_copie" data-name="VECTOR ILLUSTRATION - copie"><path class="cls-1" d="M852,1376.73a25,25,0,0,1-25-25V1093.88a25,25,0,0,1,50,0v257.85A25,25,0,0,1,852,1376.73Z"/><path class="cls-1" d="M854,1128.72l-16.22-14.09s-.8-.69-2.32-2l-.1-.09c-8.16-7.31-37.11-34.32-67.26-75.17a25,25,0,1,1,40.23-29.69,495.63,495.63,0,0,0,45.85,53.68,496.44,496.44,0,0,0,53.15-63.87c19.9-28.49,35.8-57.83,47.27-87.22,14.12-36.15,21.53-72.49,22-108C977.85,714,936.68,628.8,854.18,548.75,819,582.92,791.09,618.24,771.11,654a25,25,0,1,1-43.64-24.39c25.71-46,62.71-91,110-133.63l16.75-15.12L870.93,496c105,94.77,157.34,198.18,155.68,307.37-.64,41.76-9.34,84.22-25.86,126.19-13.06,33.17-31,66.11-53.37,97.91-37.94,54-75.44,86-77,87.39Z"/><path class="cls-1" d="M718.94,738.57a25,25,0,0,1-24-32,350.75,350.75,0,0,1,17.28-46.72,25,25,0,1,1,45.56,20.59,301,301,0,0,0-14.81,40A25,25,0,0,1,718.94,738.57Z"/><path class="cls-1" d="M322.15,1376.73a25,25,0,0,1-25-25V1135a25,25,0,0,1,50,0v216.78A25,25,0,0,1,322.15,1376.73Z"/><path class="cls-1" d="M321.8,1160C255.35,1160,200,1111.6,189,1048.23c-63.36-11-111.71-66.33-111.71-132.78a134.74,134.74,0,0,1,34.61-90.1,134.84,134.84,0,0,1-34.61-90.12c0-66,47.73-121.09,110.5-132.53,7.18-67.58,64.54-120.4,134-120.4,72.63,0,132,57.75,134.66,129.74a25,25,0,0,1-21.58,38.53h-.06c-1.09,0-2.18-.05-3.27-.05H404.1l2.15-27c.2-2.61.3-4.67.3-6.48a84.75,84.75,0,0,0-169.5,0c0,2.16.15,4.53.3,6.76l1.82,26.71H212.05a84.72,84.72,0,0,0-48.31,154.33l29.45,20.52-29.46,20.51a84.72,84.72,0,0,0,48.32,154.32h25v25A84.85,84.85,0,0,0,321.8,1110h.35a84.89,84.89,0,0,0,84.4-84.75v-25h25a84,84,0,0,0,18.75-2.09,25,25,0,1,1,11.14,48.74q-3.4.78-6.86,1.38c-10.95,63.17-66.13,111.51-132.35,111.72Z"/><path class="cls-1" d="M152,383.85a25,25,0,0,1-17.67-42.68l81.34-81.31A25,25,0,1,1,251,295.22l-81.33,81.31A24.93,24.93,0,0,1,152,383.85Z"/><path class="cls-1" d="M347.27,188.61a25,25,0,0,1-17.68-42.68L410.9,64.6A25,25,0,1,1,446.26,100L365,181.28A24.93,24.93,0,0,1,347.27,188.61Z"/><path class="cls-1" d="M233.34,188.61a24.93,24.93,0,0,1-17.68-7.32L134.32,100a25,25,0,0,1,35.36-35.36L251,145.93a25,25,0,0,1-17.68,42.68Z"/><path class="cls-1" d="M428.58,383.85a24.89,24.89,0,0,1-17.68-7.33l-81.3-81.3A25,25,0,1,1,365,259.86l81.31,81.31a25,25,0,0,1-17.68,42.68Z"/><path class="cls-1" d="M290.29,165a25,25,0,0,1-25-25V25a25,25,0,0,1,50,0V140A25,25,0,0,1,290.29,165Z"/><path class="cls-1" d="M290.29,441.15a25,25,0,0,1-25-25v-115a25,25,0,0,1,50,0v115A25,25,0,0,1,290.29,441.15Z"/><path class="cls-1" d="M485.88,245.56h-115a25,25,0,0,1,0-50h115a25,25,0,0,1,0,50Z"/><path class="cls-1" d="M209.72,245.56h-115a25,25,0,0,1,0-50h115a25,25,0,0,1,0,50Z"/><path class="cls-1" d="M290.29,326.13a104.86,104.86,0,0,1-74.63-30.91l-7.32-7.32v-.82A105.55,105.55,0,0,1,356.81,138.61h.79l7.35,7.32a105.59,105.59,0,0,1,0,149.27l0,0A105,105,0,0,1,290.29,326.13Zm57-48.59h0Zm-95.15-16.6a55.56,55.56,0,0,0,78.47-78.63l-1-1A55.54,55.54,0,1,0,251,259.85Z"/><path class="cls-1" d="M1152.44,1551.07a24.92,24.92,0,0,1-15.74-5.59c-95.09-77.17-193.74-134.32-293.2-169.86-91.6-32.72-185.57-47.73-279.33-44.63-77.91,2.58-156.49,17.65-233.55,44.8-91.81,32.34-165.23,76.31-210.66,107.5-49.42,33.94-77.38,60.55-77.66,60.82A25,25,0,0,1,7.67,1508c1.22-1.17,30.47-29.11,82.9-65.22C138.69,1409.68,216.5,1363,314,1328.63c81.87-28.85,165.49-44.87,248.51-47.61,100.06-3.32,200.25,12.67,297.8,47.52,104.8,37.44,208.39,97.37,307.89,178.11a25,25,0,0,1-15.77,44.42Z"/><path class="cls-1" d="M586.33,1319.78a25,25,0,0,1-25-25v-272.3a25,25,0,0,1,50,0v272.3A25,25,0,0,1,586.33,1319.78Z"/><path class="cls-1" d="M893.87,1047.48H282.11l120.46-180H331L439.07,695.19H369.4L396.55,645q8.77-16.2,16.93-31.3c14.81-27.36,28.9-53.37,42.12-77.76C513.43,429.21,559.11,344.9,564.1,333.87a25.77,25.77,0,0,1,46.14-1.6c95.23,176,140.58,259.81,161,297.61l2.25,4.17c4,7.43,12.11,22.43,13,24.09l20.74,37.05H736.92L845,867.52H773.42Zm-518.12-50H800.24l-120.46-180H754.6L646.54,645.19h76.17c-20.46-37.79-60.22-111.27-134.76-249C570.1,429.54,541.16,483,499.56,559.77c-13.21,24.38-27.3,50.39-42.09,77.71-1.38,2.55-2.76,5.12-4.17,7.71h76.14L421.38,817.52H496.2Z"/><path class="cls-1" d="M762.38,691a25,25,0,0,1-21.86-12.84c-.3-.53-.85-1.51-1.43-2.78a25,25,0,0,1,45.08-21.61l.05.09A25,25,0,0,1,762.38,691Z"/><path class="cls-1" d="M762.06,690.44a25,25,0,0,1-22.71-14.53l-.2-.41a25,25,0,0,1,45.4-21l.19.41a25,25,0,0,1-22.68,35.49Z"/><path class="cls-1" d="M761.87,690A25,25,0,0,1,740,677.15l-.13-.24a25,25,0,0,1,42.93-25.63c.34.58.63,1.09.92,1.6A25,25,0,0,1,761.87,690Z"/><path class="cls-1" d="M854.44,516.9c6.94,1,67.38,59.45,67.38,59.45l60.44,106,19.82,94.13-10.9,114.93L945.6,991.5l-89.17,105-74.32-78.27,55.49-4L715.73,834,795,843.87,687,672.46l68.37-13.87,14.86-60.44L852.46,510l14.86,5"/><path class="cls-1" d="M319.4,506l-57.47,19.82s-38.64,40.62-38.64,43.59S210.41,616,210.41,616l-48.55,18.83-38.64,40.62S104.39,726,106.37,733.89s7.93,51.52,7.93,51.52l25.76,27.75-20.81,51.52s-18.82,43.6-14.86,49.54,18.83,62.42,18.83,62.42,27.74,24.77,33.68,28.74,55.49,15.85,55.49,15.85l14.86,50.53s52.52,54.5,55.49,57.47,43.59,9.91,46.57,8.92,49.54-26.76,49.54-26.76l35.67-27.74,17.83-62.42-124.84,3L451.18,840.9l-87.19,3,117.9-174.38-83.23,2,44.59-73.32-38.64-58.46L360,507,320.39,495.1l-18.83,1"/></g></g></svg>