<svg xmlns="http://www.w3.org/2000/svg" width="80" height="80" viewBox="0 0 80 80">
  <g id="Raggruppa_28677" data-name="Raggruppa 28677" transform="translate(-132 -32)">
    <g id="logo" transform="translate(109)">
      <rect id="Rettangolo_145801" data-name="Rettangolo 145801" width="80" height="80" transform="translate(23 32)" fill="none"/>
      <g id="noun-forest-2933511" transform="translate(-32.995 46.003)">
        <path id="Tracciato_73413" data-name="Tracciato 73413" d="M89.53,147.941l-7.617-6.094L74.3,147.941l-1.016-1.269,8.125-6.5a.812.812,0,0,1,1.016,0l8.125,6.5Z" transform="translate(-2.98 -126.998)" fill="#1976d2"/>
        <path id="Tracciato_73414" data-name="Tracciato 73414" d="M78.75,236.25h2.437v1.625H78.75Z" transform="translate(-7.942 -214.316)" fill="#1976d2"/>
        <path id="Tracciato_73415" data-name="Tracciato 73415" d="M201.25,236.25h26.812v1.625H201.25Z" transform="translate(-119.067 -214.316)" fill="#1976d2"/>
        <path id="Tracciato_73416" data-name="Tracciato 73416" d="M507.5,236.25h7.312v1.625H507.5Z" transform="translate(-396.88 -214.316)" fill="#1976d2"/>
        <path id="Tracciato_73417" data-name="Tracciato 73417" d="M603.75,236.25h1.625v1.625H603.75Z" transform="translate(-484.193 -214.316)" fill="#1976d2"/>
        <path id="Tracciato_73418" data-name="Tracciato 73418" d="M605.05,204.461l1.016-1.269,1.017.814-1.016,1.269Z" transform="translate(-485.372 -184.328)" fill="#1976d2"/>
        <path id="Tracciato_73419" data-name="Tracciato 73419" d="M467.174,147.851l-1.219-1.071,5.687-6.5a.812.812,0,0,1,1.119-.1l6.094,4.875-1.016,1.269-5.486-4.387Z" transform="translate(-359.193 -127.006)" fill="#1976d2"/>
        <path id="Tracciato_73420" data-name="Tracciato 73420" d="M206.347,128.917l-.834-1.394,7.074-4.225a5.331,5.331,0,0,1,4.571-.44l5.328,2.175-.614,1.5-5.3-2.166a3.7,3.7,0,0,0-3.152.325Z" transform="translate(-122.935 -111.161)" fill="#1976d2"/>
        <path id="Tracciato_73421" data-name="Tracciato 73421" d="M346.214,113.667l-1.12-1.178,6.783-6.452a3.973,3.973,0,0,1,5.281-.162l5.15,4.133-1.017,1.267-5.159-4.144a2.361,2.361,0,0,0-3.143.088Z" transform="translate(-249.555 -95.207)" fill="#1976d2"/>
        <path id="Tracciato_73422" data-name="Tracciato 73422" d="M322.09,196.134l1.282-1.219,1.12,1.178-1.282,1.219Z" transform="translate(-228.687 -176.819)" fill="#1976d2"/>
        <path id="Tracciato_73423" data-name="Tracciato 73423" d="M236.39,12.319A10.564,10.564,0,1,1,257.222,8.8l-1.6.269h0a8.939,8.939,0,0,0-17.628,2.979Z" transform="translate(-150.811)" fill="#1976d2"/>
        <path id="Tracciato_73424" data-name="Tracciato 73424" d="M483.062,324.121h-1.625V322.5h.533l-3.783-12.61L474.4,322.5h5.408v1.625h-6.5a.812.812,0,0,1-.778-1.046l4.875-16.25a.812.812,0,0,1,1.557,0l4.875,16.25a.812.812,0,0,1-.778,1.046Z" transform="translate(-365.13 -277.813)" fill="#1976d2"/>
        <path id="Tracciato_73425" data-name="Tracciato 73425" d="M451.126,271.634h-4.062a.813.813,0,0,1-.788-1.01l4.062-16.25a.813.813,0,0,1,1.591.074l1.625,10.562-1.605.244-1.012-6.576L448.1,270.009h3.022Z" transform="translate(-341.319 -230.2)" fill="#1976d2"/>
        <path id="Tracciato_73426" data-name="Tracciato 73426" d="M557.927,286.689h-4.875v-1.625H556.9l-2.187-9.295-1.679,7.84-1.589-.339,2.437-11.375h0a.812.812,0,0,1,.787-.643h.008a.812.812,0,0,1,.791.626l3.25,13.812a.813.813,0,0,1-.792,1Z" transform="translate(-436.745 -246.068)" fill="#1976d2"/>
        <path id="Tracciato_73427" data-name="Tracciato 73427" d="M408.19,293.01h-4.875a.813.813,0,0,1-.781-1.036l3.25-11.375a.813.813,0,0,1,1.562,0l2.321,8.125-1.563.446-1.54-5.39-2.173,7.6h3.8Z" transform="translate(-301.633 -254.014)" fill="#1976d2"/>
        <path id="Tracciato_73428" data-name="Tracciato 73428" d="M389.062,272.246h-3.25a.812.812,0,0,1-.778-1.046l2.437-8.125a.812.812,0,0,1,1.557,0l1.462,4.875-1.557.467-.684-2.281-1.345,4.485h2.158Z" transform="translate(-285.754 -238.125)" fill="#1976d2"/>
        <path id="Tracciato_73429" data-name="Tracciato 73429" d="M208.8,271.627h-6.5V270h5.459l-3.022-12.087-1.649,6.6-1.576-.395,2.437-9.75a.813.813,0,0,1,1.576,0l4.062,16.25a.813.813,0,0,1-.788,1.01Z" transform="translate(-119.304 -230.193)" fill="#1976d2"/>
        <path id="Tracciato_73430" data-name="Tracciato 73430" d="M135.312,504.437h-3.25a.813.813,0,0,1-.812-.812V498.75h1.625v4.062H134.5V498.75h1.625v4.875a.812.812,0,0,1-.812.813Z" transform="translate(-55.567 -452.442)" fill="#1976d2"/>
        <path id="Tracciato_73431" data-name="Tracciato 73431" d="M85.433,230.677a.812.812,0,0,1-.089,0l-7.223-.8-7.223.8h0a.813.813,0,0,1-.816-1.171l2.663-5.324H71.62A.813.813,0,0,1,70.893,223l2.373-4.746-.577.193a.813.813,0,0,1-.962-1.177l2.194-3.842-.42.141a.813.813,0,0,1-.984-1.137l1.561-3.121-.577.193a.813.813,0,0,1-.906-1.252l4.875-6.5a.842.842,0,0,1,1.3,0l4.875,6.5a.813.813,0,0,1-.907,1.259l-.577-.193,1.565,3.121a.813.813,0,0,1-.984,1.137l-.42-.141,2.194,3.842a.813.813,0,0,1-.962,1.174l-.577-.193L85.351,223a.813.813,0,0,1-.731,1.176H83.5l2.667,5.324a.813.813,0,0,1-.731,1.176ZM78.12,228.24a.812.812,0,0,1,.089,0l5.829.65-2.583-5.164a.812.812,0,0,1,.727-1.178h1.123l-2.662-5.324h0a.813.813,0,0,1,.984-1.137l.42.141-2.194-3.842a.813.813,0,0,1,.962-1.174l.577.193-1.561-3.121a.812.812,0,0,1,.954-1.14l-2.665-3.553-2.665,3.553a.812.812,0,0,1,.959,1.143l-1.565,3.121.577-.193a.813.813,0,0,1,.962,1.177l-2.194,3.842.42-.141a.813.813,0,0,1,.984,1.137l-2.663,5.318h1.123a.813.813,0,0,1,.731,1.176L72.2,228.89l5.829-.65a.725.725,0,0,1,.089,0Z" transform="translate(0 -182.744)" fill="#1976d2"/>
        <path id="Tracciato_73432" data-name="Tracciato 73432" d="M255.588,321.438l-1.575-.4a8.577,8.577,0,0,1,3.616-4.539l.91,1.347a7,7,0,0,0-2.951,3.592Z" transform="translate(-166.931 -287.113)" fill="#1976d2"/>
        <path id="Tracciato_73433" data-name="Tracciato 73433" d="M524.476,528.668A30.185,30.185,0,0,1,514.57,527l.531-1.536h0a28.57,28.57,0,0,0,9.375,1.582Z" transform="translate(-403.294 -476.672)" fill="#1976d2"/>
        <path id="Tracciato_73434" data-name="Tracciato 73434" d="M363.476,347.74c-7.7-3.22-13.5-9.545-13.5-14.711a9.883,9.883,0,0,1,.932-4.424l1.455.722h0a8.287,8.287,0,0,0-.762,3.7c0,3.924,4.676,9.937,12.5,13.212Z" transform="translate(-253.979 -298.096)" fill="#1976d2"/>
        <path id="Tracciato_73435" data-name="Tracciato 73435" d="M367.159,292.572l-1.336-.925h0a6.722,6.722,0,0,1,4.083-2.776l.268,1.6-.134-.8.138.8a5.079,5.079,0,0,0-3.02,2.1Z" transform="translate(-268.359 -262.051)" fill="#1976d2"/>
        <path id="Tracciato_73436" data-name="Tracciato 73436" d="M262.5,288.75h5.687v1.625H262.5Z" transform="translate(-174.63 -261.941)" fill="#1976d2"/>
        <path id="Tracciato_73437" data-name="Tracciato 73437" d="M603.75,288.75h1.625v1.625H603.75Z" transform="translate(-484.193 -261.941)" fill="#1976d2"/>
        <path id="Tracciato_73438" data-name="Tracciato 73438" d="M227.5,469.463v-1.625c4,0,5.745-.975,6.025-1.818.163-.487-.145-1.086-.825-1.595a9.052,9.052,0,0,1-2.892-3.568l1.484-.662h0a7.444,7.444,0,0,0,2.383,2.93,3.068,3.068,0,0,1,1.391,3.412c-.365,1.09-1.832,2.925-7.566,2.925Z" transform="translate(-142.88 -417.467)" fill="#1976d2"/>
        <path id="Tracciato_73439" data-name="Tracciato 73439" d="M341.25,288.75h1.625v1.625H341.25Z" transform="translate(-246.068 -261.941)" fill="#1976d2"/>
        <path id="Tracciato_73440" data-name="Tracciato 73440" d="M309.964,534.1l-1.149-1.149a2.57,2.57,0,0,0,.684-1.24l1.58.38a4.186,4.186,0,0,1-1.115,2.009Z" transform="translate(-216.644 -482.337)" fill="#1976d2"/>
        <path id="Tracciato_73441" data-name="Tracciato 73441" d="M317.177,506.653l-1.625-.069a4.3,4.3,0,0,0-.163-1.337l1.544-.51a5.775,5.775,0,0,1,.244,1.916Z" transform="translate(-222.609 -457.873)" fill="#1976d2"/>
      </g>
    </g>
    <g id="Rettangolo_164143" data-name="Rettangolo 164143" transform="translate(132 32)" fill="none" stroke="#1976d2" stroke-width="2">
      <rect width="80" height="80" rx="40" stroke="none"/>
      <rect x="1" y="1" width="78" height="78" rx="39" fill="none"/>
    </g>
  </g>
</svg>
