<svg id="Imposta_parametri_indicatore" data-name="Imposta parametri indicatore" xmlns="http://www.w3.org/2000/svg" width="24" height="24" viewBox="0 0 24 24">
  <rect id="Rettangolo_146242" data-name="Rettangolo 146242" width="24" height="24" fill="none"/>
  <path id="Sottrazione_2" data-name="Sottrazione 2" d="M-3296.659-4987H-3306v-2.461h9.016c-.011.147-.018.3-.018.461a5.969,5.969,0,0,0,.341,2Zm-.726-3.691h-2.461v-8.616h2.461v8.615Zm-3.691,0h-2.462v-3.692h2.462v3.691Zm4.922-1.382v-3.541h2.462v1.251a6.008,6.008,0,0,0-2.46,2.287Zm3.693-2.747h0V-5003H-3290v8.084a6.05,6.05,0,0,0-1-.083,6.019,6.019,0,0,0-1.46.179Z" transform="translate(3308 5006)" fill="#d93830"/>
  <path id="add_home_work_FILL0_wght400_GRAD0_opsz24" d="M18,21a4.993,4.993,0,0,1-5-5,4.993,4.993,0,0,1,5-5,4.992,4.992,0,0,1,5,5,4.992,4.992,0,0,1-5,5Zm-.5-2h1V16.5H21v-1H18.5V13h-1v2.5H15v1h2.5Z" transform="translate(-1 1)" fill="#d93830"/>
</svg>
