<svg xmlns="http://www.w3.org/2000/svg" width="80" height="80" viewBox="0 0 80 80">
  <g id="Raggruppa_28715" data-name="Raggruppa 28715" transform="translate(-132 -32)">
    <g id="logo" transform="translate(109)">
      <rect id="Rettangolo_145801" data-name="Rettangolo 145801" width="80" height="80" transform="translate(23 32)" fill="none"/>
      <g id="noun-factory-4584377" transform="translate(-47.833 15.179)">
        <path id="Tracciato_73484" data-name="Tracciato 73484" d="M136.24,42.134l-13.725-3.873a.813.813,0,0,0-1.033.785V43.79l-12.1,3.414v-2.8a.813.813,0,0,0-1.033-.785L95.658,47.2V43.018a.814.814,0,0,0-.813-.816h-9.2a.814.814,0,0,0-.813.816V74.6a.815.815,0,0,0,.813.816c.082-.055,47.664-.023,47.5,0h2.878a.814.814,0,0,0,.813-.816V42.92a.816.816,0,0,0-.593-.785Zm-13.132-2.011,12.1,3.414V69.565h-12.1c.051.059,0-8.625,0-8.624V40.123Zm-1.625,5.362v24.08c-1.217.23-12.077,0-12.1,0V48.9Zm-13.725,2.8V69.564h-12.1V48.9l12.1-3.414Zm0,22.915V73.78h-12.1V71.2ZM94.033,47.6V69.564H86.459V47.6Zm0-3.763v2.132H86.459V43.834ZM86.459,71.2h7.574V73.78H86.459Zm22.924,2.584v0Zm13.724.175V71.2h12.1V73.78h-3.014ZM99.86,59.017h3.695a.814.814,0,0,0,.813-.815V54.492a.814.814,0,0,0-.813-.816H99.86a.814.814,0,0,0-.813.816V58.2A.814.814,0,0,0,99.86,59.017Zm.813-3.709h2.07v2.078h-2.07Zm12.912,3.709h3.695a.814.814,0,0,0,.813-.815V54.492a.814.814,0,0,0-.813-.816h-3.695a.814.814,0,0,0-.813.816V58.2A.815.815,0,0,0,113.586,59.017Zm.813-3.709h2.07v2.078H114.4Zm12.912,3.709h3.695a.814.814,0,0,0,.813-.815V54.492a.814.814,0,0,0-.813-.816h-3.695a.814.814,0,0,0-.813.816C126.5,58.651,126.862,59.017,127.311,59.017Zm.813-3.709h2.07v2.078h-2.07Zm-.813-3.709h3.695a.814.814,0,0,0,.813-.816V47.073a.814.814,0,0,0-.813-.816h-3.695a.814.814,0,0,0-.813.816v3.709A.815.815,0,0,0,127.311,51.6Zm.813-3.709h2.07v2.078h-2.07Z" transform="translate(0 0)" fill="#d21919"/>
        <path id="Tracciato_74341" data-name="Tracciato 74341" d="M136.24,42.134l-13.725-3.873a.813.813,0,0,0-1.033.785V43.79l-12.1,3.414v-2.8a.813.813,0,0,0-1.033-.785L95.658,47.2V43.018a.814.814,0,0,0-.813-.816h-9.2a.814.814,0,0,0-.813.816V74.6a.815.815,0,0,0,.813.816c-.063-.262,47.44-.058,47.5,0h2.878a.814.814,0,0,0,.813-.816V42.92a.816.816,0,0,0-.593-.785Zm-13.132-2.011,12.1,3.414V69.565h-12.1c-.084-4.76-.124-8.594,0-8.624V40.123Zm-1.625,5.362v24.08c.045.017-12.077,0-12.1,0V48.9Zm-13.725,2.8V69.564h-12.1V48.9l12.1-3.414Zm0,22.915V73.78h-12.1V71.2ZM94.033,47.6V69.564H86.459V47.6Zm0-3.763c.1.215,2.086,1.934-.5,2.537-.388.092-6.832-.424-7.07-.4V43.834S93.8,43.352,94.033,43.834ZM86.459,71.2h7.574V73.78H86.459Zm22.924,2.584v0Zm13.8,0V71.2h12.02V73.78ZM99.86,59.017h3.695a.814.814,0,0,0,.813-.815V54.492a.814.814,0,0,0-.813-.816H99.86a.814.814,0,0,0-.813.816V58.2A.814.814,0,0,0,99.86,59.017Zm.813-3.709h2.07v2.078h-2.07Zm12.912,3.709h3.695a.814.814,0,0,0,.813-.815V54.492a.814.814,0,0,0-.813-.816h-3.695a.814.814,0,0,0-.813.816V58.2A.815.815,0,0,0,113.586,59.017Zm.813-3.709h2.07v2.078H114.4Zm12.912,3.709h3.695a.814.814,0,0,0,.813-.815V54.492a.814.814,0,0,0-.813-.816h-3.695a.814.814,0,0,0-.813.816C126.5,58.651,126.862,59.017,127.311,59.017Zm.813-3.709h2.07v2.078h-2.07Zm-.813-3.709h3.695a.814.814,0,0,0,.813-.816V47.073a.814.814,0,0,0-.813-.816h-3.695a.814.814,0,0,0-.813.816v3.709A.815.815,0,0,0,127.311,51.6Zm.813-3.709h2.07v2.078h-2.07Z" fill="#d21919"/>
        <path id="Tracciato_74342" data-name="Tracciato 74342" d="M123.188,73.78V71.2h12.174V73.78Z" transform="translate(-13.824)" fill="#fff"/>
      </g>
      <path id="Tracciato_74345" data-name="Tracciato 74345" d="M11,0A11,11,0,0,1,22,11H0A11,11,0,0,1,11,0Z" transform="translate(64 79)" fill="#fff"/>
      <path id="Tracciato_74345_-_Contorno" data-name="Tracciato 74345 - Contorno" d="M11,1.5a9.515,9.515,0,0,0-9.382,8H20.382A9.515,9.515,0,0,0,11,1.5M11,0A11,11,0,0,1,22,11H0A11,11,0,0,1,11,0Z" transform="translate(64 79)" fill="#d21919"/>
      <path id="Linea_3035" data-name="Linea 3035" d="M18.756,1.5H0v-3H18.756Z" transform="translate(65.624 90)" fill="#fff"/>
      <g id="Raggruppa_28708" data-name="Raggruppa 28708" transform="translate(66.87 82.012)">
        <g id="Raggruppa_28709" data-name="Raggruppa 28709">
          <path id="Tracciato_74346" data-name="Tracciato 74346" d="M70.685,8.187c.083-.422.626-.809.626-1.255s-.542-.833-.626-1.255.265-1,.1-1.4-.818-.557-1.06-.918-.135-1.021-.444-1.33-.966-.2-1.33-.444-.511-.891-.918-1.06-.964.186-1.4.1S64.825,0,64.379,0s-.833.542-1.255.626-1-.265-1.4-.1-.557.818-.918,1.06-1.021.135-1.33.444-.2.966-.444,1.33-.891.511-1.06.918.186.964.1,1.4-.626.809-.626,1.255.542.833.626,1.255-.265,1-.1,1.4.818.557,1.06.918.135,1.021.444,1.33.966.2,1.33.444.511.891.918,1.06.964-.186,1.4-.1.809.626,1.255.626.833-.542,1.255-.626,1,.265,1.4.1.557-.818.918-1.06,1.021-.135,1.33-.444.2-.966.444-1.33.891-.511,1.06-.918-.186-.964-.1-1.4m-6.306,3.639a4.894,4.894,0,1,1,4.894-4.894,4.894,4.894,0,0,1-4.894,4.894" transform="translate(-56.249)" fill="#d21919"/>
          <path id="Tracciato_74347" data-name="Tracciato 74347" d="M9.6,554.784a.8.8,0,0,0-.135.014c-.449.089-.861.666-1.336.666s-.887-.578-1.336-.666-1.064.283-1.489.106-.593-.871-.978-1.129-1.087-.144-1.416-.473a1.147,1.147,0,0,1-.252-.626L.026,557.7a.222.222,0,0,0,.195.325l3.532.029a.222.222,0,0,1,.18.094l2.031,2.889a.222.222,0,0,0,.378-.025l.357-.681Z" transform="translate(0 -541.152)" fill="#d21919"/>
          <path id="Tracciato_74348" data-name="Tracciato 74348" d="M405.662,557.7l-2.633-5.02a1.147,1.147,0,0,1-.252.626c-.329.329-1.028.213-1.416.473s-.545.949-.978,1.129a1.947,1.947,0,0,1-1.026-.087l-1.635,3.1,1.624,3.1a.222.222,0,0,0,.378.025l2.031-2.889a.222.222,0,0,1,.18-.094l3.532-.029a.222.222,0,0,0,.195-.325" transform="translate(-389.428 -541.151)" fill="#d21919"/>
          <path id="Tracciato_74349" data-name="Tracciato 74349" d="M257.456,239.386l-.819-.819-2.822,2.822-1.49-1.49-.819.819,2.309,2.309h0Z" transform="translate(-246.262 -233.593)" fill="#d21919"/>
        </g>
      </g>
    </g>
    <path id="Rettangolo_164143" data-name="Rettangolo 164143" d="M40,2A38.011,38.011,0,0,0,25.209,75.015,38.01,38.01,0,0,0,54.791,4.985,37.76,37.76,0,0,0,40,2m0-2A40,40,0,1,1,0,40,40,40,0,0,1,40,0Z" transform="translate(132 32)" fill="#d21919"/>
  </g>
</svg>
