<svg xmlns="http://www.w3.org/2000/svg" width="80" height="80" viewBox="0 0 80 80">
  <g id="Raggruppa_28696" data-name="Raggruppa 28696" transform="translate(-132 -32)">
    <g id="logo" transform="translate(109)">
      <rect id="Rettangolo_145801" data-name="Rettangolo 145801" width="80" height="80" transform="translate(23 32)" fill="none"/>
      <g id="noun-environment-3030829" transform="translate(-50.499 28.5)">
        <path id="Tracciato_73461" data-name="Tracciato 73461" d="M90.966,146.911v.017h.022a8.565,8.565,0,0,0,10.355,0h.022v-.017a8.667,8.667,0,1,0-10.4,0Zm1.733-.926v-1.671a2.61,2.61,0,0,1,2.6-2.613h1.733a2.61,2.61,0,0,1,2.6,2.613v1.671a6.846,6.846,0,0,1-6.933,0Zm3.467-6.026a1.742,1.742,0,1,1,1.733-1.742A1.739,1.739,0,0,1,96.166,139.959Zm0-6.969a6.965,6.965,0,0,1,5.2,11.563v-.239a4.353,4.353,0,0,0-2.5-3.934,3.467,3.467,0,1,0-5.393,0,4.353,4.353,0,0,0-2.5,3.934v.239a6.965,6.965,0,0,1,5.2-11.563Z" transform="translate(0 -102.424)" fill="#d21919"/>
        <path id="Tracciato_73462" data-name="Tracciato 73462" d="M446.167,148.672a8.711,8.711,0,1,0-8.667-8.711A8.7,8.7,0,0,0,446.167,148.672Zm0-15.679a6.969,6.969,0,1,1-6.933,6.969A6.959,6.959,0,0,1,446.167,132.992Z" transform="translate(-315.334 -102.426)" fill="#d21919"/>
        <path id="Tracciato_73463" data-name="Tracciato 73463" d="M271.167,34.922a8.711,8.711,0,1,0-8.667-8.711A8.7,8.7,0,0,0,271.167,34.922Zm0-15.679a6.969,6.969,0,1,1-6.933,6.969A6.959,6.959,0,0,1,271.167,19.242Z" transform="translate(-157.667 0)" fill="#d21919"/>
        <path id="Tracciato_73464" data-name="Tracciato 73464" d="M475.528,174.09h1.3V176.7h1.733V174.09h1.3a3.045,3.045,0,0,0,.9-5.949,3.441,3.441,0,0,0-6.143,0,3.045,3.045,0,0,0,.905,5.949Zm-.169-4.334a.867.867,0,0,0,.706-.581,1.714,1.714,0,0,1,3.258,0,.866.866,0,0,0,.706.581,1.3,1.3,0,0,1-.169,2.593h-4.333a1.3,1.3,0,0,1-.169-2.592Z" transform="translate(-346.863 -133.942)" fill="#d21919"/>
        <path id="Tracciato_73465" data-name="Tracciato 73465" d="M299.236,57.725v3.484a.869.869,0,0,0,.867.871h5.2a.869.869,0,0,0,.867-.871V57.725h.867a.865.865,0,0,0,.817-.583.875.875,0,0,0-.275-.969l-4.333-3.484a.865.865,0,0,0-1.083,0l-4.333,3.484a.872.872,0,0,0,.542,1.552Zm5.2,2.613H300.97V57.725h3.467ZM302.7,54.485l1.863,1.5H300.84Z" transform="translate(-189.204 -31.514)" fill="#d21919"/>
        <path id="Tracciato_73466" data-name="Tracciato 73466" d="M323.75,315h5.2v1.742h-5.2Z" transform="translate(-212.851 -267.883)" fill="#d21919"/>
        <path id="Tracciato_73467" data-name="Tracciato 73467" d="M323.75,350h5.2v1.742h-5.2Z" transform="translate(-212.851 -299.399)" fill="#d21919"/>
        <path id="Tracciato_73468" data-name="Tracciato 73468" d="M428.75,358.75h1.733v1.742H428.75Z" transform="translate(-307.451 -307.278)" fill="#d21919"/>
        <path id="Tracciato_73469" data-name="Tracciato 73469" d="M428.75,393.75h1.733v1.742H428.75Z" transform="translate(-307.451 -338.794)" fill="#d21919"/>
        <path id="Tracciato_73470" data-name="Tracciato 73470" d="M253.75,358.75h1.733v1.742H253.75Z" transform="translate(-149.784 -307.278)" fill="#d21919"/>
        <path id="Tracciato_73471" data-name="Tracciato 73471" d="M253.75,393.75h1.733v1.742H253.75Z" transform="translate(-149.784 -338.794)" fill="#d21919"/>
        <path id="Tracciato_73472" data-name="Tracciato 73472" d="M135.653,253.887a.873.873,0,0,0-.209.891l.867,2.613a.865.865,0,0,0,.992.578l4.041-.813,3.2,1.609a.865.865,0,0,0,.483.087l7.736-.864c.419.459.828.929,1.221,1.417l1.348-1.1a31.215,31.215,0,0,0-11.267-8.8V237.953a.869.869,0,0,0-.867-.871h-6.067V233.6a.869.869,0,0,0-.867-.871H135.4v-.871a2.61,2.61,0,0,0-2.6-2.613h-.867V227.5H130.2v1.742h-.867a2.61,2.61,0,0,0-2.6,2.613v.871h-.867a.869.869,0,0,0-.867.871v3.484h-6.067a.869.869,0,0,0-.867.871v11.561A31.228,31.228,0,0,0,107,258.067l1.337,1.109a30,30,0,0,1,2.152-2.348l1.766,1.775a.863.863,0,0,0,1.226,0l1.355-1.361,2.091.7a.874.874,0,0,0,.275.044h2.6a.843.843,0,0,0,.21-.026l3.467-.871a.87.87,0,0,0,.612-1.121l-.867-2.613a.865.865,0,0,0-.821-.6h-3.108l-1.281-1.288A29.313,29.313,0,0,1,138,249.238v2.292Zm6.68-15.063v9.955a30.871,30.871,0,0,0-5.2-1.51v-8.444Zm-13.867-6.969a.87.87,0,0,1,.867-.871H132.8a.87.87,0,0,1,.867.871v.871h-5.2Zm6.933,2.613v12.508q-.862-.12-1.733-.193V244.05a.869.869,0,0,0-.867-.871h-3.467a.869.869,0,0,0-.867.871v2.733q-.872.073-1.733.193V234.468Zm-15.6,4.355H125v8.445a30.9,30.9,0,0,0-5.2,1.511Zm-1.48,15.425a.861.861,0,0,0,.613.255h2.842l.373,1.125-2.455.617H117.34l-2.466-.827a.863.863,0,0,0-.887.211l-1.12,1.126-1.106-1.112a29.473,29.473,0,0,1,4.652-3.314Zm11.88-7.56v-1.767h1.733v1.767c-.289-.008-.576-.025-.867-.025S130.488,246.679,130.2,246.688Zm21,9.723-6.111.682-3.237-1.627a.856.856,0,0,0-.558-.075l-3.583.72-.455-1.373,2.22-2.233a.871.871,0,0,0,.254-.616v-2.174a29.26,29.26,0,0,1,11.47,6.7Z" transform="translate(-17.567 -189.094)" fill="#d21919"/>
      </g>
    </g>
    <g id="Rettangolo_164143" data-name="Rettangolo 164143" transform="translate(132 32)" fill="none" stroke="#d21919" stroke-width="2">
      <rect width="80" height="80" rx="40" stroke="none"/>
      <rect x="1" y="1" width="78" height="78" rx="39" fill="none"/>
    </g>
  </g>
</svg>
