<svg xmlns="http://www.w3.org/2000/svg" width="18" height="18" viewBox="0 0 18 18">
  <path id="Icon_material-settings" data-name="Icon material-settings" d="M19.283,12.882a6.038,6.038,0,0,0,0-1.764l1.952-1.485a.446.446,0,0,0,.111-.576L19.5,5.943a.471.471,0,0,0-.564-.2l-2.3.9a6.808,6.808,0,0,0-1.564-.882l-.352-2.385A.447.447,0,0,0,14.259,3h-3.7a.447.447,0,0,0-.453.378L9.753,5.763a7.159,7.159,0,0,0-1.564.882l-2.3-.9a.457.457,0,0,0-.564.2L3.47,9.057a.436.436,0,0,0,.111.576l1.952,1.485A6.946,6.946,0,0,0,5.469,12a6.946,6.946,0,0,0,.065.882L3.581,14.367a.446.446,0,0,0-.111.576l1.85,3.114a.471.471,0,0,0,.564.2l2.3-.9a6.808,6.808,0,0,0,1.564.882l.352,2.385a.447.447,0,0,0,.453.378h3.7a.447.447,0,0,0,.453-.378l.352-2.385a7.159,7.159,0,0,0,1.564-.882l2.3.9a.457.457,0,0,0,.564-.2l1.85-3.114a.446.446,0,0,0-.111-.576l-1.952-1.485ZM12.408,15.15A3.151,3.151,0,1,1,15.646,12,3.2,3.2,0,0,1,12.408,15.15Z" transform="translate(-3.406 -3)" fill="#1976d2"/>
</svg>
