<svg xmlns="http://www.w3.org/2000/svg" width="80" height="80" viewBox="0 0 80 80">
  <g id="logo" transform="translate(-24 -32)">
    <rect id="Rettangolo_145801" data-name="Rettangolo 145801" width="80" height="80" transform="translate(24 32)" fill="none"/>
    <g id="Annex" transform="translate(41 43)">
      <path id="Tracciato_73318" data-name="Tracciato 73318" d="M31.761,23.186c.906-3.169,3.424-4.247,6.34-4.98l-2.523-3.255L38.3,13.28a15.633,15.633,0,0,0,.738,3.269A7.766,7.766,0,0,1,41.979,13.8c3.329-1.575,6.368.417,6.685,4.346a30.373,30.373,0,0,1-.041,4.441,25.769,25.769,0,0,1,4.71-.688,23.122,23.122,0,0,1,17.545,6.456c7.11,6.841,9.33,15.221,6.544,24.629A23.575,23.575,0,0,1,52.966,69.7,24,24,0,0,1,30.978,50.006a23.538,23.538,0,0,1,5.353-19.789c.041-.063,0-.163.172-.222.313.109.734.091.969.48a.453.453,0,0,1-.118.33,13.712,13.712,0,0,0-1.037,1.263,22.792,22.792,0,0,0-3.578,7.013.724.724,0,0,0-.063.24,28.13,28.13,0,0,0-.657,2.861,23.959,23.959,0,0,0-.222,4.912v.394a32.4,32.4,0,0,0,.476,3.368,26.7,26.7,0,0,0,1.54,4.527,24.745,24.745,0,0,0,2.8,4.527c.195.267.417.5.625.756a2.778,2.778,0,0,1,.281.33c.389.453.842.856,1.264,1.286a22.732,22.732,0,0,0,4.257,3.2c.507.294,1.033.557,1.553.815l.3.154.1.05.163.068a23.153,23.153,0,0,0,4.5,1.467,21.1,21.1,0,0,0,3.759.435,19.6,19.6,0,0,0,4.488-.217,23.622,23.622,0,0,0,4.076-.982,20.03,20.03,0,0,0,3.2-1.358,22.453,22.453,0,0,0,5.1-3.658,17.083,17.083,0,0,0,1.395-1.462,22.81,22.81,0,0,0,4.9-9.213,2.569,2.569,0,0,0,.127-.552,24.375,24.375,0,0,0,.53-3.934,13.848,13.848,0,0,0,0-2.413,2.133,2.133,0,0,1,0-.589,25.915,25.915,0,0,0-.625-3.871,2.817,2.817,0,0,0-.136-.552,23.649,23.649,0,0,0-1.255-3.4,19.345,19.345,0,0,0-1.585-2.879,19.622,19.622,0,0,0-1.911-2.531,5.66,5.66,0,0,1-.453-.5,23.348,23.348,0,0,0-3.727-3.251c-.494-.335-.992-.675-1.513-.964a26.9,26.9,0,0,0-3.718-1.729A21.818,21.818,0,0,0,55.864,23.1c-.557-.027-1.11-.077-1.667-.086-.276.023-.557.023-.833.072a19.626,19.626,0,0,0-4.606.7.593.593,0,0,0-.068.453,3.455,3.455,0,0,0,2.717,2.9c.258.063.525.1.783.145a1.92,1.92,0,0,1,.794.108c.032.263-.522.4-.68.522A14.863,14.863,0,0,1,50,29.076a17.469,17.469,0,0,1-7.7,1.2,15.719,15.719,0,0,1-8.224-2.934,6.1,6.1,0,0,1-2.147-2.517,2.023,2.023,0,0,1-.168-1.643Z" transform="translate(-30.587 -13.255)" fill="#213366"/>
      <path id="Tracciato_73319" data-name="Tracciato 73319" d="M49.852,43.833l1.685-.625a11.5,11.5,0,0,1,2.011.145,17.3,17.3,0,0,0,6.916-.81,1.1,1.1,0,0,0,.684-.611,14.378,14.378,0,0,1,1.762-2.974,7.929,7.929,0,0,1,1.137-1.182.575.575,0,0,1,.6-.158,33.153,33.153,0,0,0-2.124,3.88.276.276,0,0,0,.29-.068,17.97,17.97,0,0,1,5.208-1.992,1.223,1.223,0,0,1,.512-.027l1.422.905c-.131.181-.344.186-.53.24a24.349,24.349,0,0,0-3.587,1.2,3.386,3.386,0,0,0-.453.222,14.686,14.686,0,0,1-3.252,1.48.906.906,0,0,0-.643.656,17.12,17.12,0,0,0-.851,4.645,9.957,9.957,0,0,0,.281,2.716,31.174,31.174,0,0,1,10.711-.453.72.72,0,0,0,.217-.552,26.863,26.863,0,0,1,1.567-6.356c.072-.181.113-.385.322-.48l.408.453a1.281,1.281,0,0,1-.113.62,26.161,26.161,0,0,0-1.255,6.035.566.566,0,0,0,.054.4,1.513,1.513,0,0,0,.634.163,20.839,20.839,0,0,1,4.95,1.358,1.911,1.911,0,0,1,.516.3l.131.453c-.163.086-.312,0-.453-.045a38.963,38.963,0,0,0-5.113-1.2,1.418,1.418,0,0,0-.675-.027,1.448,1.448,0,0,0-.059.783A25.666,25.666,0,0,0,73.9,58.963a4.6,4.6,0,0,0,.322.77,9.957,9.957,0,0,1,1.046,2.83.842.842,0,0,0,.7.693,12.781,12.781,0,0,1,3.17,1.2l-.127.453c-.811-.149-1.581-.453-2.378-.661a2.442,2.442,0,0,0-.906-.177.453.453,0,0,0-.041.407c.1.616.145,1.236.186,1.861a15.79,15.79,0,0,1-.774,5.885,7.953,7.953,0,0,1-1.033,1.96c-.453.453-.906.937-1.359,1.408a.82.82,0,0,1-.453-.1,25.4,25.4,0,0,0-7.124-1.648,18.119,18.119,0,0,0-3.469.045.709.709,0,0,0-.571.489,22.565,22.565,0,0,0-1.812,4.726c-.1.371-.186.747-.285,1.118-.041.149-.068.317-.236.4-.231-.1-.172-.308-.172-.48a15.649,15.649,0,0,1,.494-3.749,16.209,16.209,0,0,1,.48-1.643.561.561,0,0,0,.041-.493,6.833,6.833,0,0,0-1.191.231A16.185,16.185,0,0,0,54.883,75.8a14.5,14.5,0,0,1-4.629,1.29c-.63.091-1.268.122-1.9.208a2.666,2.666,0,0,0-.4.96c-.127.389-.235.788-.358,1.182-.05.163-.082.344-.281.4L47,79.712a2.118,2.118,0,0,1,0-.982c.054-.453.177-.905.2-1.358-.122-.14-.263-.113-.394-.122a16,16,0,0,1-3.963-.774,8.555,8.555,0,0,1-1.766-.874l-1.241-1.277c.186-.172.376-.063.562,0,.865.231,1.662.647,2.5.928a17.8,17.8,0,0,0,4.28.77.757.757,0,0,0,.34-.045.81.81,0,0,0,.231-.426,16.216,16.216,0,0,1,1.889-3.767,12.1,12.1,0,0,0,1.68-4.582.561.561,0,0,0-.041-.421,14.268,14.268,0,0,0-1.476-.1,19.791,19.791,0,0,1-4.529-.729,15.075,15.075,0,0,1-1.911-.8A13,13,0,0,0,41.75,64.6a.263.263,0,0,0-.1.29,19.3,19.3,0,0,1-.131,4.215,11.211,11.211,0,0,1-1.3,3.912c-.127.213-.231.453-.34.675-.068.14-.131.294-.317.326l-.611-.715a3.213,3.213,0,0,1,.272-.747,15.75,15.75,0,0,0,1.241-6.963,6.79,6.79,0,0,0-.222-1.358,38.137,38.137,0,0,0-5.317-.905c.045-.326.24-.344.421-.353a7.7,7.7,0,0,1,1.073,0c1.128.086,2.264.1,3.379.254a.208.208,0,0,0,.127-.032c.1-.127.027-.267,0-.4a6.282,6.282,0,0,0-.539-1.286,16.746,16.746,0,0,1-1.87-7.271,8.817,8.817,0,0,0-.122-1.209A7.474,7.474,0,0,0,35.7,52.77a.992.992,0,0,1-.743-.222l.05-.168a9.725,9.725,0,0,1,1.621-.077,1.939,1.939,0,0,0,.72-.041,1.43,1.43,0,0,0,.163-.761,26.549,26.549,0,0,1,.906-5.56,3.939,3.939,0,0,0,.24-.67l1-1.209c.172.222.032.453-.027.647a28.086,28.086,0,0,0-.906,4.324,19.966,19.966,0,0,0-.113,2.943.512.512,0,0,0,.118.376c.648.077,1.359.145,2.015.258a20.193,20.193,0,0,1,3.777.964,17.551,17.551,0,0,0,2.591.625.376.376,0,0,0,.3-.041c.1-.14.05-.29.036-.43a20.452,20.452,0,0,1,1.091-9.163.738.738,0,0,1,.34-.453l.951-.263c.168.195.036.38-.027.557a16.131,16.131,0,0,0-.933,5.433,18.263,18.263,0,0,0,.7,4.233.683.683,0,0,0,.195.362,16.544,16.544,0,0,0,9.3-2.5,21.507,21.507,0,0,1,1.2-7.751.453.453,0,0,0-.494-.072,19.9,19.9,0,0,1-4.7.57,16.794,16.794,0,0,1-4.71-.57A.906.906,0,0,1,49.852,43.833Z" transform="translate(-32.958 -26.573)" fill="#213366"/>
      <path id="Tracciato_73320" data-name="Tracciato 73320" d="M42.059,27.563a20.9,20.9,0,0,0,1.585-1.838c.294-.453.557-.693,1.087-.552a1.173,1.173,0,0,1,.82,1.068,2.571,2.571,0,0,1-.489,1.766,9.293,9.293,0,0,0-.453,1.191,3.45,3.45,0,0,0,1.332-1.7c.245-.652.7-.72,1.259-.575a10.046,10.046,0,0,1,2.717,1.5c.122-.294-.068-.412-.2-.5a28.467,28.467,0,0,0-2.559-1.757c-1.028-.57-.788-1.055-.05-1.616.453-.358,1.119-.539,1.236-1.29l-.389-.136c-.453.367-.906.706-1.309,1.068a1.088,1.088,0,0,1-1.812-.249c-.453-.7.349-.733.693-1.046.657-.589,1.227-1.277,2.129-2.241l-2.794,1.553c-.322.177-.661.453-1,.113s-.068-.7.154-1a12.566,12.566,0,0,1,2.328-2.164c.312-.258.779-.53.353-1.127-.829.733-1.626,1.435-2.409,2.141-.956.86-1.721.679-2.174-.534-.149-.407-.294-.819-.453-1.25,1.413-2.961,4.248-4.174,6.839-2.839,1.336.688,1.395,2.078,1.576,3.341a20.491,20.491,0,0,1-.036,4.527c-.186,2.332.453,4.269,2.835,5.356A16.169,16.169,0,0,1,45.537,30.4c-3.782-.127-7.246-1.141-9.932-3.989a2.625,2.625,0,0,1,.077-3.948c1.359-1.327,2.835-2.472,4.9-2.368a.765.765,0,0,0,.263-.1.932.932,0,0,1,.063,1.231,10.643,10.643,0,0,1-2.822,2.943c-.38.308-1,.6-.575,1.422l2.926-2.549a9.13,9.13,0,0,1,.937-.792.6.6,0,0,1,.8.1.647.647,0,0,1,.122.806,9.912,9.912,0,0,1-2.038,2.223,1.059,1.059,0,0,0-.408,1.005c.539-.48,1.019-.905,1.485-1.358.213-.2.367-.453.584-.652.453-.389.951-.942,1.544-.412s0,1.028-.276,1.5C42.847,26.128,41.932,26.436,42.059,27.563Z" transform="translate(-32.864 -14.219)" fill="#fff"/>
      <path id="Tracciato_73322" data-name="Tracciato 73322" d="M104.64,46.9a28.83,28.83,0,0,0-1.848,7.574,30.454,30.454,0,0,0-11.087.453,14.665,14.665,0,0,1,.743-8.149c2.717-.86,5.1-2.6,7.953-3.119l.453-.077A19.924,19.924,0,0,1,104.64,46.9Z" transform="translate(-63.865 -29.851)" fill="#fff"/>
      <path id="Tracciato_73323" data-name="Tracciato 73323" d="M45.18,106.163a15,15,0,0,0,1.884-9.793A20.406,20.406,0,0,0,57.086,98.7c0,3.749-2.917,6.252-3.8,9.607a16.667,16.667,0,0,1-6.59-1.471,9.512,9.512,0,0,0-1.255-.358Z" transform="translate(-38.571 -58.741)" fill="#fff"/>
      <path id="Tracciato_73324" data-name="Tracciato 73324" d="M53.161,51.666A20.2,20.2,0,0,0,51.92,62c-3.148-.394-5.978-1.974-9.162-1.87A23.607,23.607,0,0,1,43.9,51.644c.063-.081.127-.168.186-.254,1.141.222,2.264.5,3.424.652A16.849,16.849,0,0,0,53.161,51.666Z" transform="translate(-37.218 -34.125)" fill="#fff"/>
      <path id="Tracciato_73325" data-name="Tracciato 73325" d="M87.785,37.732a20.01,20.01,0,0,0-6.368,2.581,27.466,27.466,0,0,1,2.409-4.437,7.167,7.167,0,0,0-2.717,3.282A3.574,3.574,0,0,1,77.98,41.5a19.526,19.526,0,0,1-7.2.032l1.495-.733-.706-.24L74.511,39.1c-2.636-.168-4.148-1.268-4.411-3.767a20.51,20.51,0,0,1,4.855-.756,1.439,1.439,0,0,1-.648,1.811A11.594,11.594,0,0,0,73.225,37c.453.186.847.421,1.259.579a.81.81,0,0,1,.553.715,13.355,13.355,0,0,0,.276,1.431c.313-.371.616-.638.879-.946a1.065,1.065,0,0,1,1.132-.376,6.668,6.668,0,0,0,1.173.158,5.389,5.389,0,0,0-.548-1.041,1.068,1.068,0,0,1-.041-1.259,6.449,6.449,0,0,0,.534-1.1c-.5.063-.933.177-1.359.254a1.2,1.2,0,0,1-1.291-.742.14.14,0,0,1,.027-.145A22.651,22.651,0,0,1,87.785,37.732Z" transform="translate(-52.205 -24.895)" fill="#fff"/>
      <path id="Tracciato_73326" data-name="Tracciato 73326" d="M33.906,70.63l2.668.285a20.39,20.39,0,0,0,2.763,10.521l-5.353-.317c1.789.353,3.582.607,5.38,1.05a15.076,15.076,0,0,1-1.078,8.548,6.528,6.528,0,0,1-.38.67,21.4,21.4,0,0,1-2.84-4.577c.032-.254.217-.272.412-.263a9.262,9.262,0,0,1,1.105.154,1.332,1.332,0,0,0,.453,0,4.794,4.794,0,0,0-.571-1.091,1.023,1.023,0,0,1,0-1.154,11.537,11.537,0,0,0,.521-1.059,1.359,1.359,0,0,0-.725.077c-1.359.249-1.005.371-2.024-.62l-.331-.335a.349.349,0,0,0-.394-.1L33,78.947a4.152,4.152,0,0,1,1.046-1.231c.172-.186.453-.118.684-.1a6.609,6.609,0,0,0,1.309.131,6.98,6.98,0,0,0-.557-1.037,1.041,1.041,0,0,1-.045-1.227,5.726,5.726,0,0,0,.539-1.068,10.3,10.3,0,0,0-1.3.217A1.359,1.359,0,0,1,33.2,73.582Z" transform="translate(-31.907 -44.655)" fill="#fff"/>
      <path id="Tracciato_73327" data-name="Tracciato 73327" d="M124.7,81.766l-3.243-1.091c-.19-.063-.38-.109-.453-.127-1.418-3.708-3.007-7.275-2.794-11.318a32.729,32.729,0,0,1,6.4,1.5,19.193,19.193,0,0,1,.643,3.925c-.235.158-.367-.032-.507-.158-.331-.3-.62-.647-1-.96a2.263,2.263,0,0,0-.186,1.014,1.182,1.182,0,0,1-.752,1.191,4.53,4.53,0,0,0-.983.534c.122.186.312.222.453.308a3.406,3.406,0,0,0,.512.217,1.1,1.1,0,0,1,.829,1.077,3.472,3.472,0,0,0,.236,1.141,10.3,10.3,0,0,1,.978-1.037c.118-.113.217-.281.426-.222a19.06,19.06,0,0,1-.557,4Z" transform="translate(-78.514 -43.889)" fill="#fff"/>
      <path id="Tracciato_73328" data-name="Tracciato 73328" d="M124.452,60.762a25.325,25.325,0,0,0-5.2-1.476l-1.123-.172a23.752,23.752,0,0,1,1.535-7.244l1.9,2.522c.059.272-.109.407-.313.534-.408.244-.838.453-1.286.7a2.573,2.573,0,0,0,.956.516,1.123,1.123,0,0,1,.861,1.1,4.213,4.213,0,0,0,.213,1.1c.453-.321.679-.842,1.191-1.037A17.1,17.1,0,0,1,124.452,60.762Z" transform="translate(-78.482 -34.388)" fill="#fff"/>
      <path id="Tracciato_73329" data-name="Tracciato 73329" d="M121.36,105.919a14.38,14.38,0,0,0,1.716-7.094c0-1.05-.172-2.1-.272-3.255a17.632,17.632,0,0,1,3.5,1.1,22.181,22.181,0,0,1-4.946,9.249Z" transform="translate(-80.25 -58.304)" fill="#fff"/>
      <path id="Tracciato_73330" data-name="Tracciato 73330" d="M79.208,34.53l.743.856,2.133-.407-.933,1.911,1.028,1.865-2.106-.3-1.458,1.553-.376-2.1-1.929-.905L78.208,36c.05-.453.1-.946.145-1.422Z" transform="translate(-55.602 -24.898)" fill="#1976d2"/>
      <path id="Tracciato_73331" data-name="Tracciato 73331" d="M70.253,129.26c-.489-.57-1.277-.611-1.893-1.068l1.848-.978L70.461,125l1.359,1.625,2.264-.426-.942,1.9.906,1.666a16.852,16.852,0,0,1-3.8-.5Z" transform="translate(-51.253 -74.41)" fill="#1976d2"/>
      <path id="Tracciato_73332" data-name="Tracciato 73332" d="M97.691,126.774l-.118-.842-1.943-.905,1.884-1,.276-2.2,1.313,1.607,2.3-.453-.937,1.915.3.53Z" transform="translate(-66.173 -72.675)" fill="#1976d2"/>
      <path id="Tracciato_73333" data-name="Tracciato 73333" d="M38.742,54.58c-.217,1.064-.485,2.119-.648,3.192-.2,1.3-.313,2.612-.453,3.907H35.11a21.629,21.629,0,0,1,3.632-7.1Z" transform="translate(-33.062 -35.871)" fill="#fff"/>
      <path id="Tracciato_73334" data-name="Tracciato 73334" d="M33.105,77.16l.906,1.041,2.138-.417L35.216,79.7l1.024,1.861-1.975-.281-1.359,1.24A22.276,22.276,0,0,1,33.105,77.16Z" transform="translate(-31.813 -48.228)" fill="#1976d2"/>
      <path id="Tracciato_73335" data-name="Tracciato 73335" d="M129.227,82.609l-1.522,1.562-.371-2.114-1.934-.905,1.889-1.005.254-2.046,1.662,1.4Q129.218,81.052,129.227,82.609Z" transform="translate(-82.46 -48.743)" fill="#1976d2"/>
      <path id="Tracciato_73336" data-name="Tracciato 73336" d="M34.17,96.195l.14-.385,1.359,1.535,2.219-.426c-.326.661-.63,1.272-.942,1.911l1,1.811c-.765.163-1.495-.453-2.264-.045a22.4,22.4,0,0,1-1.513-4.4Z" transform="translate(-32.547 -58.435)" fill="#1976d2"/>
      <path id="Tracciato_73337" data-name="Tracciato 73337" d="M48.5,121.56c.842.326,1.676.7,2.536.969a14.573,14.573,0,0,0,3.777.589l-.4,2.558A21.385,21.385,0,0,1,48.5,121.56Z" transform="translate(-40.387 -72.527)" fill="#fff"/>
      <path id="Tracciato_73338" data-name="Tracciato 73338" d="M124.962,60.385l-1.282,1.358-.367-2.1-1.934-.905,1.843-.978.118-.3A14.655,14.655,0,0,1,124.962,60.385Z" transform="translate(-80.261 -37.447)" fill="#1976d2"/>
      <path id="Tracciato_73339" data-name="Tracciato 73339" d="M62.26,130.91l.077.054Z" transform="translate(-47.916 -77.644)" fill="#f9a329"/>
      <path id="Tracciato_73340" data-name="Tracciato 73340" d="M105.166,105.887a25.359,25.359,0,0,0-11-2.313,12.01,12.01,0,0,0,3.053-9.485,24.347,24.347,0,0,1,9.456.19C107.847,98.371,106.932,102.188,105.166,105.887Z" transform="translate(-65.374 -57.289)" fill="#fff"/>
      <path id="Tracciato_73341" data-name="Tracciato 73341" d="M56.05,84.206c-3.582.371-6.852-.937-10.176-1.947-.539-3.622-2.917-6.709-2.717-10.49,3.216.109,5.983,2.164,9.289,2.377C52.965,77.76,56.6,80.191,56.05,84.206Z" transform="translate(-37.457 -45.279)" fill="#fff"/>
      <path id="Tracciato_73342" data-name="Tracciato 73342" d="M66.568,51.347a17.478,17.478,0,0,0,5.294.733,21.07,21.07,0,0,0,5.38-.761,21.783,21.783,0,0,0-1.313,8.244c-3.043,1.621-6.141,2.8-9.637,2.513a15.22,15.22,0,0,1-.4-8.366c.208-.792.453-1.575.679-2.363Z" transform="translate(-49.674 -34.087)" fill="#fff"/>
      <path id="Tracciato_73343" data-name="Tracciato 73343" d="M96.187,79.311c-.172-3.5-3.17-5.885-3.487-9.385a27.017,27.017,0,0,1,10.738-1.114A18.793,18.793,0,0,0,105.7,79.931,34.759,34.759,0,0,0,96.187,79.311Z" transform="translate(-64.57 -43.575)" fill="#fff"/>
      <path id="Tracciato_73344" data-name="Tracciato 73344" d="M69.488,97.826c3.777.059,6.793-2.114,10.353-2.716.326,3.5-.847,6.47-2.926,9.385-4.185-.484-7.5,2.925-11.775,3.169C66.49,104.264,69.678,101.851,69.488,97.826Z" transform="translate(-49.491 -58.052)" fill="#fff"/>
      <path id="Tracciato_73345" data-name="Tracciato 73345" d="M77.368,72.84c0,3.468,2.695,5.786,3.673,9-3.7.045-6.571,2.44-10.136,2.884.267-3.735-1.481-6.741-3.315-9.829A23.316,23.316,0,0,0,77.368,72.84Z" transform="translate(-50.832 -45.864)" fill="#fff"/>
      <path id="Tracciato_73346" data-name="Tracciato 73346" d="M100.773,48.85l1.359,1.589,2.233-.453c-.326.67-.625,1.281-.937,1.915l1.028,1.861-2.11-.294L100.9,55.021c-.131-.733-.249-1.4-.371-2.1l-1.934-.905,1.884-1Z" transform="translate(-67.792 -32.735)" fill="#1976d2"/>
      <path id="Tracciato_73347" data-name="Tracciato 73347" d="M52.456,109.728l-.362-2.1-1.934-.905,1.884-1,.272-2.2,1.359,1.6,2.264-.453L55,106.586l1.037,1.865-2.11-.3Z" transform="translate(-41.296 -62.66)" fill="#1976d2"/>
      <path id="Tracciato_73348" data-name="Tracciato 73348" d="M48.291,55.14,49.65,56.7l2.264-.43-.942,1.915L52,60.057l-2.11-.3-1.458,1.562-.362-2.1-1.934-.905,1.884-1Z" transform="translate(-39.096 -36.178)" fill="#1976d2"/>
      <path id="Tracciato_73349" data-name="Tracciato 73349" d="M105.408,102.457l-1.938-.905,1.893-1.01c.082-.688.163-1.358.258-2.132l1.359,1.544,2.264-.453-.937,1.906,1.028,1.874-2.106-.308-1.458,1.589C105.639,103.816,105.522,103.155,105.408,102.457Z" transform="translate(-70.462 -59.858)" fill="#1976d2"/>
      <path id="Tracciato_73350" data-name="Tracciato 73350" d="M52.232,82.3l.258-2.105L53.8,81.716l2.328-.453-.969,1.915,1.028,1.865-2.106-.3L52.626,86.3l-.367-2.1L50.33,83.3Z" transform="translate(-41.389 -49.887)" fill="#1976d2"/>
      <path id="Tracciato_73351" data-name="Tracciato 73351" d="M72.766,57.425l2.3-.453-.915,1.92,1.028,1.865-2.11-.3L71.615,62.02l-.367-2.105L69.31,59.01l1.889-1,.235-2.069Z" transform="translate(-51.773 -36.615)" fill="#1976d2"/>
      <path id="Tracciato_73352" data-name="Tracciato 73352" d="M104.287,75.845c.34.616.67,1.213,1.028,1.87l-2.106-.308-1.463,1.566-.358-2.1-1.938-.905,1.889-1c.086-.693.168-1.358.272-2.187l1.359,1.589,2.264-.453C104.889,74.609,104.59,75.225,104.287,75.845Z" transform="translate(-68.263 -45.831)" fill="#1976d2"/>
      <path id="Tracciato_73353" data-name="Tracciato 73353" d="M80.87,106.615l-1.449,1.553-.367-2.083-1.934-.905,1.884-1,.272-2.164,1.4,1.557,2.206-.426-.906,1.911L83,106.923Z" transform="translate(-56.046 -61.834)" fill="#1976d2"/>
      <path id="Tracciato_73354" data-name="Tracciato 73354" d="M81.976,84.158l-2.1-.29-1.458,1.548-.367-2.092-1.929-.905,1.88-1,.272-2.173,1.359,1.576,2.264-.453-.942,1.933Z" transform="translate(-55.498 -49.372)" fill="#1976d2"/>
    </g>
    <g id="Rettangolo_164147" data-name="Rettangolo 164147" transform="translate(24 32)" fill="none" stroke="#213366" stroke-width="2">
      <rect width="80" height="80" rx="40" stroke="none"/>
      <rect x="1" y="1" width="78" height="78" rx="39" fill="none"/>
    </g>
  </g>
</svg>
