<svg xmlns="http://www.w3.org/2000/svg" width="80" height="80" viewBox="0 0 80 80">
  <g id="logo" transform="translate(-23 -32)">
    <rect id="Rettangolo_145801" data-name="Rettangolo 145801" width="80" height="80" transform="translate(23 32)" fill="none"/>
    <g id="noun-chimney-3517455" transform="translate(-69.201 15.199)">
      <path id="Tracciato_74227" data-name="Tracciato 74227" d="M154.505,60.464h-18.5a21.486,21.486,0,0,1-.917-6.148V45.363a1.082,1.082,0,0,0-1.079-1.079H114.595a1.082,1.082,0,0,0-1.079,1.079v8.953a21.66,21.66,0,0,1-2.05,9.169A24.593,24.593,0,0,0,109.2,73.624v4.1A1.082,1.082,0,0,0,110.28,78.8h44.225a1.082,1.082,0,0,0,1.079-1.079V61.543a1.081,1.081,0,0,0-1.078-1.079ZM115.673,46.441h17.259v3.236H115.673Zm21.573,30.2H111.359v-3.02a21.481,21.481,0,0,1,2.05-9.169,24.594,24.594,0,0,0,2.265-10.139V51.835h17.259v2.481A24.154,24.154,0,0,0,135.2,64.4a21.659,21.659,0,0,1,2.05,9.169Zm16.18,0H139.4v-3.02a21.887,21.887,0,0,0-.7-5.609h14.724Zm0-10.787H138.109a22.061,22.061,0,0,0-.971-2.373,6.01,6.01,0,0,1-.378-.863h16.665ZM138.864,34.576a1.082,1.082,0,0,1,1.079-1.079h4.315a1.589,1.589,0,0,0,1.618-1.618,1.079,1.079,0,1,1,2.157,0,3.752,3.752,0,0,1-3.775,3.775h-4.315A1.082,1.082,0,0,1,138.864,34.576ZM115.673,39.97V38.891a5.409,5.409,0,0,1,5.393-5.393H134.55a1.079,1.079,0,1,1,0,2.157H121.067a3.246,3.246,0,0,0-3.236,3.236V39.97a1.079,1.079,0,1,1-2.157,0Zm7.066-.917c.054.054.108.054.162.108a1.043,1.043,0,0,1,0,1.51c-.054.054-.108.108-.162.108-.054.054-.108.054-.162.108s-.108.054-.216.054h-.431c-.054,0-.108-.054-.216-.054-.054,0-.108-.054-.162-.108s-.108-.054-.162-.108a.868.868,0,0,1-.325-.7,1.065,1.065,0,0,1,.324-.755c.054-.054.108-.108.162-.108.054-.054.108-.054.162-.108s.108-.054.216-.054a.6.6,0,0,1,.432,0c.054,0,.162.054.216.054S122.685,39.053,122.739,39.053Zm4.8-.162h10.787a1.079,1.079,0,1,1,0,2.157H127.539a1.079,1.079,0,1,1,0-2.157Zm15.209,33.87a.648.648,0,0,1-.108-.432v-.216c0-.054.054-.162.054-.216s.054-.108.108-.162.054-.108.108-.162.108-.108.162-.108c.054-.054.108-.054.162-.108.054,0,.108-.054.216-.054h.432c.054,0,.162.054.216.054.054.054.108.054.162.108s.108.108.162.108a1.065,1.065,0,0,1,.324.755.648.648,0,0,1-.108.432c-.054.108-.108.27-.216.324a1.043,1.043,0,0,1-1.51,0c-.053-.108-.161-.216-.161-.324Zm5.393,0a.648.648,0,0,1-.108-.432v-.216c0-.054.054-.162.054-.216s.054-.108.108-.162.054-.108.108-.162.108-.108.162-.108c.054-.054.108-.054.162-.108.054,0,.108-.054.216-.054a1.224,1.224,0,0,1,.971.27c.054.054.108.108.108.162.054.054.054.108.108.162s.054.108.054.216v.216a.648.648,0,0,1-.108.432c-.054.108-.108.27-.216.324a1.043,1.043,0,0,1-1.51,0C148.249,72.976,148.141,72.869,148.141,72.761Z" fill="#1976d2"/>
    </g>
  </g>
</svg>
