<?xml version="1.0" encoding="UTF-8"?>
<svg id="Localizza_su_mappa" data-name="Localizza su mappa" xmlns="http://www.w3.org/2000/svg" viewBox="0 0 24 24">
  <defs>
    <style>
      .cls-1 {
        fill: none;
      }

      .cls-1, .cls-2 {
        stroke-width: 0px;
      }

      .cls-2 {
        fill: #fff;
      }
    </style>
  </defs>
  <rect id="Rettangolo_146244" data-name="Rettangolo 146244" class="cls-1" width="24" height="24"/>
  <path id="my_location_FILL1_wght400_GRAD0_opsz24" data-name="my location FILL1 wght400 GRAD0 opsz24" class="cls-2" d="m11,23v-2.01c-2.04-.21-3.95-1.13-5.39-2.6-1.47-1.44-2.39-3.34-2.6-5.39H1v-2.01h2.01c.21-2.04,1.13-3.95,2.6-5.39,1.44-1.47,3.34-2.39,5.39-2.6V1h2.01v2.01c2.04.21,3.95,1.13,5.39,2.6,1.47,1.44,2.39,3.34,2.6,5.39h2.01v2.01h-2.01c-.21,2.04-1.13,3.95-2.6,5.39-1.44,1.47-3.34,2.39-5.39,2.6v2.01h-2.01Zm1-3.97c1.87.03,3.67-.72,4.97-2.06,1.34-1.3,2.09-3.1,2.06-4.97.03-1.87-.72-3.67-2.06-4.97-1.3-1.34-3.1-2.09-4.97-2.06-1.87-.03-3.67.72-4.97,2.06-1.34,1.3-2.09,3.1-2.06,4.97-.03,1.87.72,3.67,2.06,4.97,1.3,1.34,3.1,2.09,4.97,2.06h0Zm0-3.01c-2.21,0-4.01-1.8-4.01-4.02,0-2.22,1.8-4.01,4.02-4.02,2.22,0,4.01,1.8,4.02,4.02,0,2.22-1.8,4.01-4.02,4.02h0Z"/>
</svg>