<svg xmlns="http://www.w3.org/2000/svg" width="245.917" height="200.004" viewBox="0 0 245.917 200.004">
  <g id="_ÎÓÈ_2" transform="translate(0.001)">
    <g id="Raggruppa_27747" data-name="Raggruppa 27747" transform="translate(-0.001)">
      <path id="Tracciato_73706" data-name="Tracciato 73706" d="M197.115,55.865a1.134,1.134,0,0,1-.707-1.048h0A54.823,54.823,0,0,0,92.856,29.7,5.2,5.2,0,0,1,87.845,32.5q-3.069-.23-6.2-.233a81.646,81.646,0,1,0,19.816,160.87,69.308,69.308,0,0,1,41.02,2.162A74.886,74.886,0,0,0,197.113,55.865Z" transform="translate(0.001)" fill="#e4dbae" opacity="0.4"/>
      <path id="Tracciato_73707" data-name="Tracciato 73707" d="M55.484,294.63c-4.212,23.98,44.93,33.547,45.051,38.2s-24.939,2.489-19.43,14.9c5.106,11.5,44.171,14.606,72.083.229.808-.417,19.624-36.232,4.064-56.189s-18.638,15.5-25.531,14.854,6.467-44.554-7.881-53.287c-14.868-9.048-18.159,22.214-25.138,17.7-6.61-4.274-11.674-48.313-29.2-41.913a13.914,13.914,0,0,0-1.956.9l-.008,0h0q-.53.293-1.077.646c-20.011,12.966,20.814,58,11.988,60.129S57.619,282.479,55.484,294.63Z" transform="translate(-46.667 -193.079)" fill="#557c0a"/>
      <path id="Tracciato_73708" data-name="Tracciato 73708" d="M208.984,607.953s-21.718-38.474-40.779-58.807S134.14,524.74,134.14,524.74A126.254,126.254,0,0,1,151.411,546.7c8.068,13.041,13.551,27.686,23.66,39.786C190.364,604.784,208.984,607.953,208.984,607.953Z" transform="translate(-113.347 -443.401)" fill="#94c13e"/>
      <path id="Tracciato_73709" data-name="Tracciato 73709" d="M240.493,794.1s-18.985-24.418-34.271-36.545-26.092-13.41-26.092-13.41a88.372,88.372,0,0,1,14.211,13.435c6.924,8.2,12.222,17.784,20.464,25.127,12.467,11.108,25.686,11.393,25.686,11.393Z" transform="translate(-152.208 -628.801)" fill="#94c13e"/>
      <path id="Tracciato_73710" data-name="Tracciato 73710" d="M1068.308,370.686c5.518-1.361,15.271-5.4,18.291-11.167,2.787-5.326-2.477-11.236-.591-16.336s16-9.937,19.274-15.96c3.889-7.143-7.519-11.7-3.074-16.817s20.734-11.925,21.552-17.677-5.924-5.014-1.136-15.972c4.053-9.279,9.513-21.464,2.885-25.81-7.064-4.632-14.135,5.182-17.609,12.684-4.474,9.665-10.829.391-16.51,5.2-5.135,4.345-2.561,25.536-6.348,30.106s-12.145,2.08-17.246,9.885,4.261,18.488,1.784,24.232-11.178,4.359-14.732,12.517,13.461,25.116,13.461,25.116Z" transform="translate(-890.926 -211.039)" fill="#557c0a"/>
      <path id="Tracciato_73711" data-name="Tracciato 73711" d="M1082.417,805.824c3.633,1.274,10.658,2.606,14.51.454,3.556-1.986,2.764-7.288,5.724-9.479s12.752.3,16.845-1.9c4.853-2.606.079-9.424,4.5-10.672s16.176.93,18.773-2.026-1.5-5.041,5.28-9.476c5.74-3.756,13.354-8.638,11.208-13.56-2.286-5.245-9.936-2.3-14.687.659-6.121,3.819-6.284-3.8-11.286-3.178-4.523.558-10.923,13.526-14.766,14.712s-7.656-3.326-13.444-.794-4.443,12.061-7.977,14.4-7.953-1.676-12.994,1.631-1.685,19.23-1.685,19.23Z" transform="translate(-913.706 -639.052)" fill="#94c13e"/>
      <g id="Raggruppa_27742" data-name="Raggruppa 27742" transform="translate(25.035 145.636)">
        <path id="Tracciato_73714" data-name="Tracciato 73714" d="M370.448,985.67l-53.964-10.032-50.5,9.48-.305-.057-50.188-9.5-53.977,9.95,17.62-37.427,44.23-8.546,42.622,8.446,42.632-8.383,44.272,8.62ZM215.495,972.211l50.487,9.556,50.5-9.479,48.26,8.97-14.126-30.119-42-8.178-42.638,8.383L223.352,942.9,181.4,951l-14.174,30.106Z" transform="translate(-161.51 -939.54)" fill="#fff"/>
        <g id="Raggruppa_27741" data-name="Raggruppa 27741" transform="translate(2.854 1.234)">
          <path id="Tracciato_73715" data-name="Tracciato 73715" d="M396.157,974.13l-4.867.941,1.342.577q1.776-.758,3.526-1.518Z" transform="translate(-358.526 -970.002)" fill="#fff"/>
          <path id="Tracciato_73716" data-name="Tracciato 73716" d="M288.057,987.991q-1.4-.6-2.772-1.19l-11.567,2.235-1.609,3.416h5.1q5.538-2.23,10.847-4.461Z" transform="translate(-257.82 -980.708)" fill="#707070"/>
          <path id="Tracciato_73717" data-name="Tracciato 73717" d="M390.3,959.243l1.911-9.755L382.178,947.5l-9.731,1.88q-10.928,4.931-22.977,9.863Zm-4.377-4.68q-.33,1.458-.662,2.917H366.453q.491-1.458.98-2.917h18.492Z" transform="translate(-323.189 -947.5)" fill="#fff"/>
          <path id="Tracciato_73718" data-name="Tracciato 73718" d="M685.325,975.636c.116-.415.248-.829.4-1.238a19.57,19.57,0,0,1,1.989-3.965l-8.091,1.59c.006.617.014,1.232.02,1.849H654.789q.335-2.518.668-5.036h4.867l-9.772-1.936-1.432,8.736h36.2Z" transform="translate(-576.391 -963.893)" fill="#fff"/>
          <path id="Tracciato_73719" data-name="Tracciato 73719" d="M993.622,979.853l-1.015-2.165H975.258l-1.434-3.578h5.6l-10.691-2.082c-6.038.25-12.072.377-18.032.377h-1.074c-6.647-.017-13.2-.189-19.567-.515l-7.479,1.471a18.4,18.4,0,0,0-3.277,6.495h74.314ZM969.79,974.11l1.349,3.578H951.66l-.944-3.578h19.075Zm-22.25,3.578H928.062l-.456-3.578h19.075Q947.111,975.9,947.54,977.687Z" transform="translate(-804.699 -968.109)" fill="#fff"/>
          <path id="Tracciato_73720" data-name="Tracciato 73720" d="M179.922,1208.937l6.8-1.254c-2.082-.175-4.063-.377-5.928-.6l-.874,1.855Z" transform="translate(-179.92 -1166.843)" fill="#fff"/>
          <path id="Tracciato_73721" data-name="Tracciato 73721" d="M233.4,1052.634a19.234,19.234,0,0,0,3.384-2.418,191.816,191.816,0,0,1-14.927-14.186h-4.8l-.969,2.057,2.339-.375q1.776,1.818,3.661,3.636-3.52.558-7.079,1.116c-.225-.222-.446-.443-.668-.665l-6.279,13.338,16.217.546A24.783,24.783,0,0,0,233.4,1052.634Zm-17.61-9.4q3.569-.558,7.1-1.116,1.907,1.818,3.923,3.637-3.578.558-7.2,1.116Q217.649,1045.053,215.789,1043.235Zm11.881,3.289q2.039,1.818,4.187,3.636-3.636.558-7.315,1.116-2.1-1.818-4.089-3.636,3.63-.558,7.219-1.116Z" transform="translate(-203.698 -1022.307)" fill="#fff"/>
          <path id="Tracciato_73722" data-name="Tracciato 73722" d="M677.361,1139.053a13.671,13.671,0,0,0-1.683-3.013,23.664,23.664,0,0,0-3.516-3.8c-15.412.7-30.577,2.052-44.042,7.507l8.274,1.566c1.28-1.3,4.012-2.741,8.572-3.934,11.444-3.02,21.58-2.184,22.3-1.333,1.068,1.344-12.811,2.523-16.728,4.055a46.39,46.39,0,0,0-5.5,2.847l3.866.731q.814-.321,1.625-.64,2.441.567,4.911,1.133l-1.271.5,3.553.673a32.867,32.867,0,0,1,10.654-4.455c3.058-.777,6.042-1.372,8.983-1.843Zm-22.3,4.292q-2.458-.567-4.887-1.133,2.3-.911,4.553-1.823,2.421.568,4.869,1.133-2.246.911-4.532,1.823Zm7.242-1.931q-2.455-.567-4.881-1.133,2.241-.911,4.444-1.823,2.418.567,4.863,1.133-2.193.911-4.424,1.823Z" transform="translate(-558.646 -1103.604)" fill="#fff"/>
          <path id="Tracciato_73723" data-name="Tracciato 73723" d="M214.678,1036.031a201.567,201.567,0,0,0,15.116,13.921c-.1.109-.2.217-.3.324a18.666,18.666,0,0,1-4.122,3.114,34.283,34.283,0,0,1-13.993,4.241l-.682.068-17.093-.571-1.539,3.271c3.844.55,8.324.966,13.137,1.231l3.886-.716a116.949,116.949,0,0,1,18.454-3.4l13.765-2.537,11.458,2.168,4.139-21.115H214.676Zm33.167,16.817h-14.7l1.19-3.948h14.4Q248.29,1050.874,247.845,1052.848Zm1.235-5.469H237.024l1.144-3.948h11.8Q249.525,1045.406,249.08,1047.38Zm-14.47-5.617,1.232-3.948h15.4q-.446,1.974-.891,3.948H234.612Z" transform="translate(-190.187 -1022.307)" fill="#fff"/>
          <path id="Tracciato_73724" data-name="Tracciato 73724" d="M919.643,1048.77l3.317-.127c9.316-.353,18.1-.687,25.176-1.815,14.544-2.3,24.06-8.078,27.591-10.787h-59.68a15.8,15.8,0,0,0,.208,5.315A19.636,19.636,0,0,0,919.643,1048.77Zm.959-9.97c5.636-2.919,37.758-1.307,40.175.112,1.7,1.062-3.734,2.981-10.815,4.633-7.037,1.652-15.719,3.035-19.489,3.026-5.957-.016-13.438-5.971-9.871-7.769Z" transform="translate(-801.83 -1022.316)" fill="#fff"/>
          <path id="Tracciato_73725" data-name="Tracciato 73725" d="M676.658,1041.491a16.512,16.512,0,0,1-.084-5.461h-36.1q-.6,3.672-1.2,7.341,18.884-.748,37.462-1.5c-.026-.127-.051-.254-.074-.384Zm-19.762-.9h-12.5q.191-1.388.383-2.775h12.314Q656.993,1039.2,656.9,1040.589Zm2,0q.081-1.388.161-2.775h12.314q.014,1.388.03,2.775Z" transform="translate(-568.067 -1022.307)" fill="#fff"/>
          <path id="Tracciato_73726" data-name="Tracciato 73726" d="M1064.173,950.054l-10.91-2.124-10.5,2.065C1049.23,950.185,1056.422,950.235,1064.173,950.054Z" transform="translate(-909.013 -947.863)" fill="#fff"/>
          <path id="Tracciato_73727" data-name="Tracciato 73727" d="M1006.042,1040.777a65.42,65.42,0,0,1-9.894,4.331,83.68,83.68,0,0,1-14.2,3.514c-7.992,1.265-17.353,1.617-27.273,1.989l-2.31.087a26.115,26.115,0,0,1,3.379,3.615,16.217,16.217,0,0,1,1.652,2.635c11.734-1.331,23.211-1.251,34.012-3.677,15.123-3.405,15.687-11.117,33.767-11.488l-2.694-5.743h-9.356a41.865,41.865,0,0,1-7.079,4.737Zm-44.183,14.253q-1.081-1.263-2.139-2.527,9.6-.693,19.053-1.387,1.179,1.263,2.38,2.527Q971.576,1054.336,961.859,1055.03Zm25.841-2.8q-2.351-.935-4.663-1.871,4.413-1.079,8.721-2.158,2.334.935,4.708,1.871Q992.137,1051.15,987.7,1052.229Z" transform="translate(-832.626 -1022.316)" fill="#fff"/>
          <path id="Tracciato_73728" data-name="Tracciato 73728" d="M320.354,1174.63a117.271,117.271,0,0,0-18.454,3.4Z" transform="translate(-282.992 -1139.423)" fill="#fff"/>
          <path id="Tracciato_73729" data-name="Tracciato 73729" d="M320.354,1174.63a117.271,117.271,0,0,0-18.454,3.4Z" transform="translate(-282.992 -1139.423)" fill="#fff"/>
          <path id="Tracciato_73730" data-name="Tracciato 73730" d="M668.946,1080.893a19.619,19.619,0,0,1-3.1-7.143h0q-18.578.749-37.462,1.5-1,6.092-2,12.182c13.557-4.557,28.342-5.864,42.554-6.536Z" transform="translate(-557.184 -1054.18)" fill="#fff"/>
          <path id="Tracciato_73731" data-name="Tracciato 73731" d="M668.946,1080.893a19.619,19.619,0,0,1-3.1-7.143h0q-18.578.749-37.462,1.5-1,6.092-2,12.182c13.557-4.557,28.342-5.864,42.554-6.536Z" transform="translate(-557.184 -1054.18)" fill="#d5d5d5"/>
          <path id="Tracciato_73732" data-name="Tracciato 73732" d="M838.746,1176.19c-2.939.47-5.924,1.065-8.983,1.843a32.828,32.828,0,0,0-10.654,4.455l2.537.481,17.669-3.317a7.791,7.791,0,0,0-.57-3.46Z" transform="translate(-720.031 -1140.741)" fill="#fff"/>
          <path id="Tracciato_73733" data-name="Tracciato 73733" d="M838.746,1176.19c-2.939.47-5.924,1.065-8.983,1.843a32.828,32.828,0,0,0-10.654,4.455l2.537.481,17.669-3.317a7.791,7.791,0,0,0-.57-3.46Z" transform="translate(-720.031 -1140.741)" fill="#707070"/>
          <path id="Tracciato_73734" data-name="Tracciato 73734" d="M984.82,1088.245a10.755,10.755,0,0,1,.78,2.071,8.189,8.189,0,0,1,.191,1l26.381-4.953,51.112,9.5L1052.6,1073.08c-18.08.369-18.644,8.08-33.767,11.488C1008.031,1087,996.554,1086.915,984.82,1088.245Z" transform="translate(-860.054 -1053.614)" fill="#a7abb3"/>
          <path id="Tracciato_73735" data-name="Tracciato 73735" d="M984.82,1088.245a10.755,10.755,0,0,1,.78,2.071,8.189,8.189,0,0,1,.191,1l26.381-4.953,51.112,9.5L1052.6,1073.08c-18.08.369-18.644,8.08-33.767,11.488C1008.031,1087,996.554,1086.915,984.82,1088.245Z" transform="translate(-860.054 -1053.614)" fill="#a7abb3"/>
          <path id="Tracciato_73736" data-name="Tracciato 73736" d="M467.732,1047.54l-1.232,3.948h15.738q.446-1.974.891-3.948h-15.4Z" transform="translate(-422.078 -1032.033)" fill="#a7abb3"/>
          <path id="Tracciato_73737" data-name="Tracciato 73737" d="M457.04,1123.008h14.7q.446-1.974.891-3.948h-14.4l-1.19,3.948Z" transform="translate(-414.084 -1092.467)" fill="#a7abb3"/>
          <path id="Tracciato_73738" data-name="Tracciato 73738" d="M482.07,1087.728h12.056q.446-1.974.891-3.948h-11.8Z" transform="translate(-435.234 -1062.656)" fill="#a7abb3"/>
          <path id="Tracciato_73739" data-name="Tracciato 73739" d="M477.82,995.987q.33-1.458.662-2.917H459.99q-.491,1.458-.98,2.917h18.809Z" transform="translate(-415.749 -986.006)" fill="#a7abb3"/>
          <path id="Tracciato_73740" data-name="Tracciato 73740" d="M685.69,984.428h24.849c-.006-.617-.014-1.232-.02-1.849l-1.611.316-17.682-3.5H686.36q-.335,2.518-.668,5.036Z" transform="translate(-607.292 -974.447)" fill="#a7abb3"/>
          <path id="Tracciato_73741" data-name="Tracciato 73741" d="M973.276,989.788h19.478q-.43-1.788-.859-3.578H972.82Z" transform="translate(-849.915 -980.21)" fill="#a7abb3"/>
          <path id="Tracciato_73742" data-name="Tracciato 73742" d="M1142.324,989.788l-1.349-3.578H1121.9l.944,3.578h19.478Z" transform="translate(-975.886 -980.21)" fill="#a7abb3"/>
          <path id="Tracciato_73743" data-name="Tracciato 73743" d="M1272.434,989.779h17.348l-.522-1.115-12.655-2.465H1271l1.434,3.578Z" transform="translate(-1101.874 -980.201)" fill="#a7abb3"/>
          <path id="Tracciato_73744" data-name="Tracciato 73744" d="M256.327,1050.526q-1.886-1.818-3.661-3.636l-2.339.375-1.747,3.711c.222.222.443.443.668.665q3.56-.558,7.079-1.116Z" transform="translate(-237.937 -1031.484)" fill="#a7abb3"/>
          <path id="Tracciato_73745" data-name="Tracciato 73745" d="M265.021,1075.31q-3.529.558-7.1,1.116,1.86,1.818,3.827,3.637,3.618-.558,7.2-1.116Q266.928,1077.128,265.021,1075.31Z" transform="translate(-245.829 -1055.499)" fill="#a7abb3"/>
          <path id="Tracciato_73746" data-name="Tracciato 73746" d="M299.405,1107.367q-2.146-1.818-4.187-3.636-3.59.558-7.219,1.116,1.99,1.818,4.089,3.636,3.678-.558,7.315-1.116Z" transform="translate(-271.247 -1079.513)" fill="#a7abb3"/>
          <path id="Tracciato_73747" data-name="Tracciato 73747" d="M672.31,1050.315h12.5q.1-1.388.192-2.775H672.693Q672.5,1048.928,672.31,1050.315Z" transform="translate(-595.986 -1032.033)" fill="#a7abb3"/>
          <path id="Tracciato_73748" data-name="Tracciato 73748" d="M766.061,1047.54q-.081,1.388-.161,2.775h12.5q-.014-1.388-.029-2.775Z" transform="translate(-675.069 -1032.033)" fill="#a7abb3"/>
          <path id="Tracciato_73749" data-name="Tracciato 73749" d="M712.37,1152.472c-.718-.853-10.854-1.688-22.3,1.333-4.56,1.193-7.29,2.635-8.572,3.934l8.646,1.637a46.432,46.432,0,0,1,5.5-2.847c3.915-1.531,17.8-2.711,16.728-4.055Z" transform="translate(-603.751 -1120.03)" fill="#a7abb3"/>
          <path id="Tracciato_73750" data-name="Tracciato 73750" d="M712.37,1152.472c-.718-.853-10.854-1.688-22.3,1.333-4.56,1.193-7.29,2.635-8.572,3.934l8.646,1.637a46.432,46.432,0,0,1,5.5-2.847c3.915-1.531,17.8-2.711,16.728-4.055Z" transform="translate(-603.751 -1120.03)" fill="#a7abb3"/>
          <path id="Tracciato_73751" data-name="Tracciato 73751" d="M763.855,1201.92q-.809.321-1.625.64l5.264,1,1.271-.5q-2.469-.567-4.911-1.133Z" transform="translate(-671.968 -1162.483)" fill="#a7abb3"/>
          <path id="Tracciato_73752" data-name="Tracciato 73752" d="M770.382,1186.633q2.43.567,4.887,1.133,2.288-.911,4.532-1.823-2.448-.567-4.869-1.133-2.255.911-4.552,1.823Z" transform="translate(-678.854 -1148.025)" fill="#a7abb3"/>
          <path id="Tracciato_73753" data-name="Tracciato 73753" d="M817.142,1174.173q2.427.568,4.881,1.133,2.232-.911,4.424-1.823-2.446-.567-4.863-1.133-2.2.912-4.444,1.823Z" transform="translate(-718.366 -1137.496)" fill="#a7abb3"/>
          <path id="Tracciato_73754" data-name="Tracciato 73754" d="M999.83,1134.688q1.058,1.263,2.139,2.526,9.717-.693,19.294-1.387-1.2-1.263-2.379-2.527Q1009.427,1133.993,999.83,1134.688Z" transform="translate(-872.738 -1104.5)" fill="#a7abb3"/>
          <path id="Tracciato_73755" data-name="Tracciato 73755" d="M1150.26,1116.648q2.311.934,4.663,1.871,4.436-1.079,8.766-2.158-2.374-.935-4.708-1.871Q1154.672,1115.569,1150.26,1116.648Z" transform="translate(-999.85 -1088.605)" fill="#a7abb3"/>
          <path id="Tracciato_73756" data-name="Tracciato 73756" d="M315.618,990.177a13.675,13.675,0,0,1,1.683,3.013c2.037-.326,4.052-.592,6.05-.818a16.3,16.3,0,0,0-1.652-2.635,25.929,25.929,0,0,0-3.379-3.615l2.31-.087c9.921-.372,19.283-.724,27.274-1.989a83.578,83.578,0,0,0,14.2-3.514A65.465,65.465,0,0,0,372,976.2a41.849,41.849,0,0,0,7.079-4.737h9.356l-.929-1.981H313.2a18.434,18.434,0,0,1,3.277-6.495L309.9,964.28a19.611,19.611,0,0,0-1.989,3.965c-.147.409-.281.821-.4,1.238h-36.2l1.432-8.736-5.14-1.018-1.911,9.755H224.867q12.049-4.932,22.977-9.863l-11.627,2.246q-1.751.758-3.526,1.518l-1.342-.577-5.3,1.023q1.374.6,2.772,1.19-5.308,2.23-10.847,4.461h-5.1l-.932,1.981h4.8a191.814,191.814,0,0,0,14.927,14.186,19.36,19.36,0,0,1-3.384,2.418,24.757,24.757,0,0,1-9.122,3.049l-16.217-.546-.938,1.993q8.522.286,17.093.57l.682-.068a34.29,34.29,0,0,0,13.993-4.241,18.664,18.664,0,0,0,4.122-3.114c.1-.109.2-.217.3-.324a201.563,201.563,0,0,1-15.116-13.921H265.31l-4.139,21.115.378.071c.5.047.953.093,1.369.138,1.916.208,2.954.389,2.954.389l-.188.256,2.376.45c13.464-5.455,28.628-6.809,44.042-7.507a23.6,23.6,0,0,1,3.516,3.8ZM312.8,971.466h59.679c-3.531,2.711-13.047,8.485-27.591,10.787-7.073,1.129-15.859,1.462-25.176,1.815l-3.317.127a19.636,19.636,0,0,1-3.387-7.414,15.756,15.756,0,0,1-.208-5.315ZM264.349,992.59q1.23-6.833,2.458-13.666l2.981-.118q.6-3.671,1.2-7.341h36.1a16.51,16.51,0,0,0,.084,5.461c.023.129.048.257.074.384l2.914-.118q1.323,4.074,2.745,8.147c-.017,0-12.23.384-24.42,1.969a170.156,170.156,0,0,0-24.142,5.281Z" transform="translate(-198.586 -957.741)" fill="#a7abb3"/>
          <path id="Tracciato_73757" data-name="Tracciato 73757" d="M315.618,990.177a13.675,13.675,0,0,1,1.683,3.013c2.037-.326,4.052-.592,6.05-.818a16.3,16.3,0,0,0-1.652-2.635,25.929,25.929,0,0,0-3.379-3.615l2.31-.087c9.921-.372,19.283-.724,27.274-1.989a83.578,83.578,0,0,0,14.2-3.514A65.465,65.465,0,0,0,372,976.2a41.849,41.849,0,0,0,7.079-4.737h9.356l-.929-1.981H313.2a18.434,18.434,0,0,1,3.277-6.495L309.9,964.28a19.611,19.611,0,0,0-1.989,3.965c-.147.409-.281.821-.4,1.238h-36.2l1.432-8.736-5.14-1.018-1.911,9.755H224.867q12.049-4.932,22.977-9.863l-11.627,2.246q-1.751.758-3.526,1.518l-1.342-.577-5.3,1.023q1.374.6,2.772,1.19-5.308,2.23-10.847,4.461h-5.1l-.932,1.981h4.8a191.814,191.814,0,0,0,14.927,14.186,19.36,19.36,0,0,1-3.384,2.418,24.757,24.757,0,0,1-9.122,3.049l-16.217-.546-.938,1.993q8.522.286,17.093.57l.682-.068a34.29,34.29,0,0,0,13.993-4.241,18.664,18.664,0,0,0,4.122-3.114c.1-.109.2-.217.3-.324a201.563,201.563,0,0,1-15.116-13.921H265.31l-4.139,21.115.378.071c.5.047.953.093,1.369.138,1.916.208,2.954.389,2.954.389l-.188.256,2.376.45c13.464-5.455,28.628-6.809,44.042-7.507a23.6,23.6,0,0,1,3.516,3.8ZM312.8,971.466h59.679c-3.531,2.711-13.047,8.485-27.591,10.787-7.073,1.129-15.859,1.462-25.176,1.815l-3.317.127a19.636,19.636,0,0,1-3.387-7.414,15.756,15.756,0,0,1-.208-5.315ZM264.349,992.59q1.23-6.833,2.458-13.666l2.981-.118q.6-3.671,1.2-7.341h36.1a16.51,16.51,0,0,0,.084,5.461c.023.129.048.257.074.384l2.914-.118q1.323,4.074,2.745,8.147c-.017,0-12.23.384-24.42,1.969a170.156,170.156,0,0,0-24.142,5.281Z" transform="translate(-198.586 -957.741)" fill="#a7abb3"/>
          <path id="Tracciato_73758" data-name="Tracciato 73758" d="M1009.349,963.414c5.96,0,11.993-.127,18.032-.377l-8.879-1.728c-7.75.181-14.943.132-21.413-.059l-8.38,1.648c6.362.326,12.92.5,19.567.515h1.074Z" transform="translate(-863.341 -959.119)" fill="#a7abb3"/>
          <path id="Tracciato_73759" data-name="Tracciato 73759" d="M1009.349,963.414c5.96,0,11.993-.127,18.032-.377l-8.879-1.728c-7.75.181-14.943.132-21.413-.059l-8.38,1.648c6.362.326,12.92.5,19.567.515h1.074Z" transform="translate(-863.341 -959.119)" fill="#a7abb3"/>
          <path id="Tracciato_73760" data-name="Tracciato 73760" d="M185.57,1195.4q2.8.339,5.927.6l8.22-1.514c-4.813-.265-9.294-.681-13.137-1.231l-1.009,2.144Z" transform="translate(-184.694 -1155.166)" fill="#a7abb3"/>
          <path id="Tracciato_73761" data-name="Tracciato 73761" d="M185.57,1195.4q2.8.339,5.927.6l8.22-1.514c-4.813-.265-9.294-.681-13.137-1.231l-1.009,2.144Z" transform="translate(-184.694 -1155.166)" fill="#a7abb3"/>
          <path id="Tracciato_73762" data-name="Tracciato 73762" d="M587.479,1172.848c-.415-.045-.873-.091-1.369-.138l4.134.783.188-.256s-1.039-.181-2.954-.389Z" transform="translate(-523.148 -1137.801)" fill="#a7abb3"/>
          <path id="Tracciato_73763" data-name="Tracciato 73763" d="M587.479,1172.848c-.415-.045-.873-.091-1.369-.138l4.134.783.188-.256s-1.039-.181-2.954-.389Z" transform="translate(-523.148 -1137.801)" fill="#a7abb3"/>
          <path id="Tracciato_73764" data-name="Tracciato 73764" d="M587.479,1172.848c-.415-.045-.873-.091-1.369-.138l4.134.783.188-.256s-1.039-.181-2.954-.389Z" transform="translate(-523.148 -1137.801)" fill="#a7abb3"/>
          <path id="Tracciato_73765" data-name="Tracciato 73765" d="M650.014,1072.98l-2.914.118h0a19.563,19.563,0,0,0,3.1,7.143c-14.213.673-29,1.979-42.554,6.537q1-6.092,2-12.182l-2.981.118q-1.23,6.833-2.458,13.665a170.026,170.026,0,0,1,24.142-5.281c12.19-1.584,24.4-1.969,24.42-1.969q-1.421-4.074-2.745-8.147Z" transform="translate(-538.433 -1053.53)" fill="#333435"/>
          <path id="Tracciato_73766" data-name="Tracciato 73766" d="M650.014,1072.98l-2.914.118h0a19.563,19.563,0,0,0,3.1,7.143c-14.213.673-29,1.979-42.554,6.537q1-6.092,2-12.182l-2.981.118q-1.23,6.833-2.458,13.665a170.026,170.026,0,0,1,24.142-5.281c12.19-1.584,24.4-1.969,24.42-1.969q-1.421-4.074-2.745-8.147Z" transform="translate(-538.433 -1053.53)" fill="#a7abb3"/>
          <path id="Tracciato_73767" data-name="Tracciato 73767" d="M650.014,1072.98l-2.914.118h0a19.563,19.563,0,0,0,3.1,7.143c-14.213.673-29,1.979-42.554,6.537q1-6.092,2-12.182l-2.981.118q-1.23,6.833-2.458,13.665a170.026,170.026,0,0,1,24.142-5.281c12.19-1.584,24.4-1.969,24.42-1.969q-1.421-4.074-2.745-8.147Z" transform="translate(-538.433 -1053.53)" fill="#a7abb3"/>
          <path id="Tracciato_73768" data-name="Tracciato 73768" d="M952.62,1172.991a10.657,10.657,0,0,0-.78-2.071c-2,.226-4.013.491-6.05.819a7.8,7.8,0,0,1,.57,3.46l6.45-1.211A8.271,8.271,0,0,0,952.62,1172.991Z" transform="translate(-827.074 -1136.288)" fill="#707070"/>
          <path id="Tracciato_73769" data-name="Tracciato 73769" d="M952.62,1172.991a10.657,10.657,0,0,0-.78-2.071c-2,.226-4.013.491-6.05.819a7.8,7.8,0,0,1,.57,3.46l6.45-1.211A8.271,8.271,0,0,0,952.62,1172.991Z" transform="translate(-827.074 -1136.288)" fill="#a7abb3"/>
          <path id="Tracciato_73770" data-name="Tracciato 73770" d="M952.62,1172.991a10.657,10.657,0,0,0-.78-2.071c-2,.226-4.013.491-6.05.819a7.8,7.8,0,0,1,.57,3.46l6.45-1.211A8.271,8.271,0,0,0,952.62,1172.991Z" transform="translate(-827.074 -1136.288)" fill="#a7abb3"/>
          <path id="Tracciato_73771" data-name="Tracciato 73771" d="M950.986,1052.723c3.77.011,12.452-1.373,19.489-3.026,7.081-1.652,12.517-3.571,10.815-4.633-2.415-1.417-34.537-3.03-40.175-.112-3.567,1.8,3.914,7.752,9.871,7.769Z" transform="translate(-822.342 -1028.469)" fill="#a7abb3"/>
          <path id="Tracciato_73772" data-name="Tracciato 73772" d="M950.986,1052.723c3.77.011,12.452-1.373,19.489-3.026,7.081-1.652,12.517-3.571,10.815-4.633-2.415-1.417-34.537-3.03-40.175-.112-3.567,1.8,3.914,7.752,9.871,7.769Z" transform="translate(-822.342 -1028.469)" fill="#a7abb3"/>
        </g>
        <path id="Tracciato_73773" data-name="Tracciato 73773" d="M231.055,980.669,238.92,948l-43.092,8.327-15.9,33.767Z" transform="translate(-177.075 -946.689)" fill="#a7abb3" opacity="0.4"/>
        <path id="Tracciato_73774" data-name="Tracciato 73774" d="M517.615,948l-7.865,32.669,50.491,9.556V956.448Z" transform="translate(-455.77 -946.689)" fill="#a7abb3" opacity="0.25"/>
        <path id="Tracciato_73775" data-name="Tracciato 73775" d="M835.48,990.58V956.8l42.633-8.383L885.98,981.1Z" transform="translate(-731.01 -947.044)" fill="#a7abb3" opacity="0.4"/>
        <path id="Tracciato_73776" data-name="Tracciato 73776" d="M1110.52,948.42l43.135,8.4L1169.5,990.6l-51.112-9.5Z" transform="translate(-963.416 -947.044)" fill="#a7abb3" opacity="0.25"/>
      </g>
      <path id="Tracciato_73777" data-name="Tracciato 73777" d="M633.891,321.255a45.285,45.285,0,1,0-83.106,24.911l37.82,56.316,37.82-56.316A45.071,45.071,0,0,0,633.891,321.255Zm-45.285,22.087a22.087,22.087,0,1,1,22.087-22.087A22.087,22.087,0,0,1,588.606,343.343Z" transform="translate(-459.101 -233.193)" fill="#d21919"/>
      <g id="Raggruppa_27743" data-name="Raggruppa 27743" transform="translate(155.57 113.396)">
        <path id="Tracciato_73778" data-name="Tracciato 73778" d="M1154.42,795.231h3.953V787.67h-2.415Z" transform="translate(-1131.046 -778.971)" fill="#fff"/>
        <path id="Tracciato_73779" data-name="Tracciato 73779" d="M1134.046,740.886c-.668,3.1-.175,6.234,1.7,6.913,1.758.637,4.808-1.048,6.2-4.116,1.469-3.23.752-5.645-1.851-6.544-2.766-.955-5.32.346-6.053,3.748Z" transform="translate(-1113.59 -736.016)" fill="#fff"/>
        <path id="Tracciato_73780" data-name="Tracciato 73780" d="M1140.214,731.578a4.831,4.831,0,0,1,4.28,5.407c-.172,2.406-2.744,3.691-2.744,3.691s-.848-2.443-2.24-2.832c-1.941-.542-1.1-2.277-2.007-2.465-.944-.2-3-.945-2.965-2.32,1.33.046,2.448-1.735,5.677-1.482Z" transform="translate(-1114.245 -731.552)" fill="#0b0d3f"/>
        <path id="Tracciato_73781" data-name="Tracciato 73781" d="M1168.74,771.862a.874.874,0,1,0,1.206-.589A.957.957,0,0,0,1168.74,771.862Z" transform="translate(-1143.057 -765.062)" fill="#fff"/>
        <path id="Tracciato_73782" data-name="Tracciato 73782" d="M1139.086,771.832a17.807,17.807,0,0,1-.857,4.63,2.373,2.373,0,0,1-4.32-.378s1.343.281,1.191-.288c-.178-.67-1.561-.677-1.561-.677a.345.345,0,0,1-.319-.262,2.63,2.63,0,0,1,.108-.967,12.185,12.185,0,0,0,2.617.653c.893,0,1.7-.631,2.46-2.711h.682Z" transform="translate(-1113.117 -765.587)" fill="#0b0d3f"/>
        <path id="Tracciato_73783" data-name="Tracciato 73783" d="M1095.85,1010.325,1099.484,990l2.468-10.015,2.485-10.035.845-3.412,7.126,2.272-1.288,3.271-3.754,9.525c-1.248,3.181-2.517,6.358-3.753,9.552l-5.227,16.756-.877,2.812-.254.817-1.553-.38.15-.842Z" transform="translate(-1081.428 -930.115)" fill="#fff"/>
        <path id="Tracciato_73784" data-name="Tracciato 73784" d="M1146.9,967.072l.284,3.5,1.607,19.844,15.006,7.033.775.363-.566,1.477-.818-.248-17.207-5.2a1.888,1.888,0,0,1-1.3-1.412l-.06-.287-4.376-20.556-.732-3.437,7.388-1.082Z" transform="translate(-1118.447 -930.563)" fill="#fff"/>
        <path id="Tracciato_73785" data-name="Tracciato 73785" d="M1116.2,950.38l-13.321,2.587-4.163,39.815,4.467.612Z" transform="translate(-1083.98 -916.46)" fill="#333"/>
        <path id="Tracciato_73786" data-name="Tracciato 73786" d="M1141.729,961.217l-13.439-1.877s2.06,24.927,6.081,28.106c2.237,1.769,14.667,4.745,14.667,4.745l1.338-3.816s-9.358-3.788-10.141-4.959c-.851-1.274,1.494-22.2,1.494-22.2Z" transform="translate(-1108.966 -924.031)" fill="#333"/>
        <path id="Tracciato_73787" data-name="Tracciato 73787" d="M1047.5,837.846l-8.809,12.59,1.6-.448-10.389-3.943-.944-.358-.75,1.807.919.415,10.13,4.57a1.3,1.3,0,0,0,1.559-.391l.043-.057,9.367-12.179,1.032-1.342-2.792-2.049-.97,1.387Z" transform="translate(-1024.4 -820.198)" fill="#fff"/>
        <path id="Tracciato_73788" data-name="Tracciato 73788" d="M1067.848,842.633c-1.294,3.393-7.4,10.928-12.115,12.3-2.8.812-8.873-3.447-8.873-3.447l.884-2.734s4.6,3.058,7.078.708,6.859-9.872,9.091-10.289c1.967-.367,4.517,1.941,3.936,3.464Z" transform="translate(-1040.159 -822.453)" fill="#fff"/>
        <path id="Tracciato_73789" data-name="Tracciato 73789" d="M1126.712,826.14s-2.074,1.818-4.148.606c0,0-.71,7.575-1.637,10.666s-3.657,11.212-3.657,11.212h15.076C1132.749,841.707,1130.135,833.852,1126.712,826.14Z" transform="translate(-1099.654 -811.478)" fill="#d3c4ae"/>
        <path id="Tracciato_73790" data-name="Tracciato 73790" d="M1125.781,822.13s7.2,10.776,5.739,22.27c0,0,.618,2.258-7.557,1.95s-8.643-1.437-8.643-1.437a78.778,78.778,0,0,0,5.6-21.555S1123.974,823.469,1125.781,822.13Z" transform="translate(-1098.007 -808.09)" fill="#da2022"/>
        <path id="Tracciato_73791" data-name="Tracciato 73791" d="M1163.048,839.427c1.026,1.772,2.021,3.621,2.934,5.469.456.927.893,1.859,1.293,2.795a24.446,24.446,0,0,1,1.025,2.793c.064.229.118.448.164.671l.14.739c.084.5.163,1.006.231,1.518.14,1.022.256,2.057.36,3.094.2,2.076.363,4.173.482,6.256l.059,1.008,1.959-.05V862.71c0-2.13-.043-4.242-.129-6.372-.045-1.063-.1-2.13-.187-3.2-.042-.536-.094-1.077-.153-1.62l-.107-.823c-.045-.294-.1-.592-.166-.874a26.938,26.938,0,0,0-.983-3.2c-.375-1.023-.784-2.023-1.207-3.01-.856-1.978-1.761-3.894-2.748-5.824l-.772-1.508-3.041,1.679.848,1.466Z" transform="translate(-1137.62 -820.046)" fill="#fff"/>
        <path id="Tracciato_73792" data-name="Tracciato 73792" d="M1164.573,832.145c2.6,2.537,4.094,8.3,5.2,13.083s.208,12.052.208,12.052l-2.979.132s-.171-7.4-1.342-10.6-6.334-10.218-5.828-12.432c.445-1.952,3.576-3.373,4.743-2.234Z" transform="translate(-1135.589 -816.21)" fill="#fff"/>
        <path id="Tracciato_73793" data-name="Tracciato 73793" d="M1003.666,889.635c-.229.654.56,1.834,2.014,2.539,1.339.651,2.544.305,2.818-.341.611-1.44-4.477-3.212-4.832-2.2Z" transform="translate(-1003.627 -864.878)" fill="#fff"/>
        <path id="Tracciato_73794" data-name="Tracciato 73794" d="M1211.948,1014.644c.691-.054,1.443-1.567,1.491-3.626.043-1.9-.767-3.145-1.468-3.148-1.565-.008-1.093,6.858-.023,6.775Z" transform="translate(-1178.826 -965.039)" fill="#fff"/>
        <path id="Tracciato_73795" data-name="Tracciato 73795" d="M1205.7,1014.589c-.29-.094-.428-.919-.2-1.945.214-.946.713-1.483,1.014-1.415C1207.187,1011.38,1206.144,1014.736,1205.7,1014.589Z" transform="translate(-1174.109 -967.872)" fill="#fff"/>
        <path id="Tracciato_73796" data-name="Tracciato 73796" d="M1056.513,1252.557s1.028-.271,1.313-.374c1.136-.409,4.078-1.614,4.078-1.614a1.765,1.765,0,0,0,1.271.7,2.4,2.4,0,0,0,1.181-.158c.291-.009.541.46.558,1.046a1.907,1.907,0,0,1-.054.53l.025.814-8.671.26-.025-.825a.37.37,0,0,1,.326-.378Z" transform="translate(-1048.041 -1170.118)" fill="#0b0d3f"/>
        <path id="Tracciato_73797" data-name="Tracciato 73797" d="M1292.19,1169.185s.04-1.062.025-1.364c-.06-1.206-.355-4.371-.355-4.371a1.767,1.767,0,0,0,1.038-1.012,2.389,2.389,0,0,0,.192-1.177c.076-.281.6-.383,1.164-.229a1.951,1.951,0,0,1,.491.206l.786.214-2.279,8.37-.8-.217a.368.368,0,0,1-.267-.422Z" transform="translate(-1247.182 -1094.398)" fill="#0b0d3f"/>
        <rect id="Rettangolo_163479" data-name="Rettangolo 163479" width="0.628" height="6.871" transform="translate(0.563 21.949) rotate(-22.57)" fill="#0b0d3f"/>
        <path id="Tracciato_73798" data-name="Tracciato 73798" d="M1015.9,885.755c.2-.228,1.014-.026,1.862.594.783.572,1.077,1.245.9,1.494C1018.253,888.4,1015.588,886.108,1015.9,885.755Z" transform="translate(-1013.977 -861.775)" fill="#fff"/>
      </g>
      <g id="Raggruppa_27746" data-name="Raggruppa 27746" transform="translate(50.509 110.149)">
        <path id="Tracciato_73799" data-name="Tracciato 73799" d="M385.049,1000.884c.3-.031.614-.809.6-1.863-.008-.972-.383-1.6-.693-1.6-.69,0-.383,3.514.087,3.464Z" transform="translate(-375.457 -952.961)" fill="#fff"/>
        <path id="Tracciato_73800" data-name="Tracciato 73800" d="M408.068,711.7c-3.227-2.313-7.113-.736-7.629,2.6-.67,4.336.177,7.826-.9,10.7a21.667,21.667,0,0,0-1.208,8.838c4.4-6,8.956-3.519,11.469-9.55C410.607,722.355,411.16,713.915,408.068,711.7Z" transform="translate(-387.046 -710.603)" fill="#0b0d3f"/>
        <path id="Tracciato_73801" data-name="Tracciato 73801" d="M432.173,771.7H428.32V764.33h2.356Z" transform="translate(-412.436 -756.002)" fill="#fff"/>
        <path id="Tracciato_73802" data-name="Tracciato 73802" d="M425.538,718.723c.651,3.026.171,6.078-1.657,6.74-1.714.62-4.687-1.021-6.048-4.013-1.432-3.15-.733-5.5,1.8-6.38,2.7-.932,5.187.336,5.9,3.654Z" transform="translate(-402.955 -714.125)" fill="#fff"/>
        <path id="Tracciato_73803" data-name="Tracciato 73803" d="M435.906,995.176c-2.332-2.64-4.594-21.157-4.594-21.157l-2.731-18.737-.494-3.392-7.137,1.539.947,3.294,5.233,18.184,5.317,18.523.352.567,4.4,2.978S438.238,997.815,435.906,995.176Z" transform="translate(-406.209 -914.489)" fill="#fff"/>
        <path id="Tracciato_73804" data-name="Tracciato 73804" d="M349.1,951.89l-.119,3.424-.691,19.911-8.618,13.125-1.676,1.8,5.045,5.444a34.6,34.6,0,0,1-1.529-5.216c-.205-1.66,10.5-13.188,10.5-13.188a1.565,1.565,0,0,0,.394-.8l.048-.288,3.334-20.106.561-3.379Z" transform="translate(-337.072 -914.489)" fill="#fff"/>
        <path id="Tracciato_73805" data-name="Tracciato 73805" d="M411.93,947.81h10.108l4.36,35.174-5.881.856Z" transform="translate(-398.587 -911.041)" fill="#333435"/>
        <path id="Tracciato_73806" data-name="Tracciato 73806" d="M356.935,947.81h9.711s-1.779,22.482-3.229,25.125c-1.738,3.168-8.615,10.52-8.615,10.52l-4.672-3.609s4.92-6.966,6.109-10.235.694-21.8.694-21.8Z" transform="translate(-346.366 -911.041)" fill="#333435"/>
        <path id="Tracciato_73807" data-name="Tracciato 73807" d="M433.74,820.863c.739,1.921,1.563,3.869,2.437,5.748.44.941.9,1.871,1.381,2.771a23.552,23.552,0,0,0,1.555,2.555,18.462,18.462,0,0,0,1.983,2.184c.738.719,1.507,1.425,2.293,2.117,1.57,1.381,3.2,2.734,4.842,4.032l.794.628-1.164,1.581-.828-.581c-1.761-1.235-3.474-2.5-5.169-3.826-.846-.663-1.682-1.347-2.507-2.062q-.619-.535-1.225-1.113c-.2-.2-.4-.384-.606-.606s-.4-.453-.589-.681a26.023,26.023,0,0,1-1.9-2.782c-.57-.939-1.1-1.891-1.606-2.847-1.014-1.921-1.942-3.839-2.83-5.836l-.69-1.552,3.223-1.313.609,1.584Z" transform="translate(-413.78 -802.434)" fill="#fff"/>
        <path id="Tracciato_73808" data-name="Tracciato 73808" d="M436.5,833.678l-3.7,5.169s-4.757-5.483-7.144-8.955c-3-4.365-7.172-11.195-3.717-13.4,4.514-2.877,7.05,9.669,8.772,11.993C432.1,830.369,436.5,833.678,436.5,833.678Z" transform="translate(-405.936 -799.722)" fill="#fff"/>
        <path id="Tracciato_73809" data-name="Tracciato 73809" d="M396.722,807.85s2.077,1.821,4.156.608c0,0,.711,7.591,1.64,10.686s3.344,10.973,3.344,10.973l-14.785.26c-.4-6.929,2.215-14.8,5.645-22.527Z" transform="translate(-380.931 -792.776)" fill="#96d1f1"/>
        <path id="Tracciato_73810" data-name="Tracciato 73810" d="M385.532,825.334c-1.046,1.764-2.063,3.607-3,5.447-.467.924-.915,1.852-1.325,2.785a24.227,24.227,0,0,0-1.056,2.789c-.067.229-.122.446-.172.67l-.147.739c-.088.5-.174,1.006-.248,1.519-.15,1.023-.277,2.058-.394,3.1-.225,2.077-.408,4.177-.55,6.264l-.07,1.009-1.962-.07.011-1.011c.025-2.135.087-4.25.2-6.383.057-1.065.127-2.133.223-3.207.046-.536.107-1.077.171-1.621l.116-.823c.05-.294.108-.592.175-.874a26.763,26.763,0,0,1,1.018-3.192c.387-1.022.806-2.018,1.243-3,.879-1.973,1.806-3.881,2.816-5.805l.789-1.5,3.029,1.714Z" transform="translate(-368.742 -804.868)" fill="#fff"/>
        <path id="Tracciato_73811" data-name="Tracciato 73811" d="M391.943,802.14s-7.219,10.8-5.749,22.313c0,0-.62,2.262,7.571,1.953s8.66-1.44,8.66-1.44a78.992,78.992,0,0,1-5.608-21.6S393.754,803.482,391.943,802.14Z" transform="translate(-376.674 -787.951)" fill="#da2022"/>
        <path id="Tracciato_73812" data-name="Tracciato 73812" d="M376.27,841.746l-6.34.5a79.237,79.237,0,0,1,1.679-11.223c1.4-5.109,3.931-12.7,7.84-11.48,5.109,1.6-2.844,11.624-3.509,14.439-.538,2.276.329,7.76.329,7.76Z" transform="translate(-363.097 -802.55)" fill="#fff"/>
        <path id="Tracciato_73813" data-name="Tracciato 73813" d="M369.461,999.655c-.667-.2-1.08-1.843-.687-3.872.363-1.871,1.421-2.922,2.108-2.776C372.417,993.333,370.492,999.964,369.461,999.655Z" transform="translate(-361.992 -949.221)" fill="#fff"/>
        <path id="Tracciato_73814" data-name="Tracciato 73814" d="M550.571,964.69c-.4.572-2.083.463-3.892-.532-1.668-.918-2.341-2.246-1.99-2.855.781-1.361,6.492,2.5,5.883,3.388Z" transform="translate(-510.691 -922.199)" fill="#fff"/>
        <path id="Tracciato_73817" data-name="Tracciato 73817" d="M358.146,711.37a4.325,4.325,0,0,0-2.223.465c-1.2.622-2.782,2.107-3.1,5.472-.293,3.137.964,4.673-1.718,7.634-3.016,2.289-8.391,1.9-7.769,7.037s7.434,4.467,9.054,1.9,1.437-4.859,2.338-6.478,2.465-.67,3.246-2.457c.918-1.682-.674-5.451-.961-6.1a1.987,1.987,0,0,1,1.465-1.606c2.2-.6,4.021-2.68,4.021-3.351s-2.01-2.513-4.356-2.513Z" transform="translate(-340.587 -711.251)" fill="#0b0d3f"/>
        <path id="Tracciato_73818" data-name="Tracciato 73818" d="M429.766,748.917a.852.852,0,1,1-1.175-.575A.933.933,0,0,1,429.766,748.917Z" transform="translate(-412.279 -742.439)" fill="#fff"/>
        <g id="Raggruppa_27745" data-name="Raggruppa 27745" transform="translate(30.769 22.107)">
          <path id="Tracciato_73819" data-name="Tracciato 73819" d="M590.214,864.806c-.026.15-.048.3-.065.45a6.9,6.9,0,0,0,13.565,2.392c.036-.147.067-.294.093-.445a6.934,6.934,0,0,0,.084-1.769,6.836,6.836,0,0,0-.1-.753,6.985,6.985,0,0,0-.37-1.251,6.9,6.9,0,0,0-10.365-3.078,7.047,7.047,0,0,0-1.181,1.043,6.782,6.782,0,0,0-1.132,1.721,6.939,6.939,0,0,0-.526,1.691Z" transform="translate(-579.914 -858.188)" fill="#fff" opacity="0.4"/>
          <g id="Raggruppa_27744" data-name="Raggruppa 27744" transform="translate(10.235 3.207)">
            <path id="Tracciato_73820" data-name="Tracciato 73820" d="M596.48,874.958l12.694,2.238a6.971,6.971,0,0,0-.37-1.251l-11.546-2.035A6.811,6.811,0,0,0,596.48,874.958Z" transform="translate(-595.534 -873.91)" fill="#fff" opacity="0.4"/>
            <path id="Tracciato_73821" data-name="Tracciato 73821" d="M590.445,886.691c-.026.15-.048.3-.065.449l13.565,2.392c.036-.147.067-.295.093-.445a6.938,6.938,0,0,0,.084-1.769L590.969,885a6.942,6.942,0,0,0-.525,1.691Z" transform="translate(-590.38 -883.281)" fill="#fff" opacity="0.4"/>
          </g>
          <path id="Tracciato_73822" data-name="Tracciato 73822" d="M524.35,940.479a3.2,3.2,0,0,0,2.424,2.424q3.6-3.764,7.257-7.617l.707-.742q.251-.263.5-.529l.707-.744,1.428-1.5-1.89-1.89-1.5,1.428-.744.707-.529.5-.742.707q-3.848,3.66-7.617,7.257Z" transform="translate(-524.35 -917.997)" fill="#d21919"/>
          <path id="Tracciato_73823" data-name="Tracciato 73823" d="M597.557,855.508a7.813,7.813,0,1,0,0,11.049A7.814,7.814,0,0,0,597.557,855.508Zm-1.288,9.761a5.967,5.967,0,1,1,1.316-1.981A5.946,5.946,0,0,1,596.269,865.269Z" transform="translate(-574.94 -853.22)" fill="#d21919"/>
          <path id="Tracciato_73824" data-name="Tracciato 73824" d="M581.69,939.8l2,2,.707-.744-1.964-1.964Z" transform="translate(-572.802 -925.78)" fill="#ff8080"/>
          <path id="Tracciato_73825" data-name="Tracciato 73825" d="M573.49,947.587l2.063,2.063.707-.742-2.027-2.028Z" transform="translate(-565.873 -932.362)" fill="#ff8080"/>
        </g>
        <path id="Tracciato_73826" data-name="Tracciato 73826" d="M553.8,959.676c.064-.3-.581-.832-1.587-1.147-.927-.29-1.645-.129-1.738.167-.206.659,3.226,1.443,3.325.981Z" transform="translate(-515.646 -919.969)" fill="#fff"/>
        <path id="Tracciato_74217" data-name="Tracciato 74217" d="M293.209,1774.654h-2.181a1.312,1.312,0,0,1-1.042-.51c-.68-.884-2.089-2.607-2.763-2.652-.906-.061-.791,3.163-.791,3.163h-.508l-.644-4.006a2.371,2.371,0,0,1,1.244-2.478h0a3.354,3.354,0,0,0,1.332,2.211c1.124.678,4.574,3.107,4.574,3.107a3.1,3.1,0,0,1,.886.024.577.577,0,0,1-.107,1.143Z" transform="translate(-260.71 -1690.808)" fill="#48494b"/>
        <path id="Tracciato_74218" data-name="Tracciato 74218" d="M293.209,1774.654h-2.181a1.312,1.312,0,0,1-1.042-.51c-.68-.884-2.089-2.607-2.763-2.652-.906-.061-.791,3.163-.791,3.163h-.508l-.644-4.006a2.371,2.371,0,0,1,1.244-2.478h0a3.354,3.354,0,0,0,1.332,2.211c1.124.678,4.574,3.107,4.574,3.107a3.1,3.1,0,0,1,.886.024.577.577,0,0,1-.107,1.143Z" transform="matrix(0.951, 0.309, -0.309, 0.951, 276.087, -1695.978)" fill="#48494b"/>
      </g>
    </g>
  </g>
</svg>
