<svg xmlns="http://www.w3.org/2000/svg" width="18" height="18" viewBox="0 0 18 18">
  <g id="Lista" transform="translate(-135 -12)">
    <rect id="Rettangolo_146240" data-name="Rettangolo 146240" width="18" height="18" transform="translate(135 12)" fill="none"/>
    <path id="Icon_material-map" data-name="Icon material-map" d="M22,4.5l-.16.03L16.5,6.6l-6-2.1L4.86,6.4a.5.5,0,0,0-.36.48V22a.5.5,0,0,0,.5.5l.16-.03L10.5,20.4l6,2.1,5.64-1.9a.5.5,0,0,0,.36-.48V5A.5.5,0,0,0,22,4.5Zm-5.5,16-6-2.11V6.5l6,2.11Z" transform="translate(130.5 7.5)" fill="#fff"/>
  </g>
</svg>
