<svg xmlns="http://www.w3.org/2000/svg" width="20" height="21" viewBox="0 0 20 21">
  <path id="Icon_metro-location-city" data-name="Icon metro-location-city" d="M13.093,15.089V8.457l3.333-3.316L19.76,8.457v2.211h6.667V26.141h-20V15.089h6.667Zm8.889,8.842H24.2V21.72H21.982Zm0-4.421H24.2V17.3H21.982Zm0-4.421H24.2V12.878H21.982Zm-6.667,8.842h2.222V21.72H15.316Zm0-4.421h2.222V17.3H15.316Zm0-4.421h2.222V12.878H15.316Zm0-4.421h2.222V8.457H15.316ZM8.649,23.931h2.222V21.72H8.649v2.211Zm0-4.421h2.222V17.3H8.649Z" transform="translate(-6.427 -5.141)" fill="#fff"/>
</svg>
