<svg xmlns="http://www.w3.org/2000/svg" width="80" height="80" viewBox="0 0 80 80">
  <g id="Raggruppa_28681" data-name="Raggruppa 28681" transform="translate(-132 -32)">
    <g id="logo" transform="translate(109)">
      <rect id="Rettangolo_145801" data-name="Rettangolo 145801" width="80" height="80" transform="translate(23 32)" fill="none"/>
      <g id="Raggruppa_28703" data-name="Raggruppa 28703" transform="translate(43.375 52.371)">
        <g id="Raggruppa_28704" data-name="Raggruppa 28704" transform="translate(0.54 0.629)">
          <path id="Tracciato_74325" data-name="Tracciato 74325" d="M164.1,37.393a4.755,4.755,0,0,0-6.724,0" transform="translate(-134.498 -31.245)" fill="none" stroke="#1976d2" stroke-width="1.5"/>
          <path id="Tracciato_74326" data-name="Tracciato 74326" d="M156.145,22.089a7.132,7.132,0,0,0-10.086,0" transform="translate(-124.866 -17.623)" fill="none" stroke="#1976d2" stroke-width="1.5"/>
          <path id="Tracciato_74327" data-name="Tracciato 74327" d="M148.193,6.785a9.509,9.509,0,0,0-13.448,0" transform="translate(-115.233 -4)" fill="none" stroke="#1976d2" stroke-width="1.5"/>
          <path id="Tracciato_74328" data-name="Tracciato 74328" d="M167.272,50.784l1.891,1.891,1.891-1.891a2.675,2.675,0,0,0-3.782,0" transform="translate(-142.927 -43.165)" fill="#1976d2"/>
          <path id="Tracciato_74329" data-name="Tracciato 74329" d="M38.472,36h.594a2.972,2.972,0,0,1,2.972,2.972V61.557a2.972,2.972,0,0,1-2.972,2.972H6.972A2.972,2.972,0,0,1,4,61.557V38.972A2.972,2.972,0,0,1,6.972,36H21.83" transform="translate(-3.915 -31.245)" fill="none" stroke="#1976d2" stroke-width="1.5"/>
          <path id="Tracciato_74330" data-name="Tracciato 74330" d="M110.009,232.755H100.5L101.689,228h7.132Z" transform="translate(-86.076 -194.717)" fill="none" stroke="#1976d2" stroke-width="1.5"/>
          <line id="Linea_3028" data-name="Linea 3028" x2="38" transform="translate(0.104 31.015)" fill="none" stroke="#1976d2" stroke-width="1.5"/>
          <line id="Linea_3029" data-name="Linea 3029" x2="18" transform="translate(10.104 38.015)" fill="none" stroke="#1976d2" stroke-width="1.5"/>
          <g id="Raggruppa_28706" data-name="Raggruppa 28706" transform="translate(-0.356 1.352)">
            <line id="Linea_3031" data-name="Linea 3031" y1="14.963" transform="translate(9.345 10.2)" fill="none" stroke="#1976d2" stroke-width="0.7"/>
            <path id="Tracciato_74332" data-name="Tracciato 74332" d="M48.4,53.287a5.268,5.268,0,0,1,1.69-3.379,5.268,5.268,0,0,1,1.689,3.379,5.268,5.268,0,0,1-1.689,3.379A5.268,5.268,0,0,1,48.4,53.287Z" transform="translate(-40.742 -43.087)" fill="none" stroke="#1976d2" stroke-width="0.7"/>
            <path id="Tracciato_74333" data-name="Tracciato 74333" d="M58.688,84.2a6.586,6.586,0,0,1,4.48-1.493,6.585,6.585,0,0,1-1.493,4.48,6.585,6.585,0,0,1-4.48,1.493A6.586,6.586,0,0,1,58.688,84.2Z" transform="translate(-47.845 -69.584)" fill="none" stroke="#1976d2" stroke-width="0.7"/>
            <path id="Tracciato_74334" data-name="Tracciato 74334" d="M27.556,87.191a6.586,6.586,0,0,1-1.493-4.48,6.585,6.585,0,0,1,4.48,1.493,6.585,6.585,0,0,1,1.493,4.48A6.586,6.586,0,0,1,27.556,87.191Z" transform="translate(-22.695 -69.584)" fill="none" stroke="#1976d2" stroke-width="0.7"/>
            <line id="Linea_3032" data-name="Linea 3032" x1="3.379" y1="3.379" transform="translate(5.97 15.721)" fill="none" stroke="#1976d2" stroke-width="0.7"/>
            <line id="Linea_3033" data-name="Linea 3033" x1="3.379" y2="3.379" transform="translate(9.345 15.721)" fill="none" stroke="#1976d2" stroke-width="0.7"/>
          </g>
          <g id="Raggruppa_28705" data-name="Raggruppa 28705" transform="translate(13.476 12.196)">
            <g id="Raggruppa_28707" data-name="Raggruppa 28707" transform="translate(1)">
              <path id="Tracciato_74335" data-name="Tracciato 74335" d="M5,9.089,10.392,3.7l4.622,2.7L20.407,1" transform="translate(-3.074 -0.615)" fill="none" stroke="#1976d2" stroke-linecap="round" stroke-linejoin="round" stroke-width="0.7"/>
              <path id="Tracciato_74336" data-name="Tracciato 74336" d="M39,1h2.311V3.311" transform="translate(-23.978 -0.615)" fill="none" stroke="#1976d2" stroke-linecap="round" stroke-linejoin="round" stroke-width="0.7"/>
              <line id="Linea_3034" data-name="Linea 3034" x2="20" transform="translate(-0.371 14.318)" fill="none" stroke="#1976d2" stroke-width="0.7"/>
              <path id="Tracciato_74337" data-name="Tracciato 74337" d="M6.541,30.237V26H5v4.237" transform="translate(-3.074 -15.985)" fill="none" stroke="#1976d2" stroke-linejoin="round" stroke-width="0.7"/>
              <path id="Tracciato_74338" data-name="Tracciato 74338" d="M18.541,24.089V16H17v8.089" transform="translate(-10.452 -9.837)" fill="none" stroke="#1976d2" stroke-linejoin="round" stroke-width="0.7"/>
              <path id="Tracciato_74339" data-name="Tracciato 74339" d="M30.541,25.933V19H29v6.933" transform="translate(-17.83 -11.682)" fill="none" stroke="#1976d2" stroke-linejoin="round" stroke-width="0.7"/>
              <path id="Tracciato_74340" data-name="Tracciato 74340" d="M42.541,21.015V11H41V21.015" transform="translate(-25.208 -6.763)" fill="none" stroke="#1976d2" stroke-linejoin="round" stroke-width="0.7"/>
            </g>
          </g>
        </g>
      </g>
    </g>
    <g id="Rettangolo_164143" data-name="Rettangolo 164143" transform="translate(132 32)" fill="none" stroke="#1976d2" stroke-width="2">
      <rect width="80" height="80" rx="40" stroke="none"/>
      <rect x="1" y="1" width="78" height="78" rx="39" fill="none"/>
    </g>
  </g>
</svg>
