<svg xmlns="http://www.w3.org/2000/svg" width="80" height="80" viewBox="0 0 80 80">
  <g id="Raggruppa_28681" data-name="Raggruppa 28681" transform="translate(-132 -32)">
    <g id="logo" transform="translate(109)">
      <rect id="Rettangolo_145801" data-name="Rettangolo 145801" width="80" height="80" transform="translate(23 32)" fill="none"/>
      <g id="noun-checking-2610129" transform="translate(-41.75 37.25)">
        <path id="Tracciato_73473" data-name="Tracciato 73473" d="M130.75,27.2H113.976V12.944a4.2,4.2,0,0,0-4.194-4.194H91.331a4.2,4.2,0,0,0-4.194,4.194V24.685a5.906,5.906,0,0,0-3.522,1.174L81.826,27.2H78.75V40.621h3.076l1.789,1.342a5.9,5.9,0,0,0,3.523,1.174v6.71a4.2,4.2,0,0,0,4.194,4.194h3.621l1.7,2.121a2.519,2.519,0,0,1,.553,1.572V60.75h13.419V57.733a2.519,2.519,0,0,1,.552-1.572l1.884-2.356a4.211,4.211,0,0,0,.919-2.619V49.648l2.961,3.554H130.75V51.524h-6.71v-6.71h1.677a5.037,5.037,0,0,0,5.032-5.032V38.1H127.4a5.035,5.035,0,0,0-4.712,3.283,5.018,5.018,0,0,0-3.675-1.605h-3.355v1.677a5.037,5.037,0,0,0,5.032,5.032h1.677v5.032h-4.639l-3.748-4.5V39.782a2.519,2.519,0,0,0-2.516-2.516,2.487,2.487,0,0,0-.839.154V18.814H90.492v5.871H88.815V17.137H112.3V28.879H130.75Zm-3.355,12.581h1.677a3.358,3.358,0,0,1-3.355,3.355H124.04A3.358,3.358,0,0,1,127.395,39.782Zm-6.71,5.032a3.358,3.358,0,0,1-3.355-3.355h1.677a3.358,3.358,0,0,1,3.355,3.355ZM84.621,40.621l-2.237-1.677H80.427V28.879h1.957L84.622,27.2a4.213,4.213,0,0,1,2.515-.839h7.548a.839.839,0,1,1,0,1.677H88.16L88,28.675a3.587,3.587,0,0,1-3.484,2.72h-.735v1.677h.735a5.241,5.241,0,0,0,2.619-.712v9.1a4.217,4.217,0,0,1-2.516-.839ZM101.395,27.2a2.519,2.519,0,0,0-2.516,2.516v.839H95.524v-.993a2.5,2.5,0,0,0,0-4.724v-.993h10.064v6.71h-1.677v-.839A2.519,2.519,0,0,0,101.395,27.2ZM88.814,30.83a5.231,5.231,0,0,0,.611-1.113h1.066V43.976h1.945l.279,1.677h-3.9Zm3.355,11.316c0,.05.009.1.013.152h-.013Zm0-.535V29.718h1.677v2.516h5.032V47.816a1.174,1.174,0,0,1-.314-.608l-1.1-6.074a2.667,2.667,0,0,0-5.291.478Zm-3.355,8.235V47.33H93l.718,4.308a4.136,4.136,0,0,0,.2.724H91.331a2.519,2.519,0,0,1-2.516-2.516Zm22.645-10.9a.839.839,0,0,1,.839.839v11.4a2.519,2.519,0,0,1-.552,1.572l-1.884,2.356a4.211,4.211,0,0,0-.919,2.619v1.339H98.879V57.733a4.216,4.216,0,0,0-.919-2.62L95.885,52.52a2.521,2.521,0,0,1-.516-1.157l-1.51-9.053a1.074,1.074,0,0,1-.012-.163v-.536a.99.99,0,0,1,1.964-.177l1.1,6.074a2.847,2.847,0,0,0,2.8,2.339h.839V29.717a.839.839,0,0,1,1.677,0V48.169h1.677V36.427a.839.839,0,1,1,1.677,0V48.169h1.677V38.1a.839.839,0,0,1,1.677,0V48.169h1.677V39.782a.839.839,0,0,1,.839-.839ZM92.169,20.492h16.774V35.743a2.413,2.413,0,0,0-1.775.03,2.474,2.474,0,0,0-3.257-1.708V32.234h3.355V22.169H93.847v2.516H92.169ZM88.814,15.46V12.944a2.519,2.519,0,0,1,2.516-2.516h18.451a2.519,2.519,0,0,1,2.516,2.516V15.46Z" fill="#1976d2"/>
        <path id="Tracciato_73474" data-name="Tracciato 73474" d="M271.25,43.75h6.71v1.677h-6.71Z" transform="translate(-174.049 -31.645)" fill="#1976d2"/>
        <path id="Tracciato_73475" data-name="Tracciato 73475" d="M358.75,43.75h1.677v1.677H358.75Z" transform="translate(-253.161 -31.645)" fill="#1976d2"/>
        <path id="Tracciato_73476" data-name="Tracciato 73476" d="M236.25,43.75h1.677v1.677H236.25Z" transform="translate(-142.403 -31.645)" fill="#1976d2"/>
        <path id="Tracciato_73477" data-name="Tracciato 73477" d="M463.75,236.25h13.419v1.677H463.75Z" transform="translate(-348.097 -205.694)" fill="#1976d2"/>
        <path id="Tracciato_73478" data-name="Tracciato 73478" d="M560,271.25h1.677v1.677H560Z" transform="translate(-435.121 -237.339)" fill="#1976d2"/>
        <path id="Tracciato_73479" data-name="Tracciato 73479" d="M525,271.25h1.677v1.677H525Z" transform="translate(-403.476 -237.339)" fill="#1976d2"/>
        <path id="Tracciato_73480" data-name="Tracciato 73480" d="M490,271.25h1.677v1.677H490Z" transform="translate(-371.831 -237.339)" fill="#1976d2"/>
        <path id="Tracciato_73481" data-name="Tracciato 73481" d="M494.194,45.6a4.2,4.2,0,0,0,4.194-4.194v-.127a4.167,4.167,0,0,0-.361-1.7l-3.832-8.622-3.832,8.622a4.17,4.17,0,0,0-.361,1.7v.127a4.2,4.2,0,0,0,4.194,4.194Zm-2.516-4.32a2.488,2.488,0,0,1,.217-1.021l2.3-5.174,2.3,5.173a2.5,2.5,0,0,1,.217,1.023v.127a2.516,2.516,0,1,1-5.032,0Z" transform="translate(-371.832 -20.078)" fill="#1976d2"/>
      </g>
    </g>
    <g id="Rettangolo_164143" data-name="Rettangolo 164143" transform="translate(132 32)" fill="none" stroke="#1976d2" stroke-width="2">
      <rect width="80" height="80" rx="40" stroke="none"/>
      <rect x="1" y="1" width="78" height="78" rx="39" fill="none"/>
    </g>
  </g>
</svg>
