<svg xmlns="http://www.w3.org/2000/svg" width="261.94" height="199.999" viewBox="0 0 261.94 199.999">
  <g id="_ÎÓÈ_2" transform="translate(0.001 -733.346)">
    <g id="Raggruppa_27740" data-name="Raggruppa 27740" transform="translate(-0.001 733.346)">
      <path id="Tracciato_73640" data-name="Tracciato 73640" d="M260.154,115.649c-5.2-21.478-20.911-37.808-40.814-45.384a4.583,4.583,0,0,1-2.806-5.454q.091-.344.177-.693c6.954-28.068-8.917-56.158-35.449-62.739C161.212-3.6,140.813,5.138,129.04,21.814a26.669,26.669,0,0,1-27.165,10.795,84.517,84.517,0,1,0,24.6,156.37,28.207,28.207,0,0,1,28.161.291,71.867,71.867,0,0,0,53.032,7.368c37.615-9.126,61.116-45.386,52.49-80.989Z" transform="translate(0.001 0.011)" fill="#e4dbae" opacity="0.4"/>
      <path id="Tracciato_73641" data-name="Tracciato 73641" d="M18.519,344.218c-5.9,23.513,42.192,36.531,41.979,41.163s-24.93.688-20.35,13.408c4.244,11.785,42.794,17.668,71.524,5.387.831-.355,22.068-34.578,8.054-55.509s-19.607,14.063-26.4,12.925,9.6-43.784-4.01-53.484C75.208,298.058,69.7,328.87,63.1,323.89c-6.254-4.717-8.129-48.816-25.987-43.714a14.065,14.065,0,0,0-2,.751l-.008,0h0q-.547.253-1.114.565c-20.79,11.443,16.506,59.09,7.6,60.572S21.51,332.3,18.523,344.218Z" transform="translate(-15.07 -233.958)" fill="#487f00"/>
      <path id="Tracciato_73642" data-name="Tracciato 73642" d="M220.848,597.064s-9.055-40.322-20.628-63.678-23.9-31.056-23.9-31.056a118.21,118.21,0,0,1,9.533,24.327c3.7,13.858,4.657,28.455,10.439,42.019,8.747,20.522,24.558,28.387,24.558,28.387Z" transform="translate(-147.47 -420.082)" fill="#94c13e"/>
      <path id="Tracciato_73643" data-name="Tracciato 73643" d="M199.754,761.167s-10.4-26.994-20.81-41.982S159.21,700.13,159.21,700.13A82.7,82.7,0,0,1,168.3,716c3.984,9.218,6.141,19.228,11.535,28.029C188,757.342,199.754,761.167,199.754,761.167Z" transform="translate(-133.159 -585.496)" fill="#94c13e"/>
      <path id="Tracciato_73644" data-name="Tracciato 73644" d="M1184.311,579.4c4.459-.527,12.5-2.736,15.434-6.967,2.706-3.9-.841-9.057,1.139-12.874s13.514-6.227,16.675-10.631c3.748-5.221-4.748-9.92-.761-13.495s17.424-7.322,18.63-11.754-4.153-4.516.674-12.642c4.087-6.882,9.562-15.906,4.793-19.965-5.084-4.326-11.591,2.679-15.048,8.224-4.455,7.143-8.528-.756-13.453,2.458-4.452,2.9-4.511,19.783-7.927,23s-9.726.441-14.49,6.063S1191.5,545.737,1189,550s-9.191,2.323-12.777,8.375,8.091,21.024,8.091,21.024Z" transform="translate(-983.192 -409.543)" fill="#557c0a"/>
      <path id="Tracciato_73645" data-name="Tracciato 73645" d="M1238.008,806.385c-.463,11.391-23.886,10.868-24.4,12.985s11.154,3.625,7.4,8.755c-3.48,4.751-21.651,2.277-32.98-7.083-.327-.272-5.362-18.533,3.74-26.112s6.977,8.951,10.192,9.342,1.483-21.028,8.912-23.593c7.7-2.657,6.088,11.974,9.729,10.606,3.447-1.3,10.151-20.939,17.529-16.263a6.561,6.561,0,0,1,.8.606h0v0c.142.124.285.259.429.4,7.859,7.928-15.3,24.459-11.472,26.313S1238.244,800.613,1238.008,806.385Z" transform="translate(-992.229 -647.526)" fill="#94c13e"/>
      <g id="Raggruppa_27732" data-name="Raggruppa 27732" transform="translate(38.047 69.492)">
        <path id="Tracciato_73646" data-name="Tracciato 73646" d="M490.185,424.42H352.753a10.386,10.386,0,0,0-10.383,10.39v92.862a10.387,10.387,0,0,0,10.383,10.39H490.187a10.389,10.389,0,0,0,10.383-10.39V434.81a10.387,10.387,0,0,0-10.383-10.39Z" transform="translate(-324.398 -424.42)" fill="#969aa1"/>
        <path id="Tracciato_73647" data-name="Tracciato 73647" d="M526.633,466.42v84.807c0,.142,0,.285-.01.426a9.432,9.432,0,0,1-.244,1.758,9.544,9.544,0,0,1-9.3,7.307H390.662a9.534,9.534,0,0,1-9.531-8.856c0-.07-.01-.139-.011-.208-.007-.141-.01-.283-.01-.426V466.421c0-.213.008-.424.021-.634a9.385,9.385,0,0,1,.931-3.5,9.563,9.563,0,0,1,7.728-5.316c.288-.026.578-.039.872-.039H517.08c.293,0,.586.013.872.039a9.562,9.562,0,0,1,8.091,6.161,9.426,9.426,0,0,1,.589,3.291Z" transform="translate(-356.799 -451.607)" fill="#dedede"/>
        <g id="Raggruppa_27731" data-name="Raggruppa 27731" transform="translate(26.664 12.624)">
          <g id="Raggruppa_27730" data-name="Raggruppa 27730">
            <path id="Tracciato_73648" data-name="Tracciato 73648" d="M438.7,579.061a38.7,38.7,0,0,1-28.518-8.2q-.68-.54-1.332-1.108a38.761,38.761,0,0,1-11.709-18.109c-.052-.172-.1-.345-.151-.517A38.866,38.866,0,1,1,438.7,579.061Z" transform="translate(-395.488 -501.523)" fill="#de9e73"/>
            <path id="Tracciato_73649" data-name="Tracciato 73649" d="M615.02,522.208l-34.354,18.208L570.42,502.9a38.843,38.843,0,0,1,44.6,19.31Z" transform="translate(-541.797 -501.523)" fill="#c75a54"/>
            <path id="Tracciato_73650" data-name="Tracciato 73650" d="M434.357,547.43,397.14,558.659c-.052-.172-.1-.345-.151-.517a57.353,57.353,0,0,1-1.253-6.368,38.844,38.844,0,0,1,28.374-41.864l10.246,37.52Z" transform="translate(-395.488 -508.537)" fill="#f4d893"/>
            <path id="Tracciato_73651" data-name="Tracciato 73651" d="M442.8,739.06,417.289,768.4A38.76,38.76,0,0,1,405.58,750.29L442.8,739.062Z" transform="translate(-403.929 -700.168)" fill="#939e6a"/>
            <path id="Tracciato_73652" data-name="Tracciato 73652" d="M502.624,739.06l-16.712,35.11a39.079,39.079,0,0,1-8.8-5.763l25.514-29.345Z" transform="translate(-463.755 -700.168)" fill="#586b8f"/>
          </g>
          <rect id="Rettangolo_163465" data-name="Rettangolo 163465" width="10.284" height="7.761" transform="translate(90.817 8.996)" fill="#de9e73"/>
          <rect id="Rettangolo_163466" data-name="Rettangolo 163466" width="10.284" height="7.761" transform="translate(90.817 21.471)" fill="#c75a54"/>
          <rect id="Rettangolo_163467" data-name="Rettangolo 163467" width="10.284" height="7.761" transform="translate(90.817 33.946)" fill="#f4d893"/>
          <rect id="Rettangolo_163468" data-name="Rettangolo 163468" width="10.284" height="7.761" transform="translate(90.817 46.418)" fill="#939e6a"/>
          <rect id="Rettangolo_163469" data-name="Rettangolo 163469" width="10.284" height="7.761" transform="translate(90.817 58.893)" fill="#586b8f"/>
          <rect id="Rettangolo_163470" data-name="Rettangolo 163470" width="10.905" height="4.285" transform="translate(105.259 10.269)" fill="#bbc9e6"/>
          <rect id="Rettangolo_163471" data-name="Rettangolo 163471" width="20.013" height="4.285" transform="translate(119.646 10.269)" fill="#bbc9e6"/>
          <rect id="Rettangolo_163472" data-name="Rettangolo 163472" width="23.668" height="4.285" transform="translate(105.259 23.21)" fill="#bbc9e6"/>
          <rect id="Rettangolo_163473" data-name="Rettangolo 163473" width="8.991" height="4.285" transform="translate(130.666 23.21)" fill="#bbc9e6"/>
          <rect id="Rettangolo_163474" data-name="Rettangolo 163474" width="34.398" height="4.285" transform="translate(105.259 36.151)" fill="#bbc9e6"/>
          <rect id="Rettangolo_163475" data-name="Rettangolo 163475" width="6.846" height="4.285" transform="translate(105.259 49.092)" fill="#bbc9e6"/>
          <rect id="Rettangolo_163476" data-name="Rettangolo 163476" width="25.813" height="4.285" transform="translate(113.846 49.092)" fill="#bbc9e6"/>
          <rect id="Rettangolo_163477" data-name="Rettangolo 163477" width="20.549" height="4.285" transform="translate(105.259 62.033)" fill="#bbc9e6"/>
          <rect id="Rettangolo_163478" data-name="Rettangolo 163478" width="12.182" height="4.285" transform="translate(127.477 62.033)" fill="#bbc9e6"/>
        </g>
        <path id="Tracciato_73653" data-name="Tracciato 73653" d="M232.53,1035.46v3.206c0,5.739,5.706,10.392,12.745,10.392H413.929c7.037,0,12.745-4.653,12.745-10.392v-3.206Z" transform="translate(-232.53 -935.415)" fill="#969aa1"/>
        <path id="Tracciato_73654" data-name="Tracciato 73654" d="M683.57,1035.46v1.154c0,2.066,1.368,3.741,3.055,3.741h40.431c1.687,0,3.055-1.675,3.055-3.741v-1.154H683.57Z" transform="translate(-609.77 -935.415)" fill="#707070"/>
      </g>
      <g id="Raggruppa_27739" data-name="Raggruppa 27739" transform="translate(164.716 87.438)">
        <g id="Raggruppa_27736" data-name="Raggruppa 27736" transform="translate(26.151 1.36)">
          <path id="Tracciato_73678" data-name="Tracciato 73678" d="M1305.07,601.248h3.834V593.91h-2.343Z" transform="translate(-1282.398 -585.466)" fill="#fff"/>
          <path id="Tracciato_73679" data-name="Tracciato 73679" d="M1286.367,551.126c-.648,3.013-.169,6.05,1.648,6.71,1.7.617,4.663-1.017,6.016-3.995,1.425-3.135.73-5.478-1.795-6.351-2.682-.927-5.161.336-5.871,3.636Z" transform="translate(-1266.525 -546.399)" fill="#fff"/>
          <path id="Tracciato_73680" data-name="Tracciato 73680" d="M1292.3,542.361a4.689,4.689,0,0,1,4.151,5.248c-.167,2.335-2.662,3.582-2.662,3.582s-.823-2.371-2.173-2.749c-1.882-.527-1.068-2.21-1.947-2.392-.916-.19-2.909-.917-2.876-2.251,1.289.046,2.374-1.683,5.506-1.439Z" transform="translate(-1267.107 -542.336)" fill="#0b0d3f"/>
          <path id="Tracciato_73681" data-name="Tracciato 73681" d="M1318.233,579.415a.848.848,0,1,0,1.17-.571A.929.929,0,0,0,1318.233,579.415Z" transform="translate(-1293.32 -572.815)" fill="#fff"/>
          <path id="Tracciato_73682" data-name="Tracciato 73682" d="M1291.287,579.36a17.224,17.224,0,0,1-.831,4.493,2.3,2.3,0,0,1-4.19-.367s1.3.272,1.155-.28c-.173-.65-1.514-.657-1.514-.657a.336.336,0,0,1-.309-.254,2.559,2.559,0,0,1,.1-.938,11.8,11.8,0,0,0,2.538.634c.867,0,1.653-.612,2.386-2.631Z" transform="translate(-1266.098 -573.298)" fill="#0b0d3f"/>
          <path id="Tracciato_73683" data-name="Tracciato 73683" d="M1251.265,800.783l3.525-19.724,2.394-9.719,2.41-9.739.82-3.311,6.911,2.205-1.25,3.173-3.642,9.246c-1.211,3.086-2.441,6.173-3.639,9.27l-5.92,18.993-.247.792-1.507-.368.146-.817Z" transform="translate(-1237.275 -722.932)" fill="#fff"/>
          <path id="Tracciato_73684" data-name="Tracciato 73684" d="M1293.207,758.753l.275,3.4,1.559,19.261,14.554,6.826.751.352-.55,1.434-.794-.241-16.689-5.048a1.835,1.835,0,0,1-1.26-1.372l-.059-.278-4.244-19.95-.71-3.337,7.167-1.049Z" transform="translate(-1266.482 -723.317)" fill="#fff"/>
          <path id="Tracciato_73685" data-name="Tracciato 73685" d="M1269.661,745.93l-12.921,2.51-4.04,38.643,4.334.594Z" transform="translate(-1238.597 -712.596)" fill="#222221"/>
          <path id="Tracciato_73686" data-name="Tracciato 73686" d="M1293.586,752.362l-13.036-1.822s2,24.193,5.9,27.279c2.17,1.716,14.225,4.606,14.225,4.606l1.3-3.7s-9.076-3.676-9.835-4.814C1291.31,772.671,1293.586,752.362,1293.586,752.362Z" transform="translate(-1261.89 -716.451)" fill="#222221"/>
          <path id="Tracciato_73687" data-name="Tracciato 73687" d="M1207.809,640.086l-8.544,12.219,1.554-.434-10.078-3.828-.915-.347-.726,1.754.892.4,9.825,4.435a1.256,1.256,0,0,0,1.512-.378l.042-.056,9.086-11.821,1-1.3-2.708-1.989-.942,1.347Z" transform="translate(-1185.403 -622.956)" fill="#fff"/>
          <path id="Tracciato_73688" data-name="Tracciato 73688" d="M1226.588,644.607c-1.257,3.293-7.177,10.606-11.751,11.936-2.716.789-8.607-3.345-8.607-3.345l.857-2.654s4.465,2.968,6.866.688,6.653-9.581,8.819-9.986c1.908-.357,4.382,1.883,3.817,3.363Z" transform="translate(-1199.73 -625.02)" fill="#eb7975"/>
          <path id="Tracciato_73689" data-name="Tracciato 73689" d="M1280.1,629.26s-2.011,1.765-4.023.588a80.3,80.3,0,0,1-1.587,10.353c-.9,3-3.546,10.881-3.546,10.881h14.623c.391-6.713-2.143-14.338-5.465-21.822Z" transform="translate(-1253.852 -615.028)" fill="#d3c4ae"/>
          <path id="Tracciato_73690" data-name="Tracciato 73690" d="M1279.278,625.572a39.493,39.493,0,0,1,4.036,8.616,29.767,29.767,0,0,1,1.528,13s.6,2.191-7.329,1.893-8.384-1.395-8.384-1.395a76.547,76.547,0,0,0,5.429-20.921s2.965.11,4.719-1.192Z" transform="translate(-1252.339 -611.942)" fill="#da2022"/>
          <path id="Tracciato_73691" data-name="Tracciato 73691" d="M1313.06,641.642c.995,1.721,1.96,3.515,2.845,5.306.442.9.867,1.8,1.255,2.713a23.278,23.278,0,0,1,.993,2.711c.062.223.115.434.16.652l.134.717c.08.486.159.976.224,1.474.134.992.247,2,.349,3,.2,2.014.352,4.051.468,6.073l.057.977,1.9-.047v-.979c0-2.068-.042-4.118-.124-6.184-.044-1.033-.1-2.068-.183-3.109-.039-.521-.092-1.045-.149-1.572l-.1-.8c-.044-.287-.1-.575-.16-.848a26.232,26.232,0,0,0-.952-3.1c-.365-.994-.759-1.963-1.172-2.923-.829-1.921-1.708-3.779-2.665-5.652l-.748-1.464-2.95,1.629.823,1.423Z" transform="translate(-1288.395 -622.83)" fill="#fff"/>
          <path id="Tracciato_73692" data-name="Tracciato 73692" d="M1314.63,634.784c2.52,2.463,3.971,8.054,5.043,12.7s.2,11.7.2,11.7l-2.89.128s-.165-7.178-1.3-10.289-6.142-9.917-5.653-12.067c.432-1.894,3.469-3.275,4.6-2.168Z" transform="translate(-1286.517 -619.318)" fill="#ff777c"/>
          <path id="Tracciato_73693" data-name="Tracciato 73693" d="M1166.545,687.612c-.222.635.543,1.78,1.954,2.464,1.3.632,2.467.3,2.733-.331.592-1.4-4.343-3.117-4.686-2.135Z" transform="translate(-1166.507 -663.583)" fill="#e0ba90"/>
          <path id="Tracciato_73694" data-name="Tracciato 73694" d="M1357.984,802.807c.671-.052,1.4-1.521,1.446-3.52.043-1.844-.743-3.054-1.423-3.057-1.518-.007-1.06,6.656-.023,6.575Z" transform="translate(-1325.857 -754.66)" fill="#fff"/>
          <path id="Tracciato_73695" data-name="Tracciato 73695" d="M1352.2,802.593c-.281-.092-.414-.892-.19-1.888.208-.919.692-1.439.984-1.374.651.147-.36,3.4-.8,3.261Z" transform="translate(-1321.564 -757.249)" fill="#fff"/>
          <path id="Tracciato_73696" data-name="Tracciato 73696" d="M1215.107,1021.17s1-.264,1.273-.364c1.1-.4,3.955-1.567,3.955-1.567a1.716,1.716,0,0,0,1.232.678,2.329,2.329,0,0,0,1.145-.154c.281-.008.525.445.542,1.015a1.945,1.945,0,0,1-.052.514l.023.791-8.41.252-.024-.8a.358.358,0,0,1,.316-.367Z" transform="translate(-1206.89 -941.157)" fill="#0b0d3f"/>
          <path id="Tracciato_73697" data-name="Tracciato 73697" d="M1426.361,944.9s.039-1.031.025-1.325c-.057-1.171-.345-4.242-.345-4.242a1.714,1.714,0,0,0,1.006-.982,2.314,2.314,0,0,0,.187-1.141c.074-.272.579-.372,1.129-.223a1.922,1.922,0,0,1,.476.2l.762.208-2.21,8.124-.772-.211a.359.359,0,0,1-.259-.409Z" transform="translate(-1383.575 -872.313)" fill="#0b0d3f"/>
          <path id="Tracciato_73698" data-name="Tracciato 73698" d="M1177.793,684.049c.2-.221.983-.026,1.806.576.759.555,1.045,1.208.869,1.449-.394.54-2.979-1.683-2.675-2.027Z" transform="translate(-1175.926 -660.773)" fill="#fff"/>
        </g>
        <g id="Raggruppa_27738" data-name="Raggruppa 27738">
          <path id="Tracciato_73699" data-name="Tracciato 73699" d="M1039.444,553.254c.046.255.082.511.109.768a11.756,11.756,0,0,1-23.105,4.077c-.061-.251-.115-.5-.159-.758a11.836,11.836,0,0,1-.144-3.014,11.232,11.232,0,0,1,.177-1.284,11.76,11.76,0,0,1,18.288-7.383,11.911,11.911,0,0,1,2.013,1.78,11.559,11.559,0,0,1,1.926,2.932,11.8,11.8,0,0,1,.9,2.882Z" transform="translate(-1014.565 -541.975)" fill="#ed0009" opacity="0.4"/>
          <g id="Raggruppa_27737" data-name="Raggruppa 27737" transform="translate(1.541 5.464)">
            <path id="Tracciato_73700" data-name="Tracciato 73700" d="M1039.033,569.188,1017.41,573a11.765,11.765,0,0,1,.632-2.132l19.668-3.471a11.513,11.513,0,0,1,1.322,1.786Z" transform="translate(-1017.195 -567.4)" fill="#ed0009" opacity="0.4"/>
            <path id="Tracciato_73701" data-name="Tracciato 73701" d="M1039.436,588.21c.046.255.082.511.109.768l-23.107,4.077c-.061-.251-.115-.5-.159-.758a11.834,11.834,0,0,1-.144-3.014l22.4-3.952a11.806,11.806,0,0,1,.9,2.882Z" transform="translate(-1016.097 -582.394)" fill="#ed0009" opacity="0.4"/>
          </g>
          <path id="Tracciato_73702" data-name="Tracciato 73702" d="M1152.562,675.8a5.446,5.446,0,0,1-4.128,4.131q-6.126-6.417-12.362-12.984-.6-.634-1.2-1.266-.427-.449-.854-.9l-1.2-1.267-2.432-2.561,3.219-3.221,2.559,2.433,1.266,1.2c.3.285.6.571.9.855q.633.6,1.265,1.205,6.556,6.236,12.975,12.37Z" transform="translate(-1110.14 -637.477)" fill="#ed0009"/>
          <path id="Tracciato_73703" data-name="Tracciato 73703" d="M1029.4,537.93a13.312,13.312,0,1,0,0,18.832A13.3,13.3,0,0,0,1029.4,537.93Zm-2.194,16.637a10.178,10.178,0,1,1,2.242-3.376A10.136,10.136,0,0,1,1027.2,554.567Z" transform="translate(-1006.68 -534.03)" fill="#ed0009"/>
          <path id="Tracciato_73704" data-name="Tracciato 73704" d="M1149.851,673.8l-3.408,3.411-1.2-1.267,3.346-3.348,1.266,1.2Z" transform="translate(-1122.568 -649.904)" fill="#ed0009"/>
          <path id="Tracciato_73705" data-name="Tracciato 73705" d="M1162.52,686.383,1159,689.9q-.6-.634-1.2-1.266l3.454-3.456q.633.6,1.265,1.205Z" transform="translate(-1133.073 -660.432)" fill="#ed0009"/>
        </g>
      </g>
    </g>
  </g>
</svg>
