<svg xmlns="http://www.w3.org/2000/svg" xmlns:xlink="http://www.w3.org/1999/xlink" width="80" height="80" viewBox="0 0 80 80">
  <defs>
    <clipPath id="clip-path">
      <rect id="Rettangolo_164162" data-name="Rettangolo 164162" width="37.639" height="42.148" transform="translate(0 0)" fill="#1976d2"/>
    </clipPath>
  </defs>
  <g id="Raggruppa_28683" data-name="Raggruppa 28683" transform="translate(-132 -32)">
    <g id="logo" transform="translate(109)">
      <rect id="Rettangolo_145801" data-name="Rettangolo 145801" width="80" height="80" transform="translate(23 32)" fill="none"/>
      <g id="Raggruppa_28701" data-name="Raggruppa 28701" transform="translate(44.181 50.923)">
        <g id="Raggruppa_28701-2" data-name="Raggruppa 28701" transform="translate(0 0.003)" clip-path="url(#clip-path)">
          <path id="Tracciato_74324" data-name="Tracciato 74324" d="M29.007,22.9V11.8a1.283,1.283,0,1,0-2.565,0V22.966a9.643,9.643,0,0,0-5.422,2.851V11.844a1.324,1.324,0,0,0-2.648,0V31.587c-.028.3-.043.6-.043.91a9.6,9.6,0,0,0,.746,3.72H10.2a5.674,5.674,0,0,1-5.668-5.668V11.8a1.283,1.283,0,1,0-2.565,0V30.549A8.242,8.242,0,0,0,10.2,38.783h10.46A9.653,9.653,0,1,0,29.007,22.9M27.984,40.391A7.893,7.893,0,1,1,35.877,32.5a7.9,7.9,0,0,1-7.893,7.894M25.639,29.72a.6.6,0,0,0-.5-.438h-.012l-.048,0h-.023a.6.6,0,0,0-.156.021l-1.591.426a.631.631,0,1,0,.31,1.223L23.8,30.9l-1.3,2.26a2.537,2.537,0,0,0,2.169,3.822.6.6,0,0,0,.6-.6c0-.011,0-.022,0-.033s0-.022,0-.033a.6.6,0,0,0-.6-.6,1.292,1.292,0,0,1-1.131-.653,1.179,1.179,0,0,1,0-1.24l1.328-2.3.044.164a.6.6,0,0,0,1.177-.189.593.593,0,0,0-.019-.187Zm1.214-1.643a1.306,1.306,0,0,1,2.262,0L30.342,30.2l-.137-.037a.6.6,0,0,0-.734.424.68.68,0,0,0,.424.8l1.591.426a.6.6,0,0,0,.155.02l.049,0a.6.6,0,0,0,.529-.442l.426-1.591a.679.679,0,0,0-.424-.8.6.6,0,0,0-.734.424l-.055.205-1.28-2.217a2.5,2.5,0,0,0-4.338,0,.6.6,0,0,0-.079.335.6.6,0,0,0,1.118.33m6.617,5.081a.617.617,0,0,0-1.038.665,1.179,1.179,0,0,1,0,1.24,1.292,1.292,0,0,1-1.131.653H28.757l.079-.079a.623.623,0,1,0-.848-.913l-1.165,1.165a.685.685,0,0,0,0,.913l1.165,1.165a.624.624,0,0,0,.848-.913l-.073-.073H31.3a2.511,2.511,0,0,0,2.507-2.535,2.506,2.506,0,0,0-.338-1.287M30.976,7.548a1.324,1.324,0,0,0-1.324-1.324H22a6.515,6.515,0,0,0-13.017,0H1.324a1.324,1.324,0,0,0,0,2.648H29.652a1.324,1.324,0,0,0,1.324-1.324M11.632,6.224a3.867,3.867,0,0,1,7.712,0Zm-1.677,5.62V31.66a1.324,1.324,0,0,0,2.648,0V11.844a1.324,1.324,0,0,0-2.648,0" transform="translate(0 -0.004)" fill="#1976d2"/>
        </g>
      </g>
    </g>
    <g id="Rettangolo_164143" data-name="Rettangolo 164143" transform="translate(132 32)" fill="none" stroke="#1976d2" stroke-width="2">
      <rect width="80" height="80" rx="40" stroke="none"/>
      <rect x="1" y="1" width="78" height="78" rx="39" fill="none"/>
    </g>
  </g>
</svg>
