<svg xmlns="http://www.w3.org/2000/svg" width="80" height="80" viewBox="0 0 80 80">
  <g id="Raggruppa_28683" data-name="Raggruppa 28683" transform="translate(-132 -32)">
    <g id="logo" transform="translate(109)">
      <rect id="Rettangolo_145801" data-name="Rettangolo 145801" width="80" height="80" transform="translate(23 32)" fill="none"/>
      <g id="noun-waste-4607607" transform="translate(-125.536 18.757)">
        <path id="Tracciato_73482" data-name="Tracciato 73482" d="M202.215,62.155c0-.011,0-.022,0-.033l-1.36-5.348h0a.962.962,0,0,0-1.072-.709l-3.173.446h0a.964.964,0,0,0-.669.418.934.934,0,0,0-.124.77l1.028,3.7h-2.759v-1.28a.949.949,0,0,0-.622-.886.976.976,0,0,0-1.063.256L188.773,63.5h0a.937.937,0,0,0,0,1.26l3.626,4.012a.975.975,0,0,0,1.063.256.949.949,0,0,0,.622-.886v-1.28h5.382a.967.967,0,0,0,.863-.524l1.813-3.566a.943.943,0,0,0,.08-.226v0h0a.924.924,0,0,0-.007-.393Zm-4.251-3.919,1.23-.173.849,3.34h-1.2Zm.906,6.733h-5.75a.963.963,0,0,0-.935.715l-1.4-1.55,1.4-1.55a.962.962,0,0,0,.935.715h6.6Zm-13.677,3.175a.94.94,0,0,0,.279-.676l-.031-3.12h0a.958.958,0,0,0-.964-.939H181.6l.994-1.478,1.085.707a.978.978,0,0,0,1.095-.02.939.939,0,0,0,.37-1.013l-1.4-5.188h0a.967.967,0,0,0-1.069-.7l-5.4.758a.959.959,0,0,0-.8.73.941.941,0,0,0,.409,1l1.086.707-2.972,4.412h0a.936.936,0,0,0-.052.96l1.914,3.627a.948.948,0,0,0,.165.221c.013.014.029.023.043.036a.952.952,0,0,0,.232.154c.023.011.045.023.069.032h0a.97.97,0,0,0,.3.067h6.85a.971.971,0,0,0,.685-.281Zm-5.09-8.973a.937.937,0,0,0-.09-1.161l2.088-.293.541,2h0a.993.993,0,0,0-.511-.034.964.964,0,0,0-.612.406l-3.709,5.515-.9-1.7Zm-.6,7.358.823-1.223h3.2l.012,1.223Zm9.719-10.691a.971.971,0,0,0,.959.52l5.431-.537h0a.955.955,0,0,0,.868-.928l.094-5.366a.948.948,0,0,0-.606-.9.976.976,0,0,0-1.068.238l-.882.942-3.96-3.583h0a.9.9,0,0,0-.665-.251l-4.214.05-.016,0h-.023c-.013,0-.024.009-.037.011a.967.967,0,0,0-.345.1c-.021.011-.043.017-.063.03a.944.944,0,0,0-.28.257c-.007.01-.02.014-.026.024L180.762,51.8a.937.937,0,0,0,.185,1.254l2.72,2.228h0a.973.973,0,0,0,.617.22,1.027,1.027,0,0,0,.149-.011.968.968,0,0,0,.665-.428l2.609-4.031,2.6,2.747-.93.994a.937.937,0,0,0-.153,1.066Zm-5.162-2.7-1.212-.992,2.43-3.583.989,1.167Zm3.32-5.236,1.654-.02,4.387,3.97h0a.978.978,0,0,0,1.181.1l-.036,2.073-2.1.208a.937.937,0,0,0-.143-1.1Zm20.452-12.179h0a2.846,2.846,0,0,0-2.12-.942H201.67l-.317-.624h0a5.736,5.736,0,0,0-2.146-2.318,5.872,5.872,0,0,0-3.068-.851h-1.9a5.692,5.692,0,0,0-3.092-4.13,5.869,5.869,0,0,0-5.216,0,5.692,5.692,0,0,0-3.092,4.13h-1.9a5.872,5.872,0,0,0-3.069.851,5.737,5.737,0,0,0-2.146,2.318l-.318.624h-4.041a2.847,2.847,0,0,0-2.12.942,2.748,2.748,0,0,0-.682,2.187l4.989,38.423a5.609,5.609,0,0,0,1.9,3.507,5.791,5.791,0,0,0,3.778,1.406h18.626a5.79,5.79,0,0,0,3.778-1.406,5.609,5.609,0,0,0,1.9-3.507l4.989-38.423a2.75,2.75,0,0,0-.682-2.187Zm-19.295-7.58a3.909,3.909,0,0,1,2.362.8,3.8,3.8,0,0,1,1.374,2.049H184.8a3.8,3.8,0,0,1,1.374-2.049,3.909,3.909,0,0,1,2.362-.8Zm-7.6,4.741h15.2a3.884,3.884,0,0,1,3.355,1.9H177.581a3.884,3.884,0,0,1,3.355-1.9Zm20.676,43.209a3.716,3.716,0,0,1-1.258,2.324,3.836,3.836,0,0,1-2.5.932H179.223a3.837,3.837,0,0,1-2.5-.932,3.717,3.717,0,0,1-1.258-2.324l-4.989-38.423a.871.871,0,0,1,.216-.694.9.9,0,0,1,.673-.3h34.35a.9.9,0,0,1,.673.3.871.871,0,0,1,.216.694ZM180.339,44.26h16.4a.973.973,0,0,0,.682-.278.941.941,0,0,0,.282-.671V39.518a.94.94,0,0,0-.282-.671.973.973,0,0,0-.682-.278h-16.4a.957.957,0,0,0-.964.948v3.793a.941.941,0,0,0,.282.671A.973.973,0,0,0,180.339,44.26Zm.964-3.793H195.77v1.9H181.3ZM198.18,73.656a.94.94,0,0,1-.282.671.973.973,0,0,1-.682.278H179.856a.948.948,0,1,1,0-1.9h17.359a.973.973,0,0,1,.682.278A.94.94,0,0,1,198.18,73.656Z" transform="translate(0 0)" fill="#1976d2"/>
      </g>
    </g>
    <g id="Rettangolo_164143" data-name="Rettangolo 164143" transform="translate(132 32)" fill="none" stroke="#1976d2" stroke-width="2">
      <rect width="80" height="80" rx="40" stroke="none"/>
      <rect x="1" y="1" width="78" height="78" rx="39" fill="none"/>
    </g>
  </g>
</svg>
