<svg xmlns="http://www.w3.org/2000/svg" width="80" height="80" viewBox="0 0 80 80">
  <g id="Raggruppa_28698" data-name="Raggruppa 28698" transform="translate(-132 -32)">
    <g id="logo" transform="translate(109)">
      <rect id="Rettangolo_145801" data-name="Rettangolo 145801" width="80" height="80" transform="translate(23 32)" fill="none"/>
      <g id="noun-factory-4584377" transform="translate(-47.833 13.175)">
        <path id="Tracciato_73484" data-name="Tracciato 73484" d="M136.24,42.134l-13.725-3.873a.813.813,0,0,0-1.033.785V43.79l-12.1,3.414v-2.8a.813.813,0,0,0-1.033-.785L95.658,47.2V43.018a.814.814,0,0,0-.813-.816h-9.2a.814.814,0,0,0-.813.816V74.6a.815.815,0,0,0,.813.816h25.8l-.506.88a4.314,4.314,0,0,0,3.722,6.471h15.264a4.314,4.314,0,0,0,3.722-6.471l-.506-.88h2.878a.814.814,0,0,0,.813-.816V42.92a.816.816,0,0,0-.593-.785Zm-13.132-2.011,12.1,3.414V69.565h-5.427l-3.764-6.543a4.247,4.247,0,0,0-2.91-2.081V40.123Zm-1.625,5.362V60.941a4.248,4.248,0,0,0-2.91,2.081l-3.764,6.543h-5.427V48.9Zm-13.725,2.8V69.564h-12.1V48.9l12.1-3.414Zm0,22.915V73.78h-12.1V71.2ZM94.033,48.281V69.564H86.459V47.6h7.574Zm0-4.447v2.132H86.459V43.834ZM86.459,71.2h7.574V73.78H86.459Zm22.924,2.584V71.2h4.489l-1.486,2.584Zm22.859,6.01a2.643,2.643,0,0,1-2.315,1.341H114.664a2.683,2.683,0,0,1-2.315-4.024l7.632-13.269a2.668,2.668,0,0,1,4.63,0l7.631,13.27a2.662,2.662,0,0,1,0,2.683Zm-.037-6.01L130.719,71.2h4.489V73.78ZM99.86,59.017h3.695a.814.814,0,0,0,.813-.815V54.492a.814.814,0,0,0-.813-.816H99.86a.814.814,0,0,0-.813.816V58.2A.814.814,0,0,0,99.86,59.017Zm.813-3.709h2.07v2.078h-2.07Zm12.912,3.709h3.695a.814.814,0,0,0,.813-.815V54.492a.814.814,0,0,0-.813-.816h-3.695a.814.814,0,0,0-.813.816V58.2A.815.815,0,0,0,113.586,59.017Zm.813-3.709h2.07v2.078H114.4Zm12.912,3.709h3.695a.814.814,0,0,0,.813-.815V54.492a.814.814,0,0,0-.813-.816h-3.695a.814.814,0,0,0-.813.816V58.2A.815.815,0,0,0,127.311,59.017Zm.813-3.709h2.07v2.078h-2.07Zm-.813-3.709h3.695a.814.814,0,0,0,.813-.816V47.073a.814.814,0,0,0-.813-.816h-3.695a.814.814,0,0,0-.813.816v3.709A.815.815,0,0,0,127.311,51.6Zm.813-3.709h2.07v2.078h-2.07Zm-38.794-8.23c1.778-3.894,5.148-3.5,8.121-3.159,2.66.308,5.172.6,7.2-1.436a.814.814,0,0,1,1.149,1.153c-2.584,2.594-5.747,2.227-8.537,1.9-3.3-.383-5.231-.469-6.457,2.218a.813.813,0,1,1-1.477-.68ZM122.3,76.248a1.989,1.989,0,1,0,1.981,1.989A1.988,1.988,0,0,0,122.3,76.248Zm0,2.347a.358.358,0,1,1,.356-.358A.357.357,0,0,1,122.3,78.594Zm0-2.81a1.722,1.722,0,0,0,1.724-1.669l.231-6.411a1.729,1.729,0,0,0-1.724-1.794h-.461a1.728,1.728,0,0,0-1.724,1.794l.23,6.411a1.723,1.723,0,0,0,1.724,1.669Zm-.3-8.212a.075.075,0,0,1,.072-.03h.461a.075.075,0,0,1,.072.031.078.078,0,0,1,.028.073l-.231,6.411a.1.1,0,0,1-.2,0l-.231-6.411A.077.077,0,0,1,121.994,67.572Z" transform="translate(0 0)" fill="#d21919"/>
      </g>
    </g>
    <g id="Rettangolo_164143" data-name="Rettangolo 164143" transform="translate(132 32)" fill="none" stroke="#d21919" stroke-width="2">
      <rect width="80" height="80" rx="40" stroke="none"/>
      <rect x="1" y="1" width="78" height="78" rx="39" fill="none"/>
    </g>
  </g>
</svg>
