<svg xmlns="http://www.w3.org/2000/svg" width="22" height="21.945" viewBox="0 0 22 21.945">
  <path id="share_location_FILL0_wght400_GRAD0_opsz48" d="M93.158,199.945v-1.654a9.666,9.666,0,0,0,2.412-.648,9.248,9.248,0,0,0,2.192-1.282l1.13,1.213a10.273,10.273,0,0,1-2.7,1.627A11.108,11.108,0,0,1,93.158,199.945Zm7.416-4.08-1.185-1.13a10.535,10.535,0,0,0,1.241-2.137,9.683,9.683,0,0,0,.689-2.467H103a11.789,11.789,0,0,1-.841,3.1A11.027,11.027,0,0,1,100.574,195.865Zm.744-8.05a9.476,9.476,0,0,0-.689-2.454,11.445,11.445,0,0,0-1.241-2.15l1.185-1.13a12.107,12.107,0,0,1,1.6,2.729,14.053,14.053,0,0,1,.827,3.005Zm-10.5,12.13a11.039,11.039,0,0,1,0-21.945v1.654a9.4,9.4,0,0,0,0,18.637Zm6.975-18.361a11.9,11.9,0,0,0-2.247-1.227,12.026,12.026,0,0,0-2.33-.7V178a13.268,13.268,0,0,1,2.95.8,10.964,10.964,0,0,1,2.729,1.571ZM92,194.789a18.625,18.625,0,0,1-3.474-3.68,5.754,5.754,0,0,1-1.13-3.129,4.473,4.473,0,0,1,1.392-3.46,4.664,4.664,0,0,1,6.424,0,4.473,4.473,0,0,1,1.392,3.46,5.754,5.754,0,0,1-1.13,3.129A18.625,18.625,0,0,1,92,194.789Zm0-5.762a1.224,1.224,0,0,0,1.241-1.241,1.229,1.229,0,0,0-.358-.855,1.2,1.2,0,0,0-1.764,0,1.229,1.229,0,0,0-.358.855A1.224,1.224,0,0,0,92,189.028Z" transform="translate(-81 -178)" fill="#fff"/>
</svg>
