<svg xmlns="http://www.w3.org/2000/svg" width="32" height="32" viewBox="0 0 32 32">
  <g id="logo" transform="translate(-24 -32)">
    <rect id="Rettangolo_145801" data-name="Rettangolo 145801" width="32" height="32" transform="translate(24 32)" fill="none"/>
    <g id="noun-environment-2887147" transform="translate(25.778 33.778)">
      <path id="Tracciato_73549" data-name="Tracciato 73549" d="M354.422,286.933a.438.438,0,0,1-.407-.277A10.469,10.469,0,0,1,367,272.854a.438.438,0,0,1,.3.432,14.2,14.2,0,0,1-.684,3.884.438.438,0,0,1-.589.268,5.829,5.829,0,0,0-7.5,7.969.439.439,0,0,1-.231.6,14.148,14.148,0,0,1-3.837.918l-.042,0Zm9.322-13.72a9.592,9.592,0,0,0-9.031,12.808,13.273,13.273,0,0,0,2.833-.663,6.639,6.639,0,0,1-.506-2.56,6.708,6.708,0,0,1,8.882-6.342,13.328,13.328,0,0,0,.49-2.867,9.592,9.592,0,0,0-2.669-.377Z" transform="translate(-338.871 -258.553)" fill="#1976d2"/>
      <path id="Tracciato_73550" data-name="Tracciato 73550" d="M420,347.915a.439.439,0,0,1-.392-.242,6.638,6.638,0,0,1-.709-3,6.707,6.707,0,0,1,9.337-6.167.439.439,0,0,1,.245.539,14.259,14.259,0,0,1-8.32,8.842.442.442,0,0,1-.161.03Zm5.6-9.071a5.834,5.834,0,0,0-5.827,5.827,5.771,5.771,0,0,0,.446,2.24,13.3,13.3,0,0,0,7.29-7.746,5.794,5.794,0,0,0-1.909-.32Z" transform="translate(-400.732 -320.425)" fill="#1976d2"/>
      <path id="Tracciato_73551" data-name="Tracciato 73551" d="M112.809,221.387a.439.439,0,0,1-.439-.439,9.6,9.6,0,0,0-9.586-9.586c-.194,0-.39.006-.6.019a.438.438,0,0,1-.465-.437v-.021a14.251,14.251,0,0,1,.535-3.877.439.439,0,0,1,.419-.319h.111a14.216,14.216,0,0,1,12.283,7.049.438.438,0,0,1,0,.443,13.335,13.335,0,0,0-1.82,6.73.439.439,0,0,1-.439.439Zm-10.025-10.9a10.482,10.482,0,0,1,9.955,7.24A14.171,14.171,0,0,1,114.181,214a13.409,13.409,0,0,0-11.168-6.4,13.372,13.372,0,0,0-.409,2.882l.181,0Z" transform="translate(-101.72 -196.701)" fill="#1976d2"/>
      <path id="Tracciato_73552" data-name="Tracciato 73552" d="M291.227,225.142a14.331,14.331,0,0,1-2.77-.271.439.439,0,0,1-.339-.319,14.231,14.231,0,0,1,16.53-17.56.439.439,0,0,1,.339.319,14.27,14.27,0,0,1,.462,3.608c0,.154,0,.316-.01.512a.439.439,0,0,1-.575.4,9.591,9.591,0,0,0-11.9,12.644.438.438,0,0,1-.366.6c-.415.04-.839.062-1.26.065h-.111Zm-2.328-1.08a13.471,13.471,0,0,0,2.328.2h.1c.2,0,.411-.008.615-.019a10.47,10.47,0,0,1,12.626-13.413,13.4,13.4,0,0,0-.366-3.03A13.355,13.355,0,0,0,288.9,224.061Z" transform="translate(-277.005 -196.698)" fill="#1976d2"/>
      <path id="Tracciato_73553" data-name="Tracciato 73553" d="M113.27,286.738a.436.436,0,0,1-.085-.008c-.343-.068-.687-.149-1.023-.242a14.149,14.149,0,0,1-3.579-1.545.439.439,0,0,1-.193-.5,5.83,5.83,0,0,0-5.592-7.469h-.1a.439.439,0,0,1-.429-.319,14.245,14.245,0,0,1-.536-3.859.439.439,0,0,1,.411-.438c.228-.014.441-.021.653-.021A10.475,10.475,0,0,1,113.261,282.8a13.384,13.384,0,0,0,.434,3.386.439.439,0,0,1-.424.55Zm-3.951-2.379a13.265,13.265,0,0,0,3.076,1.283c.1.026.192.052.288.076a14.3,14.3,0,0,1-.3-2.916,9.6,9.6,0,0,0-9.586-9.586l-.181,0a13.37,13.37,0,0,0,.41,2.884,6.708,6.708,0,0,1,6.292,8.257Z" transform="translate(-101.732 -258.556)" fill="#1976d2"/>
      <path id="Tracciato_73554" data-name="Tracciato 73554" d="M117.344,346.879a.439.439,0,0,1-.228-.064,14.189,14.189,0,0,1-6.314-8.285.439.439,0,0,1,.414-.558h.115a6.708,6.708,0,0,1,6.434,8.593.439.439,0,0,1-.421.315Zm-5.52-8.01a13.306,13.306,0,0,0,5.237,6.871,5.831,5.831,0,0,0-5.237-6.871Z" transform="translate(-110.266 -320.428)" fill="#1976d2"/>
      <path id="Tracciato_73555" data-name="Tracciato 73555" d="M115.943,60.166A14.222,14.222,0,1,1,126,56,14.128,14.128,0,0,1,115.943,60.166Zm0-27.567a13.345,13.345,0,1,0,13.345,13.345A13.36,13.36,0,0,0,115.943,32.6Z" transform="translate(-101.721 -31.722)" fill="#1976d2"/>
      <path id="Tracciato_73556" data-name="Tracciato 73556" d="M322.422,79.825a.439.439,0,0,1-.439-.439V64.976a.439.439,0,0,1,.877,0v14.41A.439.439,0,0,1,322.422,79.825Z" transform="translate(-309.366 -62.658)" fill="#1976d2"/>
      <path id="Tracciato_73557" data-name="Tracciato 73557" d="M323.176,93.073a3.448,3.448,0,0,1-1.1-.189.439.439,0,0,1-.3-.409,3.41,3.41,0,0,1,.192-1.209,2.571,2.571,0,0,1,2.355-1.74,3.388,3.388,0,0,1,1.245.186.438.438,0,0,1,.3.409,3.4,3.4,0,0,1-.2,1.224,2.572,2.572,0,0,1-2.4,1.727h-.087Zm-.512-.934a2.383,2.383,0,0,0,.574.056,1.7,1.7,0,0,0,1.6-1.152,2.394,2.394,0,0,0,.131-.587,2.358,2.358,0,0,0-.612-.054,1.695,1.695,0,0,0-1.571,1.162,2.372,2.372,0,0,0-.127.576Z" transform="translate(-309.168 -86.212)" fill="#1976d2"/>
      <path id="Tracciato_73558" data-name="Tracciato 73558" d="M269.11,78.942h-.085a2.511,2.511,0,0,1-2.345-1.685,3.316,3.316,0,0,1-.193-1.194.439.439,0,0,1,.3-.409A3.313,3.313,0,0,1,268,75.47a2.509,2.509,0,0,1,2.3,1.7,3.321,3.321,0,0,1,.188,1.179.439.439,0,0,1-.3.409,3.359,3.359,0,0,1-1.077.185ZM267.378,76.4a2.286,2.286,0,0,0,.126.556,1.635,1.635,0,0,0,1.547,1.111,2.306,2.306,0,0,0,.544-.052,2.3,2.3,0,0,0-.122-.545,1.633,1.633,0,0,0-1.514-1.12,2.284,2.284,0,0,0-.58.05Z" transform="translate(-257.048 -72.962)" fill="#1976d2"/>
      <path id="Tracciato_73559" data-name="Tracciato 73559" d="M323.506,170.461a4.48,4.48,0,0,1-1.433-.246.439.439,0,0,1-.3-.409,4.425,4.425,0,0,1,.249-1.569A3.3,3.3,0,0,1,325.049,166a4.412,4.412,0,0,1,1.615.242.439.439,0,0,1,.3.409,4.41,4.41,0,0,1-.256,1.588,3.3,3.3,0,0,1-3.087,2.218l-.113,0Zm-.847-.987a3.419,3.419,0,0,0,.934.108,2.425,2.425,0,0,0,2.288-1.643,3.39,3.39,0,0,0,.2-.955,3.374,3.374,0,0,0-.987-.106,2.422,2.422,0,0,0-2.241,1.656,3.405,3.405,0,0,0-.19.94Z" transform="translate(-309.168 -158.306)" fill="#1976d2"/>
      <path id="Tracciato_73560" data-name="Tracciato 73560" d="M249.183,148.581l-.113,0a3.3,3.3,0,0,1-3.087-2.217,4.412,4.412,0,0,1-.256-1.589.439.439,0,0,1,.3-.409,4.406,4.406,0,0,1,1.615-.242,3.3,3.3,0,0,1,3.025,2.235,4.427,4.427,0,0,1,.249,1.568.439.439,0,0,1-.3.409,4.477,4.477,0,0,1-1.434.246Zm-2.571-3.476a3.392,3.392,0,0,0,.2.955A2.425,2.425,0,0,0,249.1,147.7a3.419,3.419,0,0,0,.934-.108,3.4,3.4,0,0,0-.19-.94A2.423,2.423,0,0,0,247.6,145a3.374,3.374,0,0,0-.987.106Z" transform="translate(-237.477 -137.68)" fill="#1976d2"/>
      <path id="Tracciato_73561" data-name="Tracciato 73561" d="M415.63,87.106l.633-1.081,1.081.633-.633,1.081Z" transform="translate(-397.648 -82.914)" fill="#1976d2"/>
      <path id="Tracciato_73562" data-name="Tracciato 73562" d="M437.51,174.616l.633-1.081,1.081.633-.633,1.081Z" transform="translate(-418.275 -165.412)" fill="#1976d2"/>
      <path id="Tracciato_73563" data-name="Tracciato 73563" d="M188.82,119.886l.633-1.081,1.081.633-.633,1.081Z" transform="translate(-183.831 -113.817)" fill="#1976d2"/>
      <path id="Tracciato_73564" data-name="Tracciato 73564" d="M207.81,182.636l.633-1.081,1.081.633-.633,1.081Z" transform="translate(-201.733 -172.972)" fill="#1976d2"/>
    </g>
  </g>
</svg>
