<svg xmlns="http://www.w3.org/2000/svg" width="80" height="80" viewBox="0 0 80 80">
  <g id="Raggruppa_28682" data-name="Raggruppa 28682" transform="translate(-132 -32)">
    <g id="logo" transform="translate(109)">
      <rect id="Rettangolo_145801" data-name="Rettangolo 145801" width="80" height="80" transform="translate(23 32)" fill="none"/>
      <path id="noun-menu-1714170" d="M182.2,105a7.2,7.2,0,1,0,7.2,7.2A7.218,7.218,0,0,0,182.2,105Zm16.8,0a7.2,7.2,0,1,0,7.2,7.2A7.218,7.218,0,0,0,199,105Zm16.8,0a7.2,7.2,0,1,0,7.2,7.2A7.218,7.218,0,0,0,215.8,105Zm-33.6,2.4a4.8,4.8,0,1,1-4.8,4.8A4.782,4.782,0,0,1,182.2,107.4Zm16.8,0a4.8,4.8,0,1,1-4.8,4.8A4.782,4.782,0,0,1,199,107.4Zm16.8,0a4.8,4.8,0,1,1-4.8,4.8A4.782,4.782,0,0,1,215.8,107.4Zm-33.6,14.4a7.2,7.2,0,1,0,7.2,7.2A7.218,7.218,0,0,0,182.2,121.8Zm16.8,0a7.2,7.2,0,1,0,7.2,7.2A7.218,7.218,0,0,0,199,121.8Zm16.8,0A7.2,7.2,0,1,0,223,129,7.218,7.218,0,0,0,215.8,121.8Zm-33.6,2.4a4.8,4.8,0,1,1-4.8,4.8A4.782,4.782,0,0,1,182.2,124.2Zm16.8,0a4.8,4.8,0,1,1-4.8,4.8A4.782,4.782,0,0,1,199,124.2Zm16.8,0A4.8,4.8,0,1,1,211,129,4.782,4.782,0,0,1,215.8,124.2Zm-33.6,14.4a7.2,7.2,0,1,0,7.2,7.2A7.218,7.218,0,0,0,182.2,138.6Zm16.8,0a7.2,7.2,0,1,0,7.2,7.2A7.218,7.218,0,0,0,199,138.6Zm16.8,0a7.2,7.2,0,1,0,7.2,7.2A7.218,7.218,0,0,0,215.8,138.6ZM182.2,141a4.8,4.8,0,1,1-4.8,4.8A4.782,4.782,0,0,1,182.2,141Zm16.8,0a4.8,4.8,0,1,1-4.8,4.8A4.782,4.782,0,0,1,199,141Zm16.8,0a4.8,4.8,0,1,1-4.8,4.8A4.782,4.782,0,0,1,215.8,141Z" transform="translate(-136 -57)" fill="#1976d2"/>
    </g>
    <g id="Rettangolo_164143" data-name="Rettangolo 164143" transform="translate(132 32)" fill="none" stroke="#213366" stroke-width="2">
      <rect width="80" height="80" rx="40" stroke="none"/>
      <rect x="1" y="1" width="78" height="78" rx="39" fill="none"/>
    </g>
  </g>
</svg>
