<svg xmlns="http://www.w3.org/2000/svg" width="80" height="80" viewBox="0 0 80 80">
  <g id="Raggruppa_28697" data-name="Raggruppa 28697" transform="translate(-132 -32)">
    <g id="logo" transform="translate(109)">
      <rect id="Rettangolo_145801" data-name="Rettangolo 145801" width="80" height="80" transform="translate(23 32)" fill="none"/>
      <g id="noun-evaluation-2234438" transform="translate(-34.986 30.5)">
        <path id="Tracciato_73485" data-name="Tracciato 73485" d="M334.844,258.953a8.009,8.009,0,1,0,5.657-2.339A8,8,0,0,0,334.844,258.953Zm10.182,10.182a6.407,6.407,0,1,1,1.872-4.526A6.4,6.4,0,0,1,345.027,269.136Z" transform="translate(-236.114 -217.252)" fill="#d21919"/>
        <path id="Tracciato_73486" data-name="Tracciato 73486" d="M164.1,55.7h-6.4a3.2,3.2,0,0,0-3.2-3.2H125.7a3.2,3.2,0,0,0-3.2,3.2V93.3a.8.8,0,0,0,.8.8h28.8a.8.8,0,0,0,.8-.8V89.893a11.092,11.092,0,0,0,2.836-1.306l6.41,6.41A2.4,2.4,0,0,0,165.54,91.6l-6.41-6.41A11.2,11.2,0,0,0,152.9,68.42V66.9h6.4a3.2,3.2,0,0,0,3.2-3.2v-.8h4a.8.8,0,0,0,.8-.8V58.9a3.2,3.2,0,0,0-3.2-3.2Zm.308,38.166a.8.8,0,0,1-1.131,0l-3.96-3.96,1.131-1.131,3.96,3.96h0a.8.8,0,0,1,0,1.131Zm-6.223-7.354,1.132,1.131-1.131,1.131-1.132-1.131Zm1.115-7.355a9.6,9.6,0,1,1-2.812-6.788,9.6,9.6,0,0,1,2.812,6.788Zm-9.6-11.2a11.227,11.227,0,0,0-3.44.542H135.3v1.6h7.83a10.894,10.894,0,0,0-3.419,4H138.5v1.6h.55a11.136,11.136,0,0,0-.386,1.6H135.3v1.6h3.213c0,.086-.013.171-.013.258a11.126,11.126,0,0,0,12.8,11.074V92.5H124.1V55.7a1.6,1.6,0,0,1,1.6-1.6h26.044a3.166,3.166,0,0,0-.445,1.6V68.084a11.32,11.32,0,0,0-1.6-.126ZM152.9,55.7a1.6,1.6,0,1,1,3.2,0v8a3.166,3.166,0,0,0,.445,1.6H152.9Zm8,8a1.6,1.6,0,1,1-3.2,0V57.3h3.645a3.166,3.166,0,0,0-.445,1.6Zm4.8-2.4h-3.2V58.9a1.6,1.6,0,1,1,3.2,0Z" transform="translate(-45.313 -31.8)" fill="#d21919"/>
        <path id="Tracciato_73487" data-name="Tracciato 73487" d="M379.95,319.964l-1.131,1.131,2.4,2.4h0a.8.8,0,0,0,1.131,0l4.8-4.8-1.131-1.131-4.235,4.234Z" transform="translate(-278.198 -272.63)" fill="#d21919"/>
        <path id="Tracciato_73488" data-name="Tracciato 73488" d="M167.05,102.65h4.8a.8.8,0,0,0,.8-.8v-4.8a.8.8,0,0,0-.8-.8h-4.8a.8.8,0,0,0-.8.8v4.8a.8.8,0,0,0,.8.8Zm.8-4.8h3.2v3.2h-3.2Z" transform="translate(-85.063 -71.55)" fill="#d21919"/>
        <path id="Tracciato_73489" data-name="Tracciato 73489" d="M167.05,198.9h4.8a.8.8,0,0,0,.8-.8v-4.8a.8.8,0,0,0-.8-.8h-4.8a.8.8,0,0,0-.8.8v4.8a.8.8,0,0,0,.8.8Zm.8-4.8h3.2v3.2h-3.2Z" transform="translate(-85.063 -159)" fill="#d21919"/>
        <path id="Tracciato_73490" data-name="Tracciato 73490" d="M167.05,295.15h4.8a.8.8,0,0,0,.8-.8v-4.8a.8.8,0,0,0-.8-.8h-4.8a.8.8,0,0,0-.8.8v4.8a.8.8,0,0,0,.8.8Zm.8-4.8h3.2v3.2h-3.2Z" transform="translate(-85.063 -246.45)" fill="#d21919"/>
        <path id="Tracciato_73491" data-name="Tracciato 73491" d="M262.5,96.25h1.6v1.6h-1.6Z" transform="translate(-172.513 -71.55)" fill="#d21919"/>
        <path id="Tracciato_73492" data-name="Tracciato 73492" d="M297.5,96.25h10.4v1.6H297.5Z" transform="translate(-204.313 -71.55)" fill="#d21919"/>
        <path id="Tracciato_73493" data-name="Tracciato 73493" d="M262.5,131.25h10.4v1.6H262.5Z" transform="translate(-172.513 -103.35)" fill="#d21919"/>
        <path id="Tracciato_73494" data-name="Tracciato 73494" d="M262.5,192.5h1.6v1.6h-1.6Z" transform="translate(-172.513 -159)" fill="#d21919"/>
        <path id="Tracciato_73495" data-name="Tracciato 73495" d="M297.5,192.5h10.4v1.6H297.5Z" transform="translate(-204.313 -159)" fill="#d21919"/>
        <path id="Tracciato_73496" data-name="Tracciato 73496" d="M262.5,288.75h1.6v1.6h-1.6Z" transform="translate(-172.513 -246.45)" fill="#d21919"/>
        <path id="Tracciato_73497" data-name="Tracciato 73497" d="M166.25,411.25h1.6v1.6h-1.6Z" transform="translate(-85.063 -357.75)" fill="#d21919"/>
        <path id="Tracciato_73498" data-name="Tracciato 73498" d="M201.25,411.25h8.8v1.6h-8.8Z" transform="translate(-116.863 -357.75)" fill="#d21919"/>
        <path id="Tracciato_73499" data-name="Tracciato 73499" d="M166.25,446.25h13.6v1.6h-13.6Z" transform="translate(-85.063 -389.55)" fill="#d21919"/>
        <path id="Tracciato_73500" data-name="Tracciato 73500" d="M89.1,23.1a4,4,0,0,1,4-4h1.6V17.5H93.1a5.607,5.607,0,0,0-5.6,5.6V39.9h1.6Z" transform="translate(-13.513)" fill="#d21919"/>
        <path id="Tracciato_73501" data-name="Tracciato 73501" d="M210,525h16v1.6H210Z" transform="translate(-124.813 -461.1)" fill="#d21919"/>
        <path id="Tracciato_73502" data-name="Tracciato 73502" d="M87.5,280h1.6v1.6H87.5Z" transform="translate(-13.513 -238.5)" fill="#d21919"/>
        <path id="Tracciato_73503" data-name="Tracciato 73503" d="M530.113,254.592a14.412,14.412,0,0,0-2.147-15.247l-1.219,1.035a12.814,12.814,0,0,1,1.908,13.553Z" transform="translate(-412.601 -201.562)" fill="#d21919"/>
      </g>
    </g>
    <g id="Rettangolo_164143" data-name="Rettangolo 164143" transform="translate(132 32)" fill="none" stroke="#d21919" stroke-width="2">
      <rect width="80" height="80" rx="40" stroke="none"/>
      <rect x="1" y="1" width="78" height="78" rx="39" fill="none"/>
    </g>
  </g>
</svg>
