<svg xmlns="http://www.w3.org/2000/svg" width="80" height="80" viewBox="0 0 80 80">
  <g id="Raggruppa_28716" data-name="Raggruppa 28716" transform="translate(-132 -32)">
    <g id="logo" transform="translate(109)">
      <rect id="Rettangolo_145801" data-name="Rettangolo 145801" width="80" height="80" transform="translate(23 32)" fill="none"/>
      <g id="Raggruppa_28711" data-name="Raggruppa 28711" transform="translate(52.367 47.167)">
        <g id="Raggruppa_28712" data-name="Raggruppa 28712">
          <path id="Tracciato_74350" data-name="Tracciato 74350" d="M21.288,75.2a38.706,38.706,0,0,1,2.078-6.291c1.171-2.811.255-6.8-2.553-9.957a12.431,12.431,0,0,0-4.185-3.111C12.3,53.595,7.5,54.136,5.581,57.225c-2.052,3.3-.034,8.268,4.508,11.09a9.224,9.224,0,0,1,3.928,9.751L14,78.141a5.7,5.7,0,0,1-2.118,3.238A7.988,7.988,0,0,0,8.994,86.6c-.562,3.965,1.592,7.549,4.811,8.005s6.285-2.388,6.847-6.352a8.8,8.8,0,0,0,.047-2.1A34.183,34.183,0,0,1,21.288,75.2Z" transform="translate(-3.947 -44.99)" fill="none" stroke="#d21919" stroke-width="1.5"/>
          <path id="Tracciato_74351" data-name="Tracciato 74351" d="M5.971,4.722c-.424,2.287-2.082,3.9-3.7,3.6S-.325,5.921.1,3.634s2.082-3.9,3.7-3.6,2.592,2.4,2.169,4.686" transform="translate(-2 -1)" fill="none" stroke="#d21919" stroke-width="1.5"/>
          <path id="Tracciato_74352" data-name="Tracciato 74352" d="M44.542,8.059c-.389,1.628-1.64,2.724-2.794,2.448S39.974,8.688,40.363,7.06,42,4.336,43.157,4.611s1.774,1.819,1.385,3.447" transform="translate(-34.243 -4.774)" fill="none" stroke="#d21919" stroke-width="1.5"/>
          <path id="Tracciato_74353" data-name="Tracciato 74353" d="M72.686,22.069c-.4,1.294-1.462,2.115-2.379,1.834s-1.34-1.558-.943-2.852,1.462-2.115,2.379-1.834,1.34,1.558.943,2.852" transform="translate(-57.17 -16.827)" fill="none" stroke="#d21919" stroke-width="1.5"/>
          <path id="Tracciato_74354" data-name="Tracciato 74354" d="M91.919,42.627c-.2,1.221-1.07,2.093-1.935,1.949s-1.4-1.25-1.2-2.471,1.07-2.093,1.935-1.949,1.4,1.25,1.2,2.471" transform="translate(-71.725 -34.155)" fill="none" stroke="#d21919" stroke-width="1.5"/>
          <path id="Tracciato_74355" data-name="Tracciato 74355" d="M107.83,69.088a1.556,1.556,0,1,1-1.46-1.955,1.75,1.75,0,0,1,1.46,1.955" transform="translate(-84.565 -56.45)" fill="none" stroke="#d21919" stroke-width="1.5"/>
        </g>
      </g>
    </g>
    <g id="Rettangolo_164143" data-name="Rettangolo 164143" transform="translate(132 32)" fill="none" stroke="#d21919" stroke-width="2">
      <rect width="80" height="80" rx="40" stroke="none"/>
      <rect x="1" y="1" width="78" height="78" rx="39" fill="none"/>
    </g>
  </g>
</svg>
