<?xml version="1.0" encoding="utf-8"?>
<!-- Generator: Adobe Illustrator 19.2.1, SVG Export Plug-In . SVG Version: 6.00 Build 0)  -->
<svg version="1.1" id="icons" xmlns="http://www.w3.org/2000/svg" xmlns:xlink="http://www.w3.org/1999/xlink" x="0px" y="0px"
	 viewBox="0 0 46.1 45.2" style="enable-background:new 0 0 46.1 45.2;" xml:space="preserve">
<style type="text/css">
	.st0{fill:#FFFFFF;}
</style>
<g>
	<path class="st0" d="M13.6,7.4h-0.6C11.3,16.2,1,22,1,32.1c0,6.8,5.5,12.4,12.4,12.4c6.8,0,12.4-5.5,12.4-12.4
		C25.7,22,15.4,16.2,13.6,7.4z M11.1,40.8c-1.4-0.1-3.6-0.9-5-2.3C4.8,37,4,34.9,4,33.4c0-1.1,0.7-1.2,1.2-0.5
		c0.4,0.6,1.5,2.4,2.8,3.8c1.3,1.4,3.1,2.4,3.7,2.9C12.4,40.1,12.3,40.8,11.1,40.8z"/>
	<path class="st0" d="M38.1,15.7h-0.3c-1.1,5.3-7.3,8.8-7.3,14.9c0,4.1,3.3,7.4,7.4,7.4c4.1,0,7.4-3.3,7.4-7.4
		C45.4,24.5,39.2,21,38.1,15.7z M37.5,36c-1,0-2.6-0.7-3.6-1.7c-1-1-1.5-2.6-1.5-3.6c0-0.8,0.5-0.9,0.9-0.4c0.3,0.4,1.1,1.8,2,2.7
		c0.9,1,2.2,1.8,2.7,2.1C38.4,35.5,38.3,36.1,37.5,36z"/>
	<path class="st0" d="M27.6,1h-0.3c-0.8,3.8-5.3,6.4-5.3,10.7c0,3,2.4,5.4,5.4,5.4c3,0,5.4-2.4,5.4-5.4C32.8,7.4,28.4,4.8,27.6,1z"
		/>
</g>
</svg>
