<svg id="Localizza_su_mappa" data-name="Localizza su mappa" xmlns="http://www.w3.org/2000/svg" width="24" height="24" viewBox="0 0 24 24">
  <rect id="Rettangolo_146244" data-name="Rettangolo 146244" width="24" height="24" fill="none"/>
  <path id="my_location_FILL1_wght400_GRAD0_opsz24" d="M11.045,23.05V21.041a8.8,8.8,0,0,1-5.386-2.6,8.8,8.8,0,0,1-2.6-5.387H1.05V11.045H3.059a8.8,8.8,0,0,1,2.6-5.387,8.8,8.8,0,0,1,5.386-2.6V1.05h2.009V3.059a8.8,8.8,0,0,1,5.387,2.6,8.8,8.8,0,0,1,2.6,5.387H23.05v2.009H21.041a8.8,8.8,0,0,1-2.6,5.387,8.8,8.8,0,0,1-5.387,2.6V23.05Zm1-3.968a6.776,6.776,0,0,0,4.973-2.059,6.776,6.776,0,0,0,2.059-4.973,6.776,6.776,0,0,0-2.059-4.973A6.776,6.776,0,0,0,12.05,5.018,6.776,6.776,0,0,0,7.077,7.077,6.776,6.776,0,0,0,5.018,12.05a6.776,6.776,0,0,0,2.059,4.973A6.776,6.776,0,0,0,12.05,19.082Zm0-3.014A4.03,4.03,0,0,1,8.032,12.05,4.03,4.03,0,0,1,12.05,8.032a4.03,4.03,0,0,1,4.018,4.018,4.03,4.03,0,0,1-4.018,4.018Z" transform="translate(-0.05 -0.05)" fill="#1976d2"/>
</svg>
